G04 #@! TF.GenerationSoftware,KiCad,Pcbnew,8.0.4*
G04 #@! TF.CreationDate,2024-08-10T20:36:19+03:00*
G04 #@! TF.ProjectId,7clock,37636c6f-636b-42e6-9b69-6361645f7063,rev?*
G04 #@! TF.SameCoordinates,Original*
G04 #@! TF.FileFunction,Soldermask,Top*
G04 #@! TF.FilePolarity,Negative*
%FSLAX46Y46*%
G04 Gerber Fmt 4.6, Leading zero omitted, Abs format (unit mm)*
G04 Created by KiCad (PCBNEW 8.0.4) date 2024-08-10 20:36:19*
%MOMM*%
%LPD*%
G01*
G04 APERTURE LIST*
%ADD10R,1.350000X1.350000*%
%ADD11C,1.350000*%
%ADD12C,2.400000*%
%ADD13C,1.000000*%
G04 APERTURE END LIST*
D10*
G04 #@! TO.C,DS4*
X113340000Y-93218000D03*
D11*
X115880000Y-93218000D03*
X118420000Y-93218000D03*
X120960000Y-93218000D03*
X123500000Y-93218000D03*
X123500000Y-62818000D03*
X120960000Y-62818000D03*
X118420000Y-62818000D03*
X115880000Y-62818000D03*
X113340000Y-62818000D03*
G04 #@! TD*
D10*
G04 #@! TO.C,DS3*
X138486000Y-93218000D03*
D11*
X141026000Y-93218000D03*
X143566000Y-93218000D03*
X146106000Y-93218000D03*
X148646000Y-93218000D03*
X148646000Y-62818000D03*
X146106000Y-62818000D03*
X143566000Y-62818000D03*
X141026000Y-62818000D03*
X138486000Y-62818000D03*
G04 #@! TD*
D10*
G04 #@! TO.C,DS1*
X189840000Y-93218000D03*
D11*
X192380000Y-93218000D03*
X194920000Y-93218000D03*
X197460000Y-93218000D03*
X200000000Y-93218000D03*
X200000000Y-62818000D03*
X197460000Y-62818000D03*
X194920000Y-62818000D03*
X192380000Y-62818000D03*
X189840000Y-62818000D03*
G04 #@! TD*
D10*
G04 #@! TO.C,DS2*
X164694000Y-93218000D03*
D11*
X167234000Y-93218000D03*
X169774000Y-93218000D03*
X172314000Y-93218000D03*
X174854000Y-93218000D03*
X174854000Y-62818000D03*
X172314000Y-62818000D03*
X169774000Y-62818000D03*
X167234000Y-62818000D03*
X164694000Y-62818000D03*
G04 #@! TD*
D12*
G04 #@! TO.C,BT1*
X113792000Y-67822000D03*
X113792000Y-81022000D03*
G04 #@! TD*
D13*
G04 #@! TO.C,Y1*
X118999000Y-86609000D03*
X118999000Y-84709000D03*
G04 #@! TD*
M02*
