G04 #@! TF.GenerationSoftware,KiCad,Pcbnew,8.0.4*
G04 #@! TF.CreationDate,2024-08-10T20:36:19+03:00*
G04 #@! TF.ProjectId,7clock,37636c6f-636b-42e6-9b69-6361645f7063,rev?*
G04 #@! TF.SameCoordinates,Original*
G04 #@! TF.FileFunction,Copper,L1,Top*
G04 #@! TF.FilePolarity,Positive*
%FSLAX46Y46*%
G04 Gerber Fmt 4.6, Leading zero omitted, Abs format (unit mm)*
G04 Created by KiCad (PCBNEW 8.0.4) date 2024-08-10 20:36:19*
%MOMM*%
%LPD*%
G01*
G04 APERTURE LIST*
G04 #@! TA.AperFunction,ComponentPad*
%ADD10R,1.350000X1.350000*%
G04 #@! TD*
G04 #@! TA.AperFunction,ComponentPad*
%ADD11C,1.350000*%
G04 #@! TD*
G04 #@! TA.AperFunction,ComponentPad*
%ADD12C,2.400000*%
G04 #@! TD*
G04 #@! TA.AperFunction,ComponentPad*
%ADD13C,1.000000*%
G04 #@! TD*
G04 #@! TA.AperFunction,ViaPad*
%ADD14C,0.560000*%
G04 #@! TD*
G04 #@! TA.AperFunction,ViaPad*
%ADD15C,0.600000*%
G04 #@! TD*
G04 #@! TA.AperFunction,Conductor*
%ADD16C,0.400000*%
G04 #@! TD*
G04 #@! TA.AperFunction,Conductor*
%ADD17C,0.200000*%
G04 #@! TD*
G04 APERTURE END LIST*
D10*
G04 #@! TO.P,DS4,1,E*
G04 #@! TO.N,/symb_E*
X113340000Y-93218000D03*
D11*
G04 #@! TO.P,DS4,2,D*
G04 #@! TO.N,/symb_D*
X115880000Y-93218000D03*
G04 #@! TO.P,DS4,3,COMMON_ANODE_1*
G04 #@! TO.N,Net-(DS4-COMMON_ANODE_1)*
X118420000Y-93218000D03*
G04 #@! TO.P,DS4,4,C*
G04 #@! TO.N,/symb_C*
X120960000Y-93218000D03*
G04 #@! TO.P,DS4,5,DP*
G04 #@! TO.N,/symb_DP*
X123500000Y-93218000D03*
G04 #@! TO.P,DS4,6,B*
G04 #@! TO.N,/symb_B*
X123500000Y-62818000D03*
G04 #@! TO.P,DS4,7,A*
G04 #@! TO.N,/symb_A*
X120960000Y-62818000D03*
G04 #@! TO.P,DS4,8,COMMON_ANODE_2*
G04 #@! TO.N,Net-(DS4-COMMON_ANODE_1)*
X118420000Y-62818000D03*
G04 #@! TO.P,DS4,9,F*
G04 #@! TO.N,/symb_F*
X115880000Y-62818000D03*
G04 #@! TO.P,DS4,10,G*
G04 #@! TO.N,/symb_G*
X113340000Y-62818000D03*
G04 #@! TD*
D10*
G04 #@! TO.P,DS3,1,E*
G04 #@! TO.N,/symb_E*
X138486000Y-93218000D03*
D11*
G04 #@! TO.P,DS3,2,D*
G04 #@! TO.N,/symb_D*
X141026000Y-93218000D03*
G04 #@! TO.P,DS3,3,COMMON_ANODE_1*
G04 #@! TO.N,Net-(DS3-COMMON_ANODE_1)*
X143566000Y-93218000D03*
G04 #@! TO.P,DS3,4,C*
G04 #@! TO.N,/symb_C*
X146106000Y-93218000D03*
G04 #@! TO.P,DS3,5,DP*
G04 #@! TO.N,/symb_DP*
X148646000Y-93218000D03*
G04 #@! TO.P,DS3,6,B*
G04 #@! TO.N,/symb_B*
X148646000Y-62818000D03*
G04 #@! TO.P,DS3,7,A*
G04 #@! TO.N,/symb_A*
X146106000Y-62818000D03*
G04 #@! TO.P,DS3,8,COMMON_ANODE_2*
G04 #@! TO.N,Net-(DS3-COMMON_ANODE_1)*
X143566000Y-62818000D03*
G04 #@! TO.P,DS3,9,F*
G04 #@! TO.N,/symb_F*
X141026000Y-62818000D03*
G04 #@! TO.P,DS3,10,G*
G04 #@! TO.N,/symb_G*
X138486000Y-62818000D03*
G04 #@! TD*
D10*
G04 #@! TO.P,DS1,1,E*
G04 #@! TO.N,/symb_E*
X189840000Y-93218000D03*
D11*
G04 #@! TO.P,DS1,2,D*
G04 #@! TO.N,/symb_D*
X192380000Y-93218000D03*
G04 #@! TO.P,DS1,3,COMMON_ANODE_1*
G04 #@! TO.N,Net-(DS1-COMMON_ANODE_1)*
X194920000Y-93218000D03*
G04 #@! TO.P,DS1,4,C*
G04 #@! TO.N,/symb_C*
X197460000Y-93218000D03*
G04 #@! TO.P,DS1,5,DP*
G04 #@! TO.N,/symb_DP*
X200000000Y-93218000D03*
G04 #@! TO.P,DS1,6,B*
G04 #@! TO.N,/symb_B*
X200000000Y-62818000D03*
G04 #@! TO.P,DS1,7,A*
G04 #@! TO.N,/symb_A*
X197460000Y-62818000D03*
G04 #@! TO.P,DS1,8,COMMON_ANODE_2*
G04 #@! TO.N,Net-(DS1-COMMON_ANODE_1)*
X194920000Y-62818000D03*
G04 #@! TO.P,DS1,9,F*
G04 #@! TO.N,/symb_F*
X192380000Y-62818000D03*
G04 #@! TO.P,DS1,10,G*
G04 #@! TO.N,/symb_G*
X189840000Y-62818000D03*
G04 #@! TD*
D10*
G04 #@! TO.P,DS2,1,E*
G04 #@! TO.N,/symb_E*
X164694000Y-93218000D03*
D11*
G04 #@! TO.P,DS2,2,D*
G04 #@! TO.N,/symb_D*
X167234000Y-93218000D03*
G04 #@! TO.P,DS2,3,COMMON_ANODE_1*
G04 #@! TO.N,Net-(DS2-COMMON_ANODE_1)*
X169774000Y-93218000D03*
G04 #@! TO.P,DS2,4,C*
G04 #@! TO.N,/symb_C*
X172314000Y-93218000D03*
G04 #@! TO.P,DS2,5,DP*
G04 #@! TO.N,/symb_DP*
X174854000Y-93218000D03*
G04 #@! TO.P,DS2,6,B*
G04 #@! TO.N,/symb_B*
X174854000Y-62818000D03*
G04 #@! TO.P,DS2,7,A*
G04 #@! TO.N,/symb_A*
X172314000Y-62818000D03*
G04 #@! TO.P,DS2,8,COMMON_ANODE_2*
G04 #@! TO.N,Net-(DS2-COMMON_ANODE_1)*
X169774000Y-62818000D03*
G04 #@! TO.P,DS2,9,F*
G04 #@! TO.N,/symb_F*
X167234000Y-62818000D03*
G04 #@! TO.P,DS2,10,G*
G04 #@! TO.N,/symb_G*
X164694000Y-62818000D03*
G04 #@! TD*
D12*
G04 #@! TO.P,BT1,1,+*
G04 #@! TO.N,Net-(BT1-+)*
X113792000Y-67822000D03*
X113792000Y-81022000D03*
G04 #@! TD*
D13*
G04 #@! TO.P,Y1,1,1*
G04 #@! TO.N,Net-(U2-OSCI)*
X118999000Y-86609000D03*
G04 #@! TO.P,Y1,2,2*
G04 #@! TO.N,Net-(U2-OSCO)*
X118999000Y-84709000D03*
G04 #@! TD*
D14*
G04 #@! TO.N,GND*
X142494000Y-84836000D03*
X110109000Y-62611000D03*
X203073000Y-93345000D03*
X168529000Y-69977000D03*
X204216000Y-62357000D03*
X159766000Y-79756000D03*
X171196000Y-80137000D03*
X196469000Y-88646000D03*
X123698000Y-88011000D03*
X133604000Y-62865000D03*
X132080000Y-80010000D03*
X175133000Y-85979000D03*
X128651000Y-81280000D03*
X136144000Y-93218000D03*
X159639000Y-74295000D03*
X205232000Y-91186000D03*
X127127000Y-93218000D03*
X158750000Y-93218000D03*
X163322000Y-77089000D03*
X107950000Y-63627000D03*
X153035000Y-63119000D03*
X123444000Y-79375000D03*
X150749000Y-62484000D03*
X132842000Y-70866000D03*
X116586000Y-74422000D03*
X205232000Y-93345000D03*
X154178000Y-62484000D03*
X162179000Y-74803000D03*
X153416000Y-93218000D03*
X191262000Y-75184000D03*
X134493000Y-93218000D03*
X192278000Y-73660000D03*
X127127000Y-68199000D03*
X187579000Y-81026000D03*
X150114000Y-69723000D03*
X186944000Y-74168000D03*
X145923000Y-85344000D03*
X178943000Y-77343000D03*
X128778000Y-93218000D03*
X110744000Y-86233000D03*
X122301000Y-68199000D03*
X124714000Y-68199000D03*
X142240000Y-75565000D03*
X139319000Y-79436000D03*
X145161000Y-71882000D03*
X132969000Y-93218000D03*
X129413000Y-76327000D03*
X205232000Y-62357000D03*
X192024000Y-78994000D03*
X183769000Y-81153000D03*
X108966000Y-93345000D03*
X108966000Y-62611000D03*
X110744000Y-84836000D03*
X191770000Y-88646000D03*
X176403000Y-81153000D03*
X122555000Y-75946000D03*
X189230000Y-68834000D03*
X162941000Y-82804000D03*
X186182000Y-63119000D03*
X205232000Y-64516000D03*
X127889000Y-76073000D03*
X109220000Y-84836000D03*
X205232000Y-63373000D03*
X178689000Y-93218000D03*
X142494000Y-86995000D03*
X162687000Y-93218000D03*
X194183000Y-88646000D03*
X140589000Y-68961000D03*
X183769000Y-77470000D03*
X135763000Y-62865000D03*
X132207000Y-81341000D03*
X184277000Y-93218000D03*
X162687000Y-62611000D03*
X161417000Y-81280000D03*
X123825000Y-83185000D03*
X123825000Y-85852000D03*
X180467000Y-81153000D03*
X189103000Y-88646000D03*
X158242000Y-81534000D03*
X113792000Y-77089000D03*
X169799000Y-80772000D03*
X197739000Y-72136000D03*
X159385000Y-70231000D03*
X171323000Y-85725000D03*
X204216000Y-93345000D03*
X123825000Y-84455000D03*
X205232000Y-92329000D03*
X187706000Y-63119000D03*
X153543000Y-72136000D03*
X123444000Y-75946000D03*
X159639000Y-81407000D03*
X203073000Y-62357000D03*
X177165000Y-93218000D03*
X129159000Y-62865000D03*
X125095000Y-79375000D03*
X160401000Y-62611000D03*
X152908000Y-81534000D03*
X107950000Y-93345000D03*
X109220000Y-86233000D03*
X186944000Y-68834000D03*
X107950000Y-62611000D03*
X190373000Y-80899000D03*
X131064000Y-76581000D03*
X107950000Y-92329000D03*
X129413000Y-68199000D03*
X154932091Y-80891091D03*
X160782000Y-93218000D03*
X110109000Y-93345000D03*
X107950000Y-64770000D03*
X119126000Y-68199000D03*
X107950000Y-91186000D03*
X145161000Y-74295000D03*
X140462000Y-78232000D03*
X163068000Y-69723000D03*
X166624000Y-80772000D03*
X150622000Y-93218000D03*
X126238000Y-71120000D03*
X180594000Y-93218000D03*
X142240000Y-73533000D03*
X186944000Y-71501000D03*
X150241000Y-81915000D03*
X113792000Y-71628000D03*
X151892000Y-93218000D03*
X126111000Y-62865000D03*
X192786000Y-85979000D03*
X122936000Y-82550000D03*
X125476000Y-93218000D03*
X155067000Y-70739000D03*
X124460000Y-75946000D03*
D15*
G04 #@! TO.N,+3.3V*
X183769000Y-68580000D03*
D14*
X176149000Y-68580000D03*
D15*
X166497000Y-88519000D03*
X137223500Y-75882500D03*
X129794000Y-88138000D03*
X167767000Y-74295000D03*
X186690000Y-88519000D03*
X194310000Y-66802000D03*
D14*
X172466000Y-68580000D03*
D15*
X161290000Y-88519000D03*
X146177000Y-68580000D03*
X156210000Y-88519000D03*
D14*
X179959000Y-68580000D03*
D15*
X159131000Y-68580000D03*
D14*
G04 #@! TO.N,/symb_C*
X172339000Y-91440000D03*
X199707500Y-91249500D03*
X146177000Y-91440000D03*
G04 #@! TO.N,/symb_A*
X172339000Y-64770000D03*
X146177000Y-64770000D03*
X201149878Y-64788122D03*
G04 #@! TO.N,/symb_B*
X201115500Y-63933500D03*
G04 #@! TO.N,/symb_D*
X199548750Y-90455750D03*
X141097000Y-90805000D03*
X167259000Y-90805000D03*
G04 #@! TO.N,/symb_E*
X198623000Y-90048000D03*
X138557000Y-90170000D03*
X164719000Y-90170000D03*
G04 #@! TO.N,/symb_G*
X201295000Y-66929000D03*
X164719000Y-66167000D03*
X138557000Y-66167000D03*
G04 #@! TO.N,/symb_DP*
X200787000Y-91186000D03*
G04 #@! TO.N,/symb_F*
X167259000Y-65405000D03*
X140970000Y-65405000D03*
X201168000Y-65786000D03*
G04 #@! TO.N,Net-(DS3-COMMON_ANODE_1)*
X143566000Y-66802000D03*
X176784000Y-66802000D03*
G04 #@! TO.N,Net-(DS4-COMMON_ANODE_1)*
X173228000Y-67564000D03*
X114935000Y-65659000D03*
G04 #@! TO.N,/INDICATOR_PWR*
X169735500Y-74231500D03*
X173355000Y-74676000D03*
X184658000Y-74676000D03*
X180975000Y-74676000D03*
X177038000Y-74676000D03*
G04 #@! TO.N,BRIGHTNESS*
X164465000Y-70866000D03*
X157353000Y-74295000D03*
G04 #@! TO.N,BUTTON*
X192278000Y-71628000D03*
X151511000Y-75819000D03*
G04 #@! TO.N,/SIG_SHCP*
X169799000Y-83312000D03*
X154686000Y-77724000D03*
X190500000Y-83312000D03*
G04 #@! TO.N,/SIG_SDA*
X128143000Y-82550000D03*
X148336000Y-80645000D03*
G04 #@! TO.N,/SIG_DS*
X152146000Y-76454000D03*
X166370000Y-79502000D03*
G04 #@! TO.N,/SIG_STCP*
X169799000Y-82169000D03*
X153416000Y-77089000D03*
X190500000Y-82169000D03*
G04 #@! TO.N,/SIG_SCL*
X128143000Y-83820000D03*
X148971000Y-81153000D03*
G04 #@! TO.N,/SIG_DATA_OUT*
X169926000Y-85217000D03*
X191516000Y-83947000D03*
G04 #@! TD*
D16*
G04 #@! TO.N,+3.3V*
X172466000Y-68580000D02*
X176149000Y-68580000D01*
X159131000Y-68580000D02*
X170053000Y-68580000D01*
X186690000Y-88519000D02*
X166497000Y-88519000D01*
X156210000Y-88519000D02*
X130175000Y-88519000D01*
X183769000Y-68580000D02*
X183896000Y-68580000D01*
X171196000Y-68580000D02*
X172466000Y-68580000D01*
X161290000Y-88519000D02*
X156210000Y-88519000D01*
X176149000Y-68580000D02*
X179959000Y-68580000D01*
X185674000Y-66802000D02*
X194310000Y-66802000D01*
X146177000Y-68580000D02*
X159131000Y-68580000D01*
X170053000Y-68580000D02*
X176149000Y-68580000D01*
X144526000Y-68580000D02*
X137223500Y-75882500D01*
X167767000Y-74295000D02*
X170053000Y-72009000D01*
X183896000Y-68580000D02*
X185674000Y-66802000D01*
X146177000Y-68580000D02*
X144526000Y-68580000D01*
X166497000Y-88519000D02*
X161290000Y-88519000D01*
X170053000Y-72009000D02*
X170053000Y-68580000D01*
X179959000Y-68580000D02*
X183769000Y-68580000D01*
X130175000Y-88519000D02*
X129794000Y-88138000D01*
D17*
G04 #@! TO.N,/symb_C*
X146177000Y-91440000D02*
X172339000Y-91440000D01*
X199707500Y-91249500D02*
X199517000Y-91440000D01*
X122738000Y-91440000D02*
X120960000Y-93218000D01*
X146177000Y-91440000D02*
X122738000Y-91440000D01*
X199517000Y-91440000D02*
X172339000Y-91440000D01*
G04 #@! TO.N,/symb_A*
X120960000Y-62818000D02*
X122912000Y-64770000D01*
X122912000Y-64770000D02*
X146177000Y-64770000D01*
X201131756Y-64770000D02*
X172339000Y-64770000D01*
X146177000Y-64770000D02*
X172339000Y-64770000D01*
X201149878Y-64788122D02*
X201131756Y-64770000D01*
G04 #@! TO.N,/symb_B*
X124817000Y-64135000D02*
X148717000Y-64135000D01*
X148646000Y-64064000D02*
X148717000Y-64135000D01*
X174854000Y-62818000D02*
X174854000Y-64110000D01*
X174854000Y-64110000D02*
X174879000Y-64135000D01*
X200914000Y-64135000D02*
X201115500Y-63933500D01*
X148717000Y-64135000D02*
X174879000Y-64135000D01*
X174879000Y-64135000D02*
X200914000Y-64135000D01*
X123500000Y-62818000D02*
X124817000Y-64135000D01*
X148646000Y-62818000D02*
X148646000Y-64064000D01*
G04 #@! TO.N,/symb_D*
X118293000Y-90805000D02*
X141097000Y-90805000D01*
X199199500Y-90805000D02*
X167259000Y-90805000D01*
X115880000Y-93218000D02*
X118293000Y-90805000D01*
X199548750Y-90455750D02*
X199199500Y-90805000D01*
X141097000Y-90805000D02*
X167259000Y-90805000D01*
G04 #@! TO.N,/symb_E*
X116388000Y-90170000D02*
X138557000Y-90170000D01*
X198623000Y-90048000D02*
X198501000Y-90170000D01*
X138557000Y-90170000D02*
X164719000Y-90170000D01*
X198501000Y-90170000D02*
X164719000Y-90170000D01*
X113340000Y-93218000D02*
X116388000Y-90170000D01*
G04 #@! TO.N,/symb_G*
X138557000Y-66167000D02*
X164719000Y-66167000D01*
X116689000Y-66167000D02*
X138557000Y-66167000D01*
X201295000Y-66929000D02*
X200533000Y-66167000D01*
X113340000Y-62818000D02*
X116689000Y-66167000D01*
X200533000Y-66167000D02*
X164719000Y-66167000D01*
G04 #@! TO.N,/symb_DP*
X199898000Y-92075000D02*
X174879000Y-92075000D01*
X148717000Y-92075000D02*
X124643000Y-92075000D01*
X200787000Y-91186000D02*
X199898000Y-92075000D01*
X174854000Y-92100000D02*
X174879000Y-92075000D01*
X124643000Y-92075000D02*
X123500000Y-93218000D01*
X148646000Y-93218000D02*
X148646000Y-92146000D01*
X148646000Y-92146000D02*
X148717000Y-92075000D01*
X174879000Y-92075000D02*
X148717000Y-92075000D01*
X174854000Y-93218000D02*
X174854000Y-92100000D01*
G04 #@! TO.N,/symb_F*
X201168000Y-65786000D02*
X200787000Y-65405000D01*
X115880000Y-62818000D02*
X118467000Y-65405000D01*
X118467000Y-65405000D02*
X140970000Y-65405000D01*
X200787000Y-65405000D02*
X167259000Y-65405000D01*
X140970000Y-65405000D02*
X167259000Y-65405000D01*
G04 #@! TO.N,Net-(DS3-COMMON_ANODE_1)*
X176784000Y-66802000D02*
X143566000Y-66802000D01*
G04 #@! TO.N,Net-(DS4-COMMON_ANODE_1)*
X136779000Y-66802000D02*
X116078000Y-66802000D01*
X137541000Y-67564000D02*
X136779000Y-66802000D01*
X116078000Y-66802000D02*
X114935000Y-65659000D01*
X173228000Y-67564000D02*
X137541000Y-67564000D01*
D16*
G04 #@! TO.N,/INDICATOR_PWR*
X173355000Y-74676000D02*
X177038000Y-74676000D01*
X177038000Y-74676000D02*
X180975000Y-74676000D01*
X170180000Y-74676000D02*
X173355000Y-74676000D01*
X169735500Y-74231500D02*
X170180000Y-74676000D01*
X180975000Y-74676000D02*
X184658000Y-74676000D01*
D17*
G04 #@! TO.N,BRIGHTNESS*
X160782000Y-70866000D02*
X164465000Y-70866000D01*
X157353000Y-74295000D02*
X160782000Y-70866000D01*
G04 #@! TO.N,BUTTON*
X188087000Y-75819000D02*
X192278000Y-71628000D01*
X151511000Y-75819000D02*
X188087000Y-75819000D01*
G04 #@! TO.N,/SIG_SHCP*
X169799000Y-83312000D02*
X190500000Y-83312000D01*
X160020000Y-77724000D02*
X165608000Y-83312000D01*
X154686000Y-77724000D02*
X160020000Y-77724000D01*
X165608000Y-83312000D02*
X169799000Y-83312000D01*
G04 #@! TO.N,/SIG_SDA*
X128143000Y-82550000D02*
X128397000Y-82804000D01*
X146177000Y-82804000D02*
X148336000Y-80645000D01*
X128397000Y-82804000D02*
X146177000Y-82804000D01*
G04 #@! TO.N,/SIG_DS*
X152146000Y-76454000D02*
X160528000Y-76454000D01*
X160528000Y-76454000D02*
X163576000Y-79502000D01*
X163576000Y-79502000D02*
X166370000Y-79502000D01*
G04 #@! TO.N,/SIG_STCP*
X170180000Y-82550000D02*
X190119000Y-82550000D01*
X165354000Y-82169000D02*
X169799000Y-82169000D01*
X169799000Y-82169000D02*
X170180000Y-82550000D01*
X153416000Y-77089000D02*
X160274000Y-77089000D01*
X160274000Y-77089000D02*
X165354000Y-82169000D01*
X190119000Y-82550000D02*
X190500000Y-82169000D01*
G04 #@! TO.N,/SIG_SCL*
X128458997Y-83504003D02*
X146492997Y-83504003D01*
X128143000Y-83820000D02*
X128458997Y-83504003D01*
X146492997Y-83504003D02*
X148844000Y-81153000D01*
X148844000Y-81153000D02*
X148971000Y-81153000D01*
G04 #@! TO.N,/SIG_DATA_OUT*
X191389000Y-84074000D02*
X191516000Y-83947000D01*
X169926000Y-85217000D02*
X171069000Y-84074000D01*
X171069000Y-84074000D02*
X191389000Y-84074000D01*
G04 #@! TD*
G04 #@! TA.AperFunction,Conductor*
G04 #@! TO.N,GND*
G36*
X112890503Y-61520185D02*
G01*
X112936258Y-61572989D01*
X112946202Y-61642147D01*
X112917177Y-61705703D01*
X112868258Y-61740126D01*
X112860008Y-61743322D01*
X112813792Y-61761226D01*
X112813786Y-61761229D01*
X112628576Y-61875906D01*
X112628566Y-61875913D01*
X112467574Y-62022676D01*
X112336288Y-62196527D01*
X112239184Y-62391537D01*
X112239183Y-62391541D01*
X112189267Y-62566980D01*
X112179564Y-62601081D01*
X112159464Y-62817999D01*
X112159464Y-62818000D01*
X112179564Y-63034918D01*
X112179564Y-63034920D01*
X112179565Y-63034923D01*
X112215108Y-63159844D01*
X112239184Y-63244462D01*
X112294339Y-63355228D01*
X112336288Y-63439472D01*
X112467573Y-63613322D01*
X112628568Y-63760088D01*
X112628575Y-63760092D01*
X112628576Y-63760093D01*
X112813786Y-63874770D01*
X112813792Y-63874773D01*
X112836664Y-63883633D01*
X113016931Y-63953470D01*
X113231074Y-63993500D01*
X113231076Y-63993500D01*
X113448923Y-63993500D01*
X113448926Y-63993500D01*
X113567790Y-63971280D01*
X113637301Y-63978311D01*
X113678253Y-64005488D01*
X114502623Y-64829858D01*
X114536108Y-64891181D01*
X114531124Y-64960873D01*
X114489252Y-65016806D01*
X114480915Y-65022532D01*
X114445288Y-65044917D01*
X114320919Y-65169286D01*
X114227344Y-65318209D01*
X114169252Y-65484228D01*
X114149561Y-65658997D01*
X114149561Y-65659002D01*
X114169252Y-65833771D01*
X114221480Y-65983030D01*
X114225041Y-66052809D01*
X114190312Y-66113436D01*
X114128319Y-66145663D01*
X114085956Y-66146599D01*
X113919440Y-66121500D01*
X113919435Y-66121500D01*
X113664565Y-66121500D01*
X113664559Y-66121500D01*
X113507609Y-66145157D01*
X113412542Y-66159487D01*
X113412539Y-66159488D01*
X113412533Y-66159489D01*
X113168992Y-66234612D01*
X112939373Y-66345190D01*
X112939372Y-66345191D01*
X112728782Y-66488768D01*
X112541952Y-66662121D01*
X112541950Y-66662123D01*
X112383041Y-66861388D01*
X112255608Y-67082109D01*
X112162493Y-67319361D01*
X112162492Y-67319363D01*
X112105777Y-67567845D01*
X112086732Y-67821995D01*
X112086732Y-67822004D01*
X112105777Y-68076154D01*
X112158271Y-68306147D01*
X112162492Y-68324637D01*
X112255607Y-68561888D01*
X112383041Y-68782612D01*
X112541950Y-68981877D01*
X112728783Y-69155232D01*
X112939366Y-69298805D01*
X112939371Y-69298807D01*
X112939372Y-69298808D01*
X112939373Y-69298809D01*
X112976772Y-69316819D01*
X113168992Y-69409387D01*
X113168993Y-69409387D01*
X113168996Y-69409389D01*
X113412542Y-69484513D01*
X113664565Y-69522500D01*
X113919435Y-69522500D01*
X114171458Y-69484513D01*
X114415004Y-69409389D01*
X114630136Y-69305787D01*
X114644626Y-69298809D01*
X114644626Y-69298808D01*
X114644634Y-69298805D01*
X114855217Y-69155232D01*
X115042050Y-68981877D01*
X115200959Y-68782612D01*
X115328393Y-68561888D01*
X115421508Y-68324637D01*
X115478222Y-68076157D01*
X115492959Y-67879500D01*
X115497268Y-67822004D01*
X115497268Y-67821995D01*
X115478222Y-67567844D01*
X115477345Y-67564003D01*
X115447175Y-67431816D01*
X115421280Y-67318362D01*
X115425553Y-67248623D01*
X115466852Y-67192265D01*
X115532064Y-67167182D01*
X115600485Y-67181336D01*
X115629852Y-67203088D01*
X115709284Y-67282520D01*
X115771365Y-67318362D01*
X115773096Y-67319361D01*
X115773098Y-67319363D01*
X115823037Y-67348195D01*
X115846215Y-67361577D01*
X115998943Y-67402500D01*
X116157057Y-67402500D01*
X136478903Y-67402500D01*
X136545942Y-67422185D01*
X136566583Y-67438818D01*
X137172284Y-68044520D01*
X137172286Y-68044521D01*
X137172290Y-68044524D01*
X137227076Y-68076154D01*
X137309216Y-68123577D01*
X137461943Y-68164501D01*
X137461945Y-68164501D01*
X137627654Y-68164501D01*
X137627670Y-68164500D01*
X143651481Y-68164500D01*
X143718520Y-68184185D01*
X143764275Y-68236989D01*
X143774219Y-68306147D01*
X143745194Y-68369703D01*
X143739162Y-68376181D01*
X137024209Y-75091132D01*
X136977484Y-75120492D01*
X136873976Y-75156711D01*
X136873975Y-75156712D01*
X136721237Y-75252684D01*
X136593684Y-75380237D01*
X136497711Y-75532976D01*
X136438131Y-75703245D01*
X136438130Y-75703250D01*
X136417935Y-75882496D01*
X136417935Y-75882503D01*
X136438130Y-76061749D01*
X136438131Y-76061754D01*
X136497711Y-76232023D01*
X136589797Y-76378576D01*
X136593684Y-76384762D01*
X136721238Y-76512316D01*
X136744060Y-76526656D01*
X136836509Y-76584746D01*
X136873978Y-76608289D01*
X137044245Y-76667868D01*
X137044250Y-76667869D01*
X137223496Y-76688065D01*
X137223500Y-76688065D01*
X137223504Y-76688065D01*
X137402749Y-76667869D01*
X137402752Y-76667868D01*
X137402755Y-76667868D01*
X137573022Y-76608289D01*
X137725762Y-76512316D01*
X137853316Y-76384762D01*
X137949289Y-76232022D01*
X137985507Y-76128513D01*
X138014865Y-76081790D01*
X144779838Y-69316819D01*
X144841161Y-69283334D01*
X144867519Y-69280500D01*
X145751506Y-69280500D01*
X145817477Y-69299506D01*
X145827474Y-69305787D01*
X145827475Y-69305787D01*
X145827478Y-69305789D01*
X145962368Y-69352989D01*
X145997745Y-69365368D01*
X145997750Y-69365369D01*
X146176996Y-69385565D01*
X146177000Y-69385565D01*
X146177004Y-69385565D01*
X146356249Y-69365369D01*
X146356252Y-69365368D01*
X146356255Y-69365368D01*
X146526522Y-69305789D01*
X146527488Y-69305181D01*
X146536523Y-69299506D01*
X146602494Y-69280500D01*
X158705506Y-69280500D01*
X158771477Y-69299506D01*
X158781474Y-69305787D01*
X158781475Y-69305787D01*
X158781478Y-69305789D01*
X158916368Y-69352989D01*
X158951745Y-69365368D01*
X158951750Y-69365369D01*
X159130996Y-69385565D01*
X159131000Y-69385565D01*
X159131004Y-69385565D01*
X159310249Y-69365369D01*
X159310252Y-69365368D01*
X159310255Y-69365368D01*
X159480522Y-69305789D01*
X159481488Y-69305181D01*
X159490523Y-69299506D01*
X159556494Y-69280500D01*
X169228500Y-69280500D01*
X169295539Y-69300185D01*
X169341294Y-69352989D01*
X169352500Y-69404500D01*
X169352500Y-71667480D01*
X169332815Y-71734519D01*
X169316181Y-71755161D01*
X167567709Y-73503632D01*
X167520984Y-73532992D01*
X167417476Y-73569211D01*
X167417475Y-73569212D01*
X167264737Y-73665184D01*
X167137184Y-73792737D01*
X167041211Y-73945476D01*
X166981631Y-74115745D01*
X166981630Y-74115750D01*
X166961435Y-74294996D01*
X166961435Y-74295003D01*
X166981630Y-74474249D01*
X166981631Y-74474254D01*
X167041211Y-74644523D01*
X167060991Y-74676002D01*
X167137184Y-74797262D01*
X167264738Y-74924816D01*
X167287560Y-74939156D01*
X167367691Y-74989506D01*
X167413982Y-75041841D01*
X167424630Y-75110895D01*
X167396255Y-75174743D01*
X167337865Y-75213115D01*
X167301719Y-75218500D01*
X157780689Y-75218500D01*
X157713650Y-75198815D01*
X157667895Y-75146011D01*
X157657951Y-75076853D01*
X157686976Y-75013297D01*
X157714717Y-74989506D01*
X157760224Y-74960912D01*
X157842713Y-74909081D01*
X157967081Y-74784713D01*
X158060656Y-74635789D01*
X158118746Y-74469777D01*
X158125480Y-74410013D01*
X158152546Y-74345598D01*
X158161009Y-74336224D01*
X160994416Y-71502819D01*
X161055739Y-71469334D01*
X161082097Y-71466500D01*
X163917949Y-71466500D01*
X163983921Y-71485506D01*
X164096275Y-71556103D01*
X164124211Y-71573656D01*
X164290223Y-71631746D01*
X164290226Y-71631746D01*
X164290228Y-71631747D01*
X164464997Y-71651439D01*
X164465000Y-71651439D01*
X164465003Y-71651439D01*
X164639771Y-71631747D01*
X164639772Y-71631746D01*
X164639777Y-71631746D01*
X164805789Y-71573656D01*
X164954713Y-71480081D01*
X165079081Y-71355713D01*
X165172656Y-71206789D01*
X165230746Y-71040777D01*
X165233773Y-71013919D01*
X165250439Y-70866002D01*
X165250439Y-70865997D01*
X165230747Y-70691228D01*
X165230746Y-70691226D01*
X165230746Y-70691223D01*
X165172656Y-70525211D01*
X165079081Y-70376287D01*
X164954713Y-70251919D01*
X164946079Y-70246494D01*
X164805790Y-70158344D01*
X164639771Y-70100252D01*
X164465003Y-70080561D01*
X164464997Y-70080561D01*
X164290228Y-70100252D01*
X164124209Y-70158344D01*
X163983921Y-70246494D01*
X163917949Y-70265500D01*
X160861057Y-70265500D01*
X160702942Y-70265500D01*
X160550215Y-70306423D01*
X160550214Y-70306423D01*
X160550212Y-70306424D01*
X160550209Y-70306425D01*
X160515066Y-70326716D01*
X160515064Y-70326717D01*
X160413290Y-70385475D01*
X160413282Y-70385481D01*
X160301478Y-70497286D01*
X157311783Y-73486980D01*
X157250460Y-73520465D01*
X157237988Y-73522519D01*
X157178226Y-73529253D01*
X157178223Y-73529254D01*
X157012209Y-73587344D01*
X156863286Y-73680919D01*
X156738919Y-73805286D01*
X156645344Y-73954209D01*
X156587252Y-74120228D01*
X156567561Y-74294997D01*
X156567561Y-74295002D01*
X156587252Y-74469771D01*
X156645344Y-74635790D01*
X156670608Y-74675997D01*
X156738919Y-74784713D01*
X156863287Y-74909081D01*
X156945776Y-74960912D01*
X156991283Y-74989506D01*
X157037574Y-75041841D01*
X157048222Y-75110894D01*
X157019847Y-75174743D01*
X156961458Y-75213115D01*
X156925311Y-75218500D01*
X152058051Y-75218500D01*
X151992079Y-75199494D01*
X151990998Y-75198815D01*
X151923992Y-75156712D01*
X151851790Y-75111344D01*
X151685771Y-75053252D01*
X151511003Y-75033561D01*
X151510997Y-75033561D01*
X151336228Y-75053252D01*
X151170209Y-75111344D01*
X151021286Y-75204919D01*
X150896919Y-75329286D01*
X150803344Y-75478209D01*
X150745252Y-75644228D01*
X150725561Y-75818997D01*
X150725561Y-75819002D01*
X150745252Y-75993771D01*
X150803344Y-76159790D01*
X150891142Y-76299519D01*
X150896919Y-76308713D01*
X151021287Y-76433081D01*
X151170211Y-76526656D01*
X151312477Y-76576437D01*
X151369252Y-76617158D01*
X151388562Y-76652521D01*
X151393933Y-76667868D01*
X151438344Y-76794790D01*
X151531919Y-76943713D01*
X151656287Y-77068081D01*
X151805211Y-77161656D01*
X151971223Y-77219746D01*
X151971226Y-77219746D01*
X151971228Y-77219747D01*
X152145997Y-77239439D01*
X152146000Y-77239439D01*
X152146003Y-77239439D01*
X152320769Y-77219747D01*
X152320769Y-77219746D01*
X152320777Y-77219746D01*
X152486220Y-77161854D01*
X152555996Y-77158294D01*
X152616624Y-77193023D01*
X152648851Y-77255016D01*
X152650095Y-77263083D01*
X152650251Y-77263768D01*
X152708344Y-77429790D01*
X152801919Y-77578713D01*
X152926287Y-77703081D01*
X153075211Y-77796656D01*
X153241223Y-77854746D01*
X153241226Y-77854746D01*
X153241228Y-77854747D01*
X153415997Y-77874439D01*
X153416000Y-77874439D01*
X153416003Y-77874439D01*
X153590769Y-77854747D01*
X153590769Y-77854746D01*
X153590777Y-77854746D01*
X153756220Y-77796854D01*
X153825996Y-77793294D01*
X153886624Y-77828023D01*
X153918851Y-77890016D01*
X153920095Y-77898083D01*
X153920251Y-77898768D01*
X153978344Y-78064790D01*
X154071919Y-78213713D01*
X154196287Y-78338081D01*
X154345211Y-78431656D01*
X154511223Y-78489746D01*
X154511226Y-78489746D01*
X154511228Y-78489747D01*
X154685997Y-78509439D01*
X154686000Y-78509439D01*
X154686003Y-78509439D01*
X154860771Y-78489747D01*
X154860772Y-78489746D01*
X154860777Y-78489746D01*
X155026789Y-78431656D01*
X155167079Y-78343505D01*
X155233051Y-78324500D01*
X159719903Y-78324500D01*
X159786942Y-78344185D01*
X159807584Y-78360819D01*
X165123139Y-83676374D01*
X165123149Y-83676385D01*
X165127479Y-83680715D01*
X165127480Y-83680716D01*
X165239284Y-83792520D01*
X165239286Y-83792521D01*
X165239290Y-83792524D01*
X165360501Y-83862504D01*
X165376216Y-83871577D01*
X165478773Y-83899057D01*
X165528942Y-83912500D01*
X165528943Y-83912500D01*
X169251949Y-83912500D01*
X169317920Y-83931505D01*
X169342583Y-83947002D01*
X169418606Y-83994771D01*
X169458211Y-84019656D01*
X169624223Y-84077746D01*
X169624226Y-84077746D01*
X169624228Y-84077747D01*
X169798997Y-84097439D01*
X169799000Y-84097439D01*
X169799001Y-84097439D01*
X169815239Y-84095609D01*
X169894634Y-84086663D01*
X169963455Y-84098717D01*
X170014835Y-84146066D01*
X170032460Y-84213676D01*
X170010734Y-84280082D01*
X169996199Y-84297564D01*
X169884783Y-84408980D01*
X169823460Y-84442465D01*
X169810988Y-84444519D01*
X169751226Y-84451253D01*
X169751223Y-84451254D01*
X169585209Y-84509344D01*
X169436286Y-84602919D01*
X169311919Y-84727286D01*
X169218344Y-84876209D01*
X169160252Y-85042228D01*
X169140561Y-85216997D01*
X169140561Y-85217002D01*
X169160252Y-85391771D01*
X169218344Y-85557790D01*
X169243990Y-85598605D01*
X169311919Y-85706713D01*
X169436287Y-85831081D01*
X169585211Y-85924656D01*
X169751223Y-85982746D01*
X169751226Y-85982746D01*
X169751228Y-85982747D01*
X169925997Y-86002439D01*
X169926000Y-86002439D01*
X169926003Y-86002439D01*
X170100771Y-85982747D01*
X170100772Y-85982746D01*
X170100777Y-85982746D01*
X170266789Y-85924656D01*
X170415713Y-85831081D01*
X170540081Y-85706713D01*
X170633656Y-85557789D01*
X170691746Y-85391777D01*
X170698480Y-85332013D01*
X170725546Y-85267598D01*
X170734009Y-85258224D01*
X171281416Y-84710819D01*
X171342739Y-84677334D01*
X171369097Y-84674500D01*
X191210852Y-84674500D01*
X191251806Y-84681458D01*
X191277423Y-84690421D01*
X191341223Y-84712746D01*
X191341226Y-84712746D01*
X191341228Y-84712747D01*
X191515997Y-84732439D01*
X191516000Y-84732439D01*
X191516003Y-84732439D01*
X191690771Y-84712747D01*
X191690772Y-84712746D01*
X191690777Y-84712746D01*
X191856789Y-84654656D01*
X192005713Y-84561081D01*
X192130081Y-84436713D01*
X192223656Y-84287789D01*
X192281746Y-84121777D01*
X192283693Y-84104504D01*
X192301439Y-83947002D01*
X192301439Y-83946997D01*
X192281747Y-83772228D01*
X192281746Y-83772226D01*
X192281746Y-83772223D01*
X192223656Y-83606211D01*
X192130081Y-83457287D01*
X192005713Y-83332919D01*
X191909845Y-83272681D01*
X191856790Y-83239344D01*
X191690771Y-83181252D01*
X191516003Y-83161561D01*
X191515997Y-83161561D01*
X191381697Y-83176693D01*
X191312875Y-83164639D01*
X191261495Y-83117290D01*
X191250771Y-83094427D01*
X191207655Y-82971209D01*
X191114082Y-82822289D01*
X191114081Y-82822287D01*
X191114078Y-82822284D01*
X191110516Y-82817818D01*
X191084104Y-82753133D01*
X191096857Y-82684437D01*
X191110516Y-82663182D01*
X191114074Y-82658719D01*
X191114081Y-82658713D01*
X191207656Y-82509789D01*
X191265746Y-82343777D01*
X191280909Y-82209209D01*
X191285439Y-82169002D01*
X191285439Y-82168997D01*
X191265747Y-81994228D01*
X191265746Y-81994226D01*
X191265746Y-81994223D01*
X191207656Y-81828211D01*
X191114081Y-81679287D01*
X190989713Y-81554919D01*
X190953526Y-81532181D01*
X190840790Y-81461344D01*
X190674771Y-81403252D01*
X190500003Y-81383561D01*
X190499997Y-81383561D01*
X190325228Y-81403252D01*
X190159209Y-81461344D01*
X190010286Y-81554919D01*
X189885919Y-81679286D01*
X189792343Y-81828211D01*
X189778962Y-81866454D01*
X189738240Y-81923230D01*
X189673288Y-81948978D01*
X189661920Y-81949500D01*
X170637080Y-81949500D01*
X170570041Y-81929815D01*
X170524286Y-81877011D01*
X170520038Y-81866454D01*
X170506656Y-81828211D01*
X170479035Y-81784252D01*
X170413081Y-81679287D01*
X170288713Y-81554919D01*
X170252526Y-81532181D01*
X170139790Y-81461344D01*
X169973771Y-81403252D01*
X169799003Y-81383561D01*
X169798997Y-81383561D01*
X169624228Y-81403252D01*
X169458209Y-81461344D01*
X169345474Y-81532181D01*
X169319002Y-81548815D01*
X169317921Y-81549494D01*
X169251949Y-81568500D01*
X165654097Y-81568500D01*
X165587058Y-81548815D01*
X165566416Y-81532181D01*
X164348416Y-80314181D01*
X164314931Y-80252858D01*
X164319915Y-80183166D01*
X164361787Y-80127233D01*
X164427251Y-80102816D01*
X164436097Y-80102500D01*
X165822949Y-80102500D01*
X165888921Y-80121506D01*
X165942681Y-80155286D01*
X166029211Y-80209656D01*
X166195223Y-80267746D01*
X166195226Y-80267746D01*
X166195228Y-80267747D01*
X166369997Y-80287439D01*
X166370000Y-80287439D01*
X166370003Y-80287439D01*
X166544771Y-80267747D01*
X166544772Y-80267746D01*
X166544777Y-80267746D01*
X166710789Y-80209656D01*
X166859713Y-80116081D01*
X166984081Y-79991713D01*
X167077656Y-79842789D01*
X167135746Y-79676777D01*
X167150573Y-79545191D01*
X167155439Y-79502002D01*
X167155439Y-79501997D01*
X167135747Y-79327228D01*
X167135746Y-79327226D01*
X167135746Y-79327223D01*
X167077656Y-79161211D01*
X166984081Y-79012287D01*
X166859713Y-78887919D01*
X166823526Y-78865181D01*
X166710790Y-78794344D01*
X166544771Y-78736252D01*
X166370003Y-78716561D01*
X166369997Y-78716561D01*
X166195228Y-78736252D01*
X166029209Y-78794344D01*
X165916474Y-78865181D01*
X165890002Y-78881815D01*
X165888921Y-78882494D01*
X165822949Y-78901500D01*
X163876097Y-78901500D01*
X163809058Y-78881815D01*
X163788416Y-78865181D01*
X161554416Y-76631181D01*
X161520931Y-76569858D01*
X161525915Y-76500166D01*
X161567787Y-76444233D01*
X161633251Y-76419816D01*
X161642097Y-76419500D01*
X188000331Y-76419500D01*
X188000347Y-76419501D01*
X188007943Y-76419501D01*
X188166054Y-76419501D01*
X188166057Y-76419501D01*
X188318785Y-76378577D01*
X188368904Y-76349639D01*
X188455716Y-76299520D01*
X188567520Y-76187716D01*
X188567520Y-76187714D01*
X188577728Y-76177507D01*
X188577730Y-76177504D01*
X192319216Y-72436017D01*
X192380537Y-72402534D01*
X192393013Y-72400480D01*
X192452770Y-72393747D01*
X192452770Y-72393746D01*
X192452777Y-72393746D01*
X192618789Y-72335656D01*
X192767713Y-72242081D01*
X192892081Y-72117713D01*
X192985656Y-71968789D01*
X193043746Y-71802777D01*
X193053204Y-71718843D01*
X193063439Y-71628002D01*
X193063439Y-71627997D01*
X193043747Y-71453228D01*
X193043746Y-71453226D01*
X193043746Y-71453223D01*
X192985656Y-71287211D01*
X192892081Y-71138287D01*
X192767713Y-71013919D01*
X192618790Y-70920344D01*
X192452771Y-70862252D01*
X192278003Y-70842561D01*
X192277997Y-70842561D01*
X192103228Y-70862252D01*
X191937209Y-70920344D01*
X191788286Y-71013919D01*
X191663919Y-71138286D01*
X191570344Y-71287209D01*
X191512254Y-71453223D01*
X191512253Y-71453226D01*
X191505519Y-71512988D01*
X191478451Y-71577402D01*
X191469980Y-71586783D01*
X187874584Y-75182181D01*
X187813261Y-75215666D01*
X187786903Y-75218500D01*
X185463274Y-75218500D01*
X185396235Y-75198815D01*
X185350480Y-75146011D01*
X185340536Y-75076853D01*
X185358281Y-75028527D01*
X185361108Y-75024026D01*
X185365656Y-75016789D01*
X185423746Y-74850777D01*
X185424332Y-74845581D01*
X185443439Y-74676002D01*
X185443439Y-74675997D01*
X185423747Y-74501228D01*
X185423746Y-74501226D01*
X185423746Y-74501223D01*
X185365656Y-74335211D01*
X185350500Y-74311091D01*
X185272080Y-74186286D01*
X185147713Y-74061919D01*
X184998790Y-73968344D01*
X184832771Y-73910252D01*
X184658003Y-73890561D01*
X184657997Y-73890561D01*
X184483228Y-73910252D01*
X184316645Y-73968542D01*
X184275691Y-73975500D01*
X181357309Y-73975500D01*
X181316355Y-73968542D01*
X181149771Y-73910252D01*
X180975003Y-73890561D01*
X180974997Y-73890561D01*
X180800228Y-73910252D01*
X180633645Y-73968542D01*
X180592691Y-73975500D01*
X177420309Y-73975500D01*
X177379355Y-73968542D01*
X177212771Y-73910252D01*
X177038003Y-73890561D01*
X177037997Y-73890561D01*
X176863228Y-73910252D01*
X176696645Y-73968542D01*
X176655691Y-73975500D01*
X173737309Y-73975500D01*
X173696355Y-73968542D01*
X173529771Y-73910252D01*
X173355003Y-73890561D01*
X173354997Y-73890561D01*
X173180228Y-73910252D01*
X173013645Y-73968542D01*
X172972691Y-73975500D01*
X170560808Y-73975500D01*
X170493769Y-73955815D01*
X170448014Y-73903011D01*
X170443765Y-73892452D01*
X170443155Y-73890709D01*
X170389480Y-73805286D01*
X170349581Y-73741787D01*
X170225213Y-73617419D01*
X170148492Y-73569212D01*
X170076290Y-73523844D01*
X169910271Y-73465752D01*
X169875515Y-73461836D01*
X169811102Y-73434768D01*
X169771548Y-73377172D01*
X169769411Y-73307335D01*
X169801718Y-73250937D01*
X170597114Y-72455543D01*
X170673775Y-72340811D01*
X170726580Y-72213329D01*
X170745599Y-72117713D01*
X170753500Y-72077993D01*
X170753500Y-69404500D01*
X170773185Y-69337461D01*
X170825989Y-69291706D01*
X170877500Y-69280500D01*
X171127007Y-69280500D01*
X172083691Y-69280500D01*
X172124645Y-69287458D01*
X172125211Y-69287656D01*
X172291223Y-69345746D01*
X172291226Y-69345746D01*
X172291228Y-69345747D01*
X172465997Y-69365439D01*
X172466000Y-69365439D01*
X172466003Y-69365439D01*
X172640771Y-69345747D01*
X172640772Y-69345746D01*
X172640777Y-69345746D01*
X172806789Y-69287656D01*
X172806788Y-69287656D01*
X172807355Y-69287458D01*
X172848309Y-69280500D01*
X175766691Y-69280500D01*
X175807645Y-69287458D01*
X175808211Y-69287656D01*
X175974223Y-69345746D01*
X175974226Y-69345746D01*
X175974228Y-69345747D01*
X176148997Y-69365439D01*
X176149000Y-69365439D01*
X176149003Y-69365439D01*
X176323771Y-69345747D01*
X176323772Y-69345746D01*
X176323777Y-69345746D01*
X176489789Y-69287656D01*
X176489788Y-69287656D01*
X176490355Y-69287458D01*
X176531309Y-69280500D01*
X179576691Y-69280500D01*
X179617645Y-69287458D01*
X179618211Y-69287656D01*
X179784223Y-69345746D01*
X179784226Y-69345746D01*
X179784228Y-69345747D01*
X179958997Y-69365439D01*
X179959000Y-69365439D01*
X179959003Y-69365439D01*
X180133771Y-69345747D01*
X180133772Y-69345746D01*
X180133777Y-69345746D01*
X180299789Y-69287656D01*
X180299788Y-69287656D01*
X180300355Y-69287458D01*
X180341309Y-69280500D01*
X183343506Y-69280500D01*
X183409477Y-69299506D01*
X183419474Y-69305787D01*
X183419475Y-69305787D01*
X183419478Y-69305789D01*
X183554368Y-69352989D01*
X183589745Y-69365368D01*
X183589750Y-69365369D01*
X183768996Y-69385565D01*
X183769000Y-69385565D01*
X183769004Y-69385565D01*
X183948249Y-69365369D01*
X183948252Y-69365368D01*
X183948255Y-69365368D01*
X184118522Y-69305789D01*
X184271262Y-69209816D01*
X184398816Y-69082262D01*
X184415763Y-69055288D01*
X184433073Y-69033582D01*
X185927838Y-67538819D01*
X185989161Y-67505334D01*
X186015519Y-67502500D01*
X193884506Y-67502500D01*
X193950477Y-67521506D01*
X193960474Y-67527787D01*
X193960475Y-67527787D01*
X193960478Y-67527789D01*
X194130745Y-67587368D01*
X194130750Y-67587369D01*
X194309996Y-67607565D01*
X194310000Y-67607565D01*
X194310004Y-67607565D01*
X194489249Y-67587369D01*
X194489252Y-67587368D01*
X194489255Y-67587368D01*
X194659522Y-67527789D01*
X194812262Y-67431816D01*
X194939816Y-67304262D01*
X195035789Y-67151522D01*
X195095368Y-66981255D01*
X195095873Y-66976777D01*
X195107046Y-66877616D01*
X195134113Y-66813202D01*
X195191708Y-66773647D01*
X195230266Y-66767500D01*
X200232903Y-66767500D01*
X200299942Y-66787185D01*
X200320584Y-66803819D01*
X200486980Y-66970215D01*
X200520465Y-67031538D01*
X200522519Y-67044012D01*
X200529252Y-67103771D01*
X200587344Y-67269790D01*
X200617864Y-67318362D01*
X200680919Y-67418713D01*
X200805287Y-67543081D01*
X200954211Y-67636656D01*
X201120223Y-67694746D01*
X201120226Y-67694746D01*
X201120228Y-67694747D01*
X201294997Y-67714439D01*
X201295000Y-67714439D01*
X201295003Y-67714439D01*
X201469771Y-67694747D01*
X201469772Y-67694746D01*
X201469777Y-67694746D01*
X201635789Y-67636656D01*
X201784713Y-67543081D01*
X201909081Y-67418713D01*
X202002656Y-67269789D01*
X202060746Y-67103777D01*
X202063188Y-67082109D01*
X202080439Y-66929002D01*
X202080439Y-66928997D01*
X202060747Y-66754228D01*
X202060746Y-66754226D01*
X202060746Y-66754223D01*
X202002656Y-66588211D01*
X201909081Y-66439287D01*
X201837891Y-66368097D01*
X201804406Y-66306774D01*
X201809390Y-66237082D01*
X201820579Y-66214443D01*
X201855109Y-66159489D01*
X201875656Y-66126789D01*
X201933746Y-65960777D01*
X201948057Y-65833771D01*
X201953439Y-65786002D01*
X201953439Y-65785997D01*
X201933747Y-65611228D01*
X201933746Y-65611226D01*
X201933746Y-65611223D01*
X201875656Y-65445211D01*
X201808674Y-65338610D01*
X201789675Y-65271376D01*
X201808675Y-65206669D01*
X201857534Y-65128911D01*
X201915624Y-64962899D01*
X201915853Y-64960873D01*
X201935317Y-64788124D01*
X201935317Y-64788119D01*
X201915625Y-64613350D01*
X201915624Y-64613348D01*
X201915624Y-64613345D01*
X201857534Y-64447333D01*
X201857533Y-64447331D01*
X201857533Y-64447330D01*
X201827357Y-64399307D01*
X201808356Y-64332071D01*
X201820633Y-64279527D01*
X201823152Y-64274295D01*
X201823151Y-64274295D01*
X201823156Y-64274289D01*
X201881246Y-64108277D01*
X201892828Y-64005488D01*
X201900939Y-63933502D01*
X201900939Y-63933497D01*
X201881247Y-63758728D01*
X201881246Y-63758726D01*
X201881246Y-63758723D01*
X201823156Y-63592711D01*
X201729581Y-63443787D01*
X201605213Y-63319419D01*
X201456290Y-63225844D01*
X201290271Y-63167752D01*
X201270397Y-63165513D01*
X201205983Y-63138445D01*
X201166430Y-63080849D01*
X201160812Y-63030851D01*
X201164623Y-62989730D01*
X201180536Y-62818000D01*
X201160435Y-62601077D01*
X201100817Y-62391541D01*
X201003712Y-62196528D01*
X200872427Y-62022678D01*
X200847550Y-62000000D01*
X200711433Y-61875913D01*
X200711423Y-61875906D01*
X200526213Y-61761229D01*
X200526207Y-61761226D01*
X200483015Y-61744494D01*
X200471741Y-61740126D01*
X200416341Y-61697554D01*
X200392750Y-61631787D01*
X200408461Y-61563707D01*
X200458485Y-61514928D01*
X200516536Y-61500500D01*
X205434108Y-61500500D01*
X205493038Y-61500500D01*
X205506922Y-61501280D01*
X205597266Y-61511459D01*
X205624331Y-61517636D01*
X205703540Y-61545352D01*
X205728553Y-61557398D01*
X205799606Y-61602043D01*
X205821313Y-61619355D01*
X205880644Y-61678686D01*
X205897957Y-61700395D01*
X205942600Y-61771444D01*
X205954648Y-61796462D01*
X205982362Y-61875666D01*
X205988540Y-61902735D01*
X205998720Y-61993076D01*
X205999500Y-62006961D01*
X205999500Y-93993038D01*
X205998720Y-94006923D01*
X205988540Y-94097264D01*
X205982362Y-94124333D01*
X205954648Y-94203537D01*
X205942600Y-94228555D01*
X205897957Y-94299604D01*
X205880644Y-94321313D01*
X205821313Y-94380644D01*
X205799604Y-94397957D01*
X205728555Y-94442600D01*
X205703537Y-94454648D01*
X205624333Y-94482362D01*
X205597264Y-94488540D01*
X205525151Y-94496666D01*
X205506921Y-94498720D01*
X205493038Y-94499500D01*
X200599076Y-94499500D01*
X200532037Y-94479815D01*
X200486282Y-94427011D01*
X200476338Y-94357853D01*
X200505363Y-94294297D01*
X200533799Y-94270073D01*
X200565335Y-94250547D01*
X200711432Y-94160088D01*
X200872427Y-94013322D01*
X201003712Y-93839472D01*
X201100817Y-93644459D01*
X201160435Y-93434923D01*
X201180536Y-93218000D01*
X201160435Y-93001077D01*
X201100817Y-92791541D01*
X201003712Y-92596528D01*
X200872427Y-92422678D01*
X200721030Y-92284662D01*
X200684750Y-92224952D01*
X200686510Y-92155105D01*
X200716886Y-92105347D01*
X200828216Y-91994017D01*
X200889537Y-91960534D01*
X200902013Y-91958480D01*
X200961770Y-91951747D01*
X200961770Y-91951746D01*
X200961777Y-91951746D01*
X201127789Y-91893656D01*
X201276713Y-91800081D01*
X201401081Y-91675713D01*
X201494656Y-91526789D01*
X201552746Y-91360777D01*
X201572439Y-91186000D01*
X201552746Y-91011223D01*
X201494656Y-90845211D01*
X201401081Y-90696287D01*
X201276713Y-90571919D01*
X201251085Y-90555816D01*
X201127790Y-90478344D01*
X200961771Y-90420252D01*
X200787003Y-90400561D01*
X200786997Y-90400561D01*
X200612228Y-90420252D01*
X200487652Y-90463843D01*
X200417873Y-90467404D01*
X200357246Y-90432675D01*
X200325019Y-90370681D01*
X200323478Y-90360684D01*
X200314497Y-90280978D01*
X200314496Y-90280976D01*
X200314496Y-90280973D01*
X200256406Y-90114961D01*
X200162831Y-89966037D01*
X200038463Y-89841669D01*
X199974191Y-89801284D01*
X199889540Y-89748094D01*
X199723521Y-89690002D01*
X199548753Y-89670311D01*
X199548746Y-89670311D01*
X199400846Y-89686975D01*
X199332024Y-89674920D01*
X199281970Y-89629728D01*
X199237081Y-89558287D01*
X199112713Y-89433919D01*
X199090275Y-89419820D01*
X198963790Y-89340344D01*
X198797771Y-89282252D01*
X198623003Y-89262561D01*
X198622997Y-89262561D01*
X198448228Y-89282252D01*
X198282209Y-89340344D01*
X198133288Y-89433918D01*
X198034024Y-89533182D01*
X197972701Y-89566666D01*
X197946343Y-89569500D01*
X186724167Y-89569500D01*
X186692361Y-89560160D01*
X186677227Y-89567640D01*
X186655833Y-89569500D01*
X166531167Y-89569500D01*
X166499361Y-89560160D01*
X166484227Y-89567640D01*
X166462833Y-89569500D01*
X165266051Y-89569500D01*
X165200079Y-89550494D01*
X165059790Y-89462344D01*
X165054639Y-89460542D01*
X164997863Y-89419820D01*
X164972115Y-89354868D01*
X164985571Y-89286306D01*
X165033958Y-89235903D01*
X165095593Y-89219500D01*
X166071506Y-89219500D01*
X166137477Y-89238506D01*
X166147474Y-89244787D01*
X166147475Y-89244787D01*
X166147478Y-89244789D01*
X166254547Y-89282254D01*
X166317745Y-89304368D01*
X166317750Y-89304369D01*
X166476716Y-89322280D01*
X166492508Y-89328915D01*
X166496232Y-89326523D01*
X166517284Y-89322280D01*
X166676249Y-89304369D01*
X166676252Y-89304368D01*
X166676255Y-89304368D01*
X166846522Y-89244789D01*
X166847488Y-89244181D01*
X166856523Y-89238506D01*
X166922494Y-89219500D01*
X186264506Y-89219500D01*
X186330477Y-89238506D01*
X186340474Y-89244787D01*
X186340475Y-89244787D01*
X186340478Y-89244789D01*
X186447547Y-89282254D01*
X186510745Y-89304368D01*
X186510750Y-89304369D01*
X186669716Y-89322280D01*
X186685508Y-89328915D01*
X186689232Y-89326523D01*
X186710284Y-89322280D01*
X186869249Y-89304369D01*
X186869252Y-89304368D01*
X186869255Y-89304368D01*
X187039522Y-89244789D01*
X187192262Y-89148816D01*
X187319816Y-89021262D01*
X187415789Y-88868522D01*
X187475368Y-88698255D01*
X187475369Y-88698249D01*
X187495565Y-88519003D01*
X187495565Y-88518996D01*
X187475369Y-88339750D01*
X187475368Y-88339745D01*
X187415788Y-88169476D01*
X187319815Y-88016737D01*
X187192262Y-87889184D01*
X187039523Y-87793211D01*
X186869254Y-87733631D01*
X186869249Y-87733630D01*
X186690004Y-87713435D01*
X186689996Y-87713435D01*
X186510750Y-87733630D01*
X186510745Y-87733631D01*
X186340474Y-87793212D01*
X186330477Y-87799494D01*
X186264506Y-87818500D01*
X166922494Y-87818500D01*
X166856523Y-87799494D01*
X166846525Y-87793212D01*
X166676254Y-87733631D01*
X166676249Y-87733630D01*
X166497004Y-87713435D01*
X166496996Y-87713435D01*
X166317750Y-87733630D01*
X166317745Y-87733631D01*
X166147474Y-87793212D01*
X166137477Y-87799494D01*
X166071506Y-87818500D01*
X161715494Y-87818500D01*
X161649523Y-87799494D01*
X161639525Y-87793212D01*
X161469254Y-87733631D01*
X161469249Y-87733630D01*
X161290004Y-87713435D01*
X161289996Y-87713435D01*
X161110750Y-87733630D01*
X161110745Y-87733631D01*
X160940474Y-87793212D01*
X160930477Y-87799494D01*
X160864506Y-87818500D01*
X156635494Y-87818500D01*
X156569523Y-87799494D01*
X156559525Y-87793212D01*
X156389254Y-87733631D01*
X156389249Y-87733630D01*
X156210004Y-87713435D01*
X156209996Y-87713435D01*
X156030750Y-87733630D01*
X156030745Y-87733631D01*
X155860474Y-87793212D01*
X155850477Y-87799494D01*
X155784506Y-87818500D01*
X130607186Y-87818500D01*
X130540147Y-87798815D01*
X130502192Y-87760472D01*
X130423815Y-87635737D01*
X130296262Y-87508184D01*
X130143523Y-87412211D01*
X129973254Y-87352631D01*
X129973249Y-87352630D01*
X129794004Y-87332435D01*
X129793996Y-87332435D01*
X129614750Y-87352630D01*
X129614745Y-87352631D01*
X129444476Y-87412211D01*
X129291737Y-87508184D01*
X129164184Y-87635737D01*
X129068211Y-87788476D01*
X129008631Y-87958745D01*
X129008630Y-87958750D01*
X128988435Y-88137996D01*
X128988435Y-88138003D01*
X129008630Y-88317249D01*
X129008631Y-88317254D01*
X129068211Y-88487523D01*
X129164184Y-88640262D01*
X129291738Y-88767816D01*
X129444478Y-88863789D01*
X129547986Y-88900008D01*
X129594711Y-88929368D01*
X129630886Y-88965542D01*
X129686606Y-89021262D01*
X129728459Y-89063115D01*
X129843182Y-89139771D01*
X129843189Y-89139775D01*
X129914951Y-89169499D01*
X129914953Y-89169501D01*
X129970666Y-89192578D01*
X129970671Y-89192580D01*
X129970680Y-89192581D01*
X129970681Y-89192582D01*
X129997545Y-89197925D01*
X129997551Y-89197926D01*
X129997591Y-89197934D01*
X130087937Y-89215905D01*
X130106006Y-89219500D01*
X130106007Y-89219500D01*
X138180407Y-89219500D01*
X138247446Y-89239185D01*
X138293201Y-89291989D01*
X138303145Y-89361147D01*
X138274120Y-89424703D01*
X138221361Y-89460542D01*
X138216209Y-89462344D01*
X138075921Y-89550494D01*
X138009949Y-89569500D01*
X116474669Y-89569500D01*
X116474653Y-89569499D01*
X116467057Y-89569499D01*
X116308943Y-89569499D01*
X116201587Y-89598265D01*
X116156210Y-89610424D01*
X116156209Y-89610425D01*
X116121066Y-89630716D01*
X116121064Y-89630717D01*
X116019290Y-89689475D01*
X116019282Y-89689481D01*
X115907478Y-89801286D01*
X113702582Y-92006181D01*
X113641259Y-92039666D01*
X113614901Y-92042500D01*
X112617129Y-92042500D01*
X112617123Y-92042501D01*
X112557516Y-92048908D01*
X112422671Y-92099202D01*
X112422664Y-92099206D01*
X112307455Y-92185452D01*
X112307452Y-92185455D01*
X112221206Y-92300664D01*
X112221202Y-92300671D01*
X112170908Y-92435517D01*
X112164501Y-92495116D01*
X112164500Y-92495135D01*
X112164500Y-93940870D01*
X112164501Y-93940876D01*
X112170908Y-94000483D01*
X112221202Y-94135328D01*
X112221206Y-94135335D01*
X112307452Y-94250544D01*
X112307455Y-94250547D01*
X112341768Y-94276234D01*
X112383639Y-94332168D01*
X112388623Y-94401859D01*
X112355137Y-94463182D01*
X112293814Y-94496666D01*
X112267457Y-94499500D01*
X107506962Y-94499500D01*
X107493078Y-94498720D01*
X107474849Y-94496666D01*
X107402735Y-94488540D01*
X107375666Y-94482362D01*
X107296462Y-94454648D01*
X107271444Y-94442600D01*
X107200395Y-94397957D01*
X107178686Y-94380644D01*
X107119355Y-94321313D01*
X107102042Y-94299604D01*
X107098707Y-94294297D01*
X107057398Y-94228553D01*
X107045351Y-94203537D01*
X107030147Y-94160086D01*
X107017636Y-94124331D01*
X107011459Y-94097263D01*
X107001280Y-94006922D01*
X107000500Y-93993038D01*
X107000500Y-84709000D01*
X117993659Y-84709000D01*
X118012975Y-84905129D01*
X118070188Y-85093733D01*
X118163086Y-85267532D01*
X118163090Y-85267539D01*
X118288116Y-85419883D01*
X118440460Y-85544909D01*
X118440464Y-85544911D01*
X118449314Y-85549642D01*
X118499158Y-85598605D01*
X118514618Y-85666743D01*
X118490786Y-85732422D01*
X118449314Y-85768358D01*
X118440464Y-85773088D01*
X118440460Y-85773090D01*
X118288116Y-85898116D01*
X118163090Y-86050460D01*
X118163086Y-86050467D01*
X118070188Y-86224266D01*
X118012975Y-86412870D01*
X117993659Y-86609000D01*
X118012975Y-86805129D01*
X118070188Y-86993733D01*
X118163086Y-87167532D01*
X118163090Y-87167539D01*
X118288116Y-87319883D01*
X118440460Y-87444909D01*
X118440467Y-87444913D01*
X118614266Y-87537811D01*
X118614269Y-87537811D01*
X118614273Y-87537814D01*
X118802868Y-87595024D01*
X118999000Y-87614341D01*
X119195132Y-87595024D01*
X119383727Y-87537814D01*
X119557538Y-87444910D01*
X119709883Y-87319883D01*
X119834910Y-87167538D01*
X119927814Y-86993727D01*
X119985024Y-86805132D01*
X120004341Y-86609000D01*
X119985024Y-86412868D01*
X119927814Y-86224273D01*
X119927811Y-86224269D01*
X119927811Y-86224266D01*
X119834913Y-86050467D01*
X119834909Y-86050460D01*
X119709883Y-85898116D01*
X119557539Y-85773091D01*
X119557538Y-85773090D01*
X119548687Y-85768359D01*
X119498843Y-85719398D01*
X119483381Y-85651261D01*
X119507211Y-85585581D01*
X119548686Y-85549641D01*
X119557538Y-85544910D01*
X119709883Y-85419883D01*
X119834910Y-85267538D01*
X119927814Y-85093727D01*
X119985024Y-84905132D01*
X120004341Y-84709000D01*
X119985024Y-84512868D01*
X119927814Y-84324273D01*
X119927811Y-84324269D01*
X119927811Y-84324266D01*
X119834913Y-84150467D01*
X119834909Y-84150460D01*
X119709883Y-83998116D01*
X119557539Y-83873090D01*
X119557532Y-83873086D01*
X119383733Y-83780188D01*
X119383727Y-83780186D01*
X119195132Y-83722976D01*
X119195129Y-83722975D01*
X118999000Y-83703659D01*
X118802870Y-83722975D01*
X118614266Y-83780188D01*
X118440467Y-83873086D01*
X118440460Y-83873090D01*
X118288116Y-83998116D01*
X118163090Y-84150460D01*
X118163086Y-84150467D01*
X118070188Y-84324266D01*
X118012975Y-84512870D01*
X117993659Y-84709000D01*
X107000500Y-84709000D01*
X107000500Y-81021995D01*
X112086732Y-81021995D01*
X112086732Y-81022004D01*
X112105777Y-81276154D01*
X112162490Y-81524630D01*
X112162492Y-81524637D01*
X112255608Y-81761890D01*
X112258605Y-81767081D01*
X112383041Y-81982612D01*
X112541950Y-82181877D01*
X112728783Y-82355232D01*
X112939366Y-82498805D01*
X112939371Y-82498807D01*
X112939372Y-82498808D01*
X112939373Y-82498809D01*
X113061328Y-82557538D01*
X113168992Y-82609387D01*
X113168993Y-82609387D01*
X113168996Y-82609389D01*
X113412542Y-82684513D01*
X113664565Y-82722500D01*
X113919435Y-82722500D01*
X114171458Y-82684513D01*
X114415004Y-82609389D01*
X114538332Y-82549997D01*
X127357561Y-82549997D01*
X127357561Y-82550002D01*
X127377252Y-82724771D01*
X127435344Y-82890790D01*
X127528919Y-83039713D01*
X127586525Y-83097319D01*
X127620010Y-83158642D01*
X127615026Y-83228334D01*
X127586525Y-83272681D01*
X127528919Y-83330286D01*
X127435344Y-83479209D01*
X127377252Y-83645228D01*
X127357561Y-83819997D01*
X127357561Y-83820002D01*
X127377252Y-83994771D01*
X127435344Y-84160790D01*
X127468575Y-84213676D01*
X127528919Y-84309713D01*
X127653287Y-84434081D01*
X127680618Y-84451254D01*
X127773067Y-84509344D01*
X127802211Y-84527656D01*
X127968223Y-84585746D01*
X127968226Y-84585746D01*
X127968228Y-84585747D01*
X128142997Y-84605439D01*
X128143000Y-84605439D01*
X128143003Y-84605439D01*
X128317771Y-84585747D01*
X128317772Y-84585746D01*
X128317777Y-84585746D01*
X128483789Y-84527656D01*
X128632713Y-84434081D01*
X128757081Y-84309713D01*
X128849561Y-84162530D01*
X128901896Y-84116240D01*
X128954555Y-84104503D01*
X146406328Y-84104503D01*
X146406344Y-84104504D01*
X146413940Y-84104504D01*
X146572051Y-84104504D01*
X146572054Y-84104504D01*
X146724782Y-84063580D01*
X146800860Y-84019656D01*
X146861713Y-83984523D01*
X146973517Y-83872719D01*
X146973517Y-83872717D01*
X146983721Y-83862514D01*
X146983725Y-83862509D01*
X148871972Y-81974261D01*
X148933293Y-81940778D01*
X148964035Y-81939212D01*
X148964035Y-81938439D01*
X148971002Y-81938439D01*
X149145771Y-81918747D01*
X149145772Y-81918746D01*
X149145777Y-81918746D01*
X149311789Y-81860656D01*
X149460713Y-81767081D01*
X149585081Y-81642713D01*
X149678656Y-81493789D01*
X149736746Y-81327777D01*
X149742563Y-81276157D01*
X149756439Y-81153002D01*
X149756439Y-81152997D01*
X149736747Y-80978228D01*
X149736746Y-80978226D01*
X149736746Y-80978223D01*
X149678656Y-80812211D01*
X149585081Y-80663287D01*
X149460713Y-80538919D01*
X149446499Y-80529988D01*
X149311790Y-80445344D01*
X149228783Y-80416299D01*
X149145777Y-80387254D01*
X149145775Y-80387253D01*
X149138988Y-80385705D01*
X149139346Y-80384136D01*
X149082714Y-80360331D01*
X149047468Y-80310105D01*
X149046679Y-80310486D01*
X149044367Y-80305685D01*
X149043978Y-80305131D01*
X149043656Y-80304210D01*
X148984243Y-80209655D01*
X148950081Y-80155287D01*
X148825713Y-80030919D01*
X148763317Y-79991713D01*
X148676790Y-79937344D01*
X148510771Y-79879252D01*
X148336003Y-79859561D01*
X148335997Y-79859561D01*
X148161228Y-79879252D01*
X147995209Y-79937344D01*
X147846286Y-80030919D01*
X147721919Y-80155286D01*
X147628344Y-80304209D01*
X147570254Y-80470223D01*
X147570253Y-80470226D01*
X147563519Y-80529988D01*
X147536451Y-80594402D01*
X147527980Y-80603783D01*
X145964584Y-82167181D01*
X145903261Y-82200666D01*
X145876903Y-82203500D01*
X128915600Y-82203500D01*
X128848561Y-82183815D01*
X128810606Y-82145472D01*
X128757080Y-82060286D01*
X128632713Y-81935919D01*
X128483790Y-81842344D01*
X128317771Y-81784252D01*
X128143003Y-81764561D01*
X128142997Y-81764561D01*
X127968228Y-81784252D01*
X127802209Y-81842344D01*
X127653286Y-81935919D01*
X127528919Y-82060286D01*
X127435344Y-82209209D01*
X127377252Y-82375228D01*
X127357561Y-82549997D01*
X114538332Y-82549997D01*
X114596458Y-82522005D01*
X114644626Y-82498809D01*
X114644626Y-82498808D01*
X114644634Y-82498805D01*
X114855217Y-82355232D01*
X115042050Y-82181877D01*
X115200959Y-81982612D01*
X115328393Y-81761888D01*
X115421508Y-81524637D01*
X115478222Y-81276157D01*
X115497268Y-81022000D01*
X115493987Y-80978223D01*
X115478222Y-80767845D01*
X115454357Y-80663287D01*
X115421508Y-80519363D01*
X115328393Y-80282112D01*
X115200959Y-80061388D01*
X115042050Y-79862123D01*
X114855217Y-79688768D01*
X114644634Y-79545195D01*
X114644630Y-79545193D01*
X114644627Y-79545191D01*
X114644626Y-79545190D01*
X114415006Y-79434612D01*
X114415008Y-79434612D01*
X114171466Y-79359489D01*
X114171462Y-79359488D01*
X114171458Y-79359487D01*
X114050231Y-79341214D01*
X113919440Y-79321500D01*
X113919435Y-79321500D01*
X113664565Y-79321500D01*
X113664559Y-79321500D01*
X113507609Y-79345157D01*
X113412542Y-79359487D01*
X113412539Y-79359488D01*
X113412533Y-79359489D01*
X113168992Y-79434612D01*
X112939373Y-79545190D01*
X112939372Y-79545191D01*
X112728782Y-79688768D01*
X112541952Y-79862121D01*
X112541950Y-79862123D01*
X112383041Y-80061388D01*
X112255608Y-80282109D01*
X112162492Y-80519362D01*
X112162490Y-80519369D01*
X112105777Y-80767845D01*
X112086732Y-81021995D01*
X107000500Y-81021995D01*
X107000500Y-62006961D01*
X107001280Y-61993077D01*
X107001280Y-61993076D01*
X107011459Y-61902731D01*
X107017635Y-61875670D01*
X107045353Y-61796456D01*
X107057396Y-61771450D01*
X107102046Y-61700389D01*
X107119351Y-61678690D01*
X107178690Y-61619351D01*
X107200389Y-61602046D01*
X107271450Y-61557396D01*
X107296456Y-61545353D01*
X107375670Y-61517635D01*
X107402733Y-61511459D01*
X107465419Y-61504396D01*
X107493079Y-61501280D01*
X107506962Y-61500500D01*
X107565892Y-61500500D01*
X112823464Y-61500500D01*
X112890503Y-61520185D01*
G37*
G04 #@! TD.AperFunction*
G04 #@! TA.AperFunction,Conductor*
G36*
X137253539Y-92695185D02*
G01*
X137299294Y-92747989D01*
X137310500Y-92799500D01*
X137310500Y-93940870D01*
X137310501Y-93940876D01*
X137316908Y-94000483D01*
X137367202Y-94135328D01*
X137367206Y-94135335D01*
X137453452Y-94250544D01*
X137453455Y-94250547D01*
X137487768Y-94276234D01*
X137529639Y-94332168D01*
X137534623Y-94401859D01*
X137501137Y-94463182D01*
X137439814Y-94496666D01*
X137413457Y-94499500D01*
X124099076Y-94499500D01*
X124032037Y-94479815D01*
X123986282Y-94427011D01*
X123976338Y-94357853D01*
X124005363Y-94294297D01*
X124033799Y-94270073D01*
X124065335Y-94250547D01*
X124211432Y-94160088D01*
X124372427Y-94013322D01*
X124503712Y-93839472D01*
X124600817Y-93644459D01*
X124660435Y-93434923D01*
X124680536Y-93218000D01*
X124660435Y-93001077D01*
X124659494Y-92997769D01*
X124659507Y-92996115D01*
X124659382Y-92995442D01*
X124659513Y-92995417D01*
X124660080Y-92927905D01*
X124691075Y-92876158D01*
X124855417Y-92711816D01*
X124916740Y-92678334D01*
X124943097Y-92675500D01*
X137186500Y-92675500D01*
X137253539Y-92695185D01*
G37*
G04 #@! TD.AperFunction*
G04 #@! TA.AperFunction,Conductor*
G36*
X163461539Y-92695185D02*
G01*
X163507294Y-92747989D01*
X163518500Y-92799500D01*
X163518500Y-93940870D01*
X163518501Y-93940876D01*
X163524908Y-94000483D01*
X163575202Y-94135328D01*
X163575206Y-94135335D01*
X163661452Y-94250544D01*
X163661455Y-94250547D01*
X163695768Y-94276234D01*
X163737639Y-94332168D01*
X163742623Y-94401859D01*
X163709137Y-94463182D01*
X163647814Y-94496666D01*
X163621457Y-94499500D01*
X149245076Y-94499500D01*
X149178037Y-94479815D01*
X149132282Y-94427011D01*
X149122338Y-94357853D01*
X149151363Y-94294297D01*
X149179799Y-94270073D01*
X149211335Y-94250547D01*
X149357432Y-94160088D01*
X149518427Y-94013322D01*
X149649712Y-93839472D01*
X149746817Y-93644459D01*
X149806435Y-93434923D01*
X149826536Y-93218000D01*
X149806435Y-93001077D01*
X149758736Y-92833432D01*
X149759322Y-92763567D01*
X149797589Y-92705109D01*
X149861386Y-92676618D01*
X149878002Y-92675500D01*
X163394500Y-92675500D01*
X163461539Y-92695185D01*
G37*
G04 #@! TD.AperFunction*
G04 #@! TA.AperFunction,Conductor*
G36*
X188607539Y-92695185D02*
G01*
X188653294Y-92747989D01*
X188664500Y-92799500D01*
X188664500Y-93940870D01*
X188664501Y-93940876D01*
X188670908Y-94000483D01*
X188721202Y-94135328D01*
X188721206Y-94135335D01*
X188807452Y-94250544D01*
X188807455Y-94250547D01*
X188841768Y-94276234D01*
X188883639Y-94332168D01*
X188888623Y-94401859D01*
X188855137Y-94463182D01*
X188793814Y-94496666D01*
X188767457Y-94499500D01*
X175453076Y-94499500D01*
X175386037Y-94479815D01*
X175340282Y-94427011D01*
X175330338Y-94357853D01*
X175359363Y-94294297D01*
X175387799Y-94270073D01*
X175419335Y-94250547D01*
X175565432Y-94160088D01*
X175726427Y-94013322D01*
X175857712Y-93839472D01*
X175954817Y-93644459D01*
X176014435Y-93434923D01*
X176034536Y-93218000D01*
X176014435Y-93001077D01*
X175966736Y-92833432D01*
X175967322Y-92763567D01*
X176005589Y-92705109D01*
X176069386Y-92676618D01*
X176086002Y-92675500D01*
X188540500Y-92675500D01*
X188607539Y-92695185D01*
G37*
G04 #@! TD.AperFunction*
G04 #@! TA.AperFunction,Conductor*
G36*
X138036503Y-61520185D02*
G01*
X138082258Y-61572989D01*
X138092202Y-61642147D01*
X138063177Y-61705703D01*
X138014258Y-61740126D01*
X138006008Y-61743322D01*
X137959792Y-61761226D01*
X137959786Y-61761229D01*
X137774576Y-61875906D01*
X137774566Y-61875913D01*
X137613574Y-62022676D01*
X137482288Y-62196527D01*
X137385184Y-62391537D01*
X137385183Y-62391541D01*
X137335267Y-62566980D01*
X137325564Y-62601081D01*
X137305464Y-62817999D01*
X137305464Y-62818000D01*
X137325564Y-63034918D01*
X137325564Y-63034920D01*
X137325565Y-63034923D01*
X137361108Y-63159844D01*
X137385184Y-63244462D01*
X137440339Y-63355228D01*
X137452600Y-63424014D01*
X137425727Y-63488509D01*
X137368251Y-63528236D01*
X137329339Y-63534500D01*
X125117097Y-63534500D01*
X125050058Y-63514815D01*
X125029416Y-63498181D01*
X124691079Y-63159844D01*
X124657594Y-63098521D01*
X124659421Y-63040565D01*
X124659382Y-63040558D01*
X124659430Y-63040299D01*
X124659495Y-63038223D01*
X124660435Y-63034923D01*
X124680536Y-62818000D01*
X124660435Y-62601077D01*
X124600817Y-62391541D01*
X124503712Y-62196528D01*
X124372427Y-62022678D01*
X124347550Y-62000000D01*
X124211433Y-61875913D01*
X124211423Y-61875906D01*
X124026213Y-61761229D01*
X124026207Y-61761226D01*
X123983015Y-61744494D01*
X123971741Y-61740126D01*
X123916341Y-61697554D01*
X123892750Y-61631787D01*
X123908461Y-61563707D01*
X123958485Y-61514928D01*
X124016536Y-61500500D01*
X137969464Y-61500500D01*
X138036503Y-61520185D01*
G37*
G04 #@! TD.AperFunction*
G04 #@! TA.AperFunction,Conductor*
G36*
X164244503Y-61520185D02*
G01*
X164290258Y-61572989D01*
X164300202Y-61642147D01*
X164271177Y-61705703D01*
X164222258Y-61740126D01*
X164214008Y-61743322D01*
X164167792Y-61761226D01*
X164167786Y-61761229D01*
X163982576Y-61875906D01*
X163982566Y-61875913D01*
X163821574Y-62022676D01*
X163690288Y-62196527D01*
X163593184Y-62391537D01*
X163593183Y-62391541D01*
X163543267Y-62566980D01*
X163533564Y-62601081D01*
X163513464Y-62817999D01*
X163513464Y-62818000D01*
X163533564Y-63034918D01*
X163533564Y-63034920D01*
X163533565Y-63034923D01*
X163569108Y-63159844D01*
X163593184Y-63244462D01*
X163648339Y-63355228D01*
X163660600Y-63424014D01*
X163633727Y-63488509D01*
X163576251Y-63528236D01*
X163537339Y-63534500D01*
X149802661Y-63534500D01*
X149735622Y-63514815D01*
X149689867Y-63462011D01*
X149679923Y-63392853D01*
X149691661Y-63355228D01*
X149717454Y-63303427D01*
X149746817Y-63244459D01*
X149806435Y-63034923D01*
X149826536Y-62818000D01*
X149806435Y-62601077D01*
X149746817Y-62391541D01*
X149649712Y-62196528D01*
X149518427Y-62022678D01*
X149493550Y-62000000D01*
X149357433Y-61875913D01*
X149357423Y-61875906D01*
X149172213Y-61761229D01*
X149172207Y-61761226D01*
X149129015Y-61744494D01*
X149117741Y-61740126D01*
X149062341Y-61697554D01*
X149038750Y-61631787D01*
X149054461Y-61563707D01*
X149104485Y-61514928D01*
X149162536Y-61500500D01*
X164177464Y-61500500D01*
X164244503Y-61520185D01*
G37*
G04 #@! TD.AperFunction*
G04 #@! TA.AperFunction,Conductor*
G36*
X189390503Y-61520185D02*
G01*
X189436258Y-61572989D01*
X189446202Y-61642147D01*
X189417177Y-61705703D01*
X189368258Y-61740126D01*
X189360008Y-61743322D01*
X189313792Y-61761226D01*
X189313786Y-61761229D01*
X189128576Y-61875906D01*
X189128566Y-61875913D01*
X188967574Y-62022676D01*
X188836288Y-62196527D01*
X188739184Y-62391537D01*
X188739183Y-62391541D01*
X188689267Y-62566980D01*
X188679564Y-62601081D01*
X188659464Y-62817999D01*
X188659464Y-62818000D01*
X188679564Y-63034918D01*
X188679564Y-63034920D01*
X188679565Y-63034923D01*
X188715108Y-63159844D01*
X188739184Y-63244462D01*
X188794339Y-63355228D01*
X188806600Y-63424014D01*
X188779727Y-63488509D01*
X188722251Y-63528236D01*
X188683339Y-63534500D01*
X176010661Y-63534500D01*
X175943622Y-63514815D01*
X175897867Y-63462011D01*
X175887923Y-63392853D01*
X175899661Y-63355228D01*
X175925454Y-63303427D01*
X175954817Y-63244459D01*
X176014435Y-63034923D01*
X176034536Y-62818000D01*
X176014435Y-62601077D01*
X175954817Y-62391541D01*
X175857712Y-62196528D01*
X175726427Y-62022678D01*
X175701550Y-62000000D01*
X175565433Y-61875913D01*
X175565423Y-61875906D01*
X175380213Y-61761229D01*
X175380207Y-61761226D01*
X175337015Y-61744494D01*
X175325741Y-61740126D01*
X175270341Y-61697554D01*
X175246750Y-61631787D01*
X175262461Y-61563707D01*
X175312485Y-61514928D01*
X175370536Y-61500500D01*
X189323464Y-61500500D01*
X189390503Y-61520185D01*
G37*
G04 #@! TD.AperFunction*
G04 #@! TD*
M02*
