G04 #@! TF.GenerationSoftware,KiCad,Pcbnew,8.0.4*
G04 #@! TF.CreationDate,2024-08-10T20:36:19+03:00*
G04 #@! TF.ProjectId,7clock,37636c6f-636b-42e6-9b69-6361645f7063,rev?*
G04 #@! TF.SameCoordinates,Original*
G04 #@! TF.FileFunction,Legend,Top*
G04 #@! TF.FilePolarity,Positive*
%FSLAX46Y46*%
G04 Gerber Fmt 4.6, Leading zero omitted, Abs format (unit mm)*
G04 Created by KiCad (PCBNEW 8.0.4) date 2024-08-10 20:36:19*
%MOMM*%
%LPD*%
G01*
G04 APERTURE LIST*
%ADD10C,0.100000*%
%ADD11C,0.254000*%
%ADD12C,0.200000*%
G04 APERTURE END LIST*
D10*
X202961419Y-91358401D02*
X203675704Y-91358401D01*
X203675704Y-91358401D02*
X203818561Y-91406020D01*
X203818561Y-91406020D02*
X203913800Y-91501258D01*
X203913800Y-91501258D02*
X203961419Y-91644115D01*
X203961419Y-91644115D02*
X203961419Y-91739353D01*
X203961419Y-90406020D02*
X203961419Y-90882210D01*
X203961419Y-90882210D02*
X202961419Y-90882210D01*
X203866180Y-89501258D02*
X203913800Y-89548877D01*
X203913800Y-89548877D02*
X203961419Y-89691734D01*
X203961419Y-89691734D02*
X203961419Y-89786972D01*
X203961419Y-89786972D02*
X203913800Y-89929829D01*
X203913800Y-89929829D02*
X203818561Y-90025067D01*
X203818561Y-90025067D02*
X203723323Y-90072686D01*
X203723323Y-90072686D02*
X203532847Y-90120305D01*
X203532847Y-90120305D02*
X203389990Y-90120305D01*
X203389990Y-90120305D02*
X203199514Y-90072686D01*
X203199514Y-90072686D02*
X203104276Y-90025067D01*
X203104276Y-90025067D02*
X203009038Y-89929829D01*
X203009038Y-89929829D02*
X202961419Y-89786972D01*
X202961419Y-89786972D02*
X202961419Y-89691734D01*
X202961419Y-89691734D02*
X203009038Y-89548877D01*
X203009038Y-89548877D02*
X203056657Y-89501258D01*
X202961419Y-88786972D02*
X203675704Y-88786972D01*
X203675704Y-88786972D02*
X203818561Y-88834591D01*
X203818561Y-88834591D02*
X203913800Y-88929829D01*
X203913800Y-88929829D02*
X203961419Y-89072686D01*
X203961419Y-89072686D02*
X203961419Y-89167924D01*
X203961419Y-87834591D02*
X203961419Y-88310781D01*
X203961419Y-88310781D02*
X202961419Y-88310781D01*
X203866180Y-86929829D02*
X203913800Y-86977448D01*
X203913800Y-86977448D02*
X203961419Y-87120305D01*
X203961419Y-87120305D02*
X203961419Y-87215543D01*
X203961419Y-87215543D02*
X203913800Y-87358400D01*
X203913800Y-87358400D02*
X203818561Y-87453638D01*
X203818561Y-87453638D02*
X203723323Y-87501257D01*
X203723323Y-87501257D02*
X203532847Y-87548876D01*
X203532847Y-87548876D02*
X203389990Y-87548876D01*
X203389990Y-87548876D02*
X203199514Y-87501257D01*
X203199514Y-87501257D02*
X203104276Y-87453638D01*
X203104276Y-87453638D02*
X203009038Y-87358400D01*
X203009038Y-87358400D02*
X202961419Y-87215543D01*
X202961419Y-87215543D02*
X202961419Y-87120305D01*
X202961419Y-87120305D02*
X203009038Y-86977448D01*
X203009038Y-86977448D02*
X203056657Y-86929829D01*
X202961419Y-86215543D02*
X203675704Y-86215543D01*
X203675704Y-86215543D02*
X203818561Y-86263162D01*
X203818561Y-86263162D02*
X203913800Y-86358400D01*
X203913800Y-86358400D02*
X203961419Y-86501257D01*
X203961419Y-86501257D02*
X203961419Y-86596495D01*
X203961419Y-85263162D02*
X203961419Y-85739352D01*
X203961419Y-85739352D02*
X202961419Y-85739352D01*
X203866180Y-84358400D02*
X203913800Y-84406019D01*
X203913800Y-84406019D02*
X203961419Y-84548876D01*
X203961419Y-84548876D02*
X203961419Y-84644114D01*
X203961419Y-84644114D02*
X203913800Y-84786971D01*
X203913800Y-84786971D02*
X203818561Y-84882209D01*
X203818561Y-84882209D02*
X203723323Y-84929828D01*
X203723323Y-84929828D02*
X203532847Y-84977447D01*
X203532847Y-84977447D02*
X203389990Y-84977447D01*
X203389990Y-84977447D02*
X203199514Y-84929828D01*
X203199514Y-84929828D02*
X203104276Y-84882209D01*
X203104276Y-84882209D02*
X203009038Y-84786971D01*
X203009038Y-84786971D02*
X202961419Y-84644114D01*
X202961419Y-84644114D02*
X202961419Y-84548876D01*
X202961419Y-84548876D02*
X203009038Y-84406019D01*
X203009038Y-84406019D02*
X203056657Y-84358400D01*
X202961419Y-83644114D02*
X203675704Y-83644114D01*
X203675704Y-83644114D02*
X203818561Y-83691733D01*
X203818561Y-83691733D02*
X203913800Y-83786971D01*
X203913800Y-83786971D02*
X203961419Y-83929828D01*
X203961419Y-83929828D02*
X203961419Y-84025066D01*
X203961419Y-82691733D02*
X203961419Y-83167923D01*
X203961419Y-83167923D02*
X202961419Y-83167923D01*
X203866180Y-81786971D02*
X203913800Y-81834590D01*
X203913800Y-81834590D02*
X203961419Y-81977447D01*
X203961419Y-81977447D02*
X203961419Y-82072685D01*
X203961419Y-82072685D02*
X203913800Y-82215542D01*
X203913800Y-82215542D02*
X203818561Y-82310780D01*
X203818561Y-82310780D02*
X203723323Y-82358399D01*
X203723323Y-82358399D02*
X203532847Y-82406018D01*
X203532847Y-82406018D02*
X203389990Y-82406018D01*
X203389990Y-82406018D02*
X203199514Y-82358399D01*
X203199514Y-82358399D02*
X203104276Y-82310780D01*
X203104276Y-82310780D02*
X203009038Y-82215542D01*
X203009038Y-82215542D02*
X202961419Y-82072685D01*
X202961419Y-82072685D02*
X202961419Y-81977447D01*
X202961419Y-81977447D02*
X203009038Y-81834590D01*
X203009038Y-81834590D02*
X203056657Y-81786971D01*
D11*
X118994318Y-79560143D02*
X117724318Y-79560143D01*
X117724318Y-79560143D02*
X117724318Y-79257762D01*
X117724318Y-79257762D02*
X117784794Y-79076333D01*
X117784794Y-79076333D02*
X117905746Y-78955381D01*
X117905746Y-78955381D02*
X118026699Y-78894904D01*
X118026699Y-78894904D02*
X118268603Y-78834428D01*
X118268603Y-78834428D02*
X118450032Y-78834428D01*
X118450032Y-78834428D02*
X118691937Y-78894904D01*
X118691937Y-78894904D02*
X118812889Y-78955381D01*
X118812889Y-78955381D02*
X118933842Y-79076333D01*
X118933842Y-79076333D02*
X118994318Y-79257762D01*
X118994318Y-79257762D02*
X118994318Y-79560143D01*
X118933842Y-78350619D02*
X118994318Y-78169190D01*
X118994318Y-78169190D02*
X118994318Y-77866809D01*
X118994318Y-77866809D02*
X118933842Y-77745857D01*
X118933842Y-77745857D02*
X118873365Y-77685381D01*
X118873365Y-77685381D02*
X118752413Y-77624904D01*
X118752413Y-77624904D02*
X118631461Y-77624904D01*
X118631461Y-77624904D02*
X118510508Y-77685381D01*
X118510508Y-77685381D02*
X118450032Y-77745857D01*
X118450032Y-77745857D02*
X118389556Y-77866809D01*
X118389556Y-77866809D02*
X118329080Y-78108714D01*
X118329080Y-78108714D02*
X118268603Y-78229666D01*
X118268603Y-78229666D02*
X118208127Y-78290143D01*
X118208127Y-78290143D02*
X118087175Y-78350619D01*
X118087175Y-78350619D02*
X117966222Y-78350619D01*
X117966222Y-78350619D02*
X117845270Y-78290143D01*
X117845270Y-78290143D02*
X117784794Y-78229666D01*
X117784794Y-78229666D02*
X117724318Y-78108714D01*
X117724318Y-78108714D02*
X117724318Y-77806333D01*
X117724318Y-77806333D02*
X117784794Y-77624904D01*
X118147651Y-76536333D02*
X118994318Y-76536333D01*
X117663842Y-76838714D02*
X118570984Y-77141095D01*
X118570984Y-77141095D02*
X118570984Y-76354904D01*
X144140318Y-79560143D02*
X142870318Y-79560143D01*
X142870318Y-79560143D02*
X142870318Y-79257762D01*
X142870318Y-79257762D02*
X142930794Y-79076333D01*
X142930794Y-79076333D02*
X143051746Y-78955381D01*
X143051746Y-78955381D02*
X143172699Y-78894904D01*
X143172699Y-78894904D02*
X143414603Y-78834428D01*
X143414603Y-78834428D02*
X143596032Y-78834428D01*
X143596032Y-78834428D02*
X143837937Y-78894904D01*
X143837937Y-78894904D02*
X143958889Y-78955381D01*
X143958889Y-78955381D02*
X144079842Y-79076333D01*
X144079842Y-79076333D02*
X144140318Y-79257762D01*
X144140318Y-79257762D02*
X144140318Y-79560143D01*
X144079842Y-78350619D02*
X144140318Y-78169190D01*
X144140318Y-78169190D02*
X144140318Y-77866809D01*
X144140318Y-77866809D02*
X144079842Y-77745857D01*
X144079842Y-77745857D02*
X144019365Y-77685381D01*
X144019365Y-77685381D02*
X143898413Y-77624904D01*
X143898413Y-77624904D02*
X143777461Y-77624904D01*
X143777461Y-77624904D02*
X143656508Y-77685381D01*
X143656508Y-77685381D02*
X143596032Y-77745857D01*
X143596032Y-77745857D02*
X143535556Y-77866809D01*
X143535556Y-77866809D02*
X143475080Y-78108714D01*
X143475080Y-78108714D02*
X143414603Y-78229666D01*
X143414603Y-78229666D02*
X143354127Y-78290143D01*
X143354127Y-78290143D02*
X143233175Y-78350619D01*
X143233175Y-78350619D02*
X143112222Y-78350619D01*
X143112222Y-78350619D02*
X142991270Y-78290143D01*
X142991270Y-78290143D02*
X142930794Y-78229666D01*
X142930794Y-78229666D02*
X142870318Y-78108714D01*
X142870318Y-78108714D02*
X142870318Y-77806333D01*
X142870318Y-77806333D02*
X142930794Y-77624904D01*
X142870318Y-77201571D02*
X142870318Y-76415380D01*
X142870318Y-76415380D02*
X143354127Y-76838714D01*
X143354127Y-76838714D02*
X143354127Y-76657285D01*
X143354127Y-76657285D02*
X143414603Y-76536333D01*
X143414603Y-76536333D02*
X143475080Y-76475857D01*
X143475080Y-76475857D02*
X143596032Y-76415380D01*
X143596032Y-76415380D02*
X143898413Y-76415380D01*
X143898413Y-76415380D02*
X144019365Y-76475857D01*
X144019365Y-76475857D02*
X144079842Y-76536333D01*
X144079842Y-76536333D02*
X144140318Y-76657285D01*
X144140318Y-76657285D02*
X144140318Y-77020142D01*
X144140318Y-77020142D02*
X144079842Y-77141095D01*
X144079842Y-77141095D02*
X144019365Y-77201571D01*
X195494318Y-79560143D02*
X194224318Y-79560143D01*
X194224318Y-79560143D02*
X194224318Y-79257762D01*
X194224318Y-79257762D02*
X194284794Y-79076333D01*
X194284794Y-79076333D02*
X194405746Y-78955381D01*
X194405746Y-78955381D02*
X194526699Y-78894904D01*
X194526699Y-78894904D02*
X194768603Y-78834428D01*
X194768603Y-78834428D02*
X194950032Y-78834428D01*
X194950032Y-78834428D02*
X195191937Y-78894904D01*
X195191937Y-78894904D02*
X195312889Y-78955381D01*
X195312889Y-78955381D02*
X195433842Y-79076333D01*
X195433842Y-79076333D02*
X195494318Y-79257762D01*
X195494318Y-79257762D02*
X195494318Y-79560143D01*
X195433842Y-78350619D02*
X195494318Y-78169190D01*
X195494318Y-78169190D02*
X195494318Y-77866809D01*
X195494318Y-77866809D02*
X195433842Y-77745857D01*
X195433842Y-77745857D02*
X195373365Y-77685381D01*
X195373365Y-77685381D02*
X195252413Y-77624904D01*
X195252413Y-77624904D02*
X195131461Y-77624904D01*
X195131461Y-77624904D02*
X195010508Y-77685381D01*
X195010508Y-77685381D02*
X194950032Y-77745857D01*
X194950032Y-77745857D02*
X194889556Y-77866809D01*
X194889556Y-77866809D02*
X194829080Y-78108714D01*
X194829080Y-78108714D02*
X194768603Y-78229666D01*
X194768603Y-78229666D02*
X194708127Y-78290143D01*
X194708127Y-78290143D02*
X194587175Y-78350619D01*
X194587175Y-78350619D02*
X194466222Y-78350619D01*
X194466222Y-78350619D02*
X194345270Y-78290143D01*
X194345270Y-78290143D02*
X194284794Y-78229666D01*
X194284794Y-78229666D02*
X194224318Y-78108714D01*
X194224318Y-78108714D02*
X194224318Y-77806333D01*
X194224318Y-77806333D02*
X194284794Y-77624904D01*
X195494318Y-76415380D02*
X195494318Y-77141095D01*
X195494318Y-76778238D02*
X194224318Y-76778238D01*
X194224318Y-76778238D02*
X194405746Y-76899190D01*
X194405746Y-76899190D02*
X194526699Y-77020142D01*
X194526699Y-77020142D02*
X194587175Y-77141095D01*
X170348318Y-79560143D02*
X169078318Y-79560143D01*
X169078318Y-79560143D02*
X169078318Y-79257762D01*
X169078318Y-79257762D02*
X169138794Y-79076333D01*
X169138794Y-79076333D02*
X169259746Y-78955381D01*
X169259746Y-78955381D02*
X169380699Y-78894904D01*
X169380699Y-78894904D02*
X169622603Y-78834428D01*
X169622603Y-78834428D02*
X169804032Y-78834428D01*
X169804032Y-78834428D02*
X170045937Y-78894904D01*
X170045937Y-78894904D02*
X170166889Y-78955381D01*
X170166889Y-78955381D02*
X170287842Y-79076333D01*
X170287842Y-79076333D02*
X170348318Y-79257762D01*
X170348318Y-79257762D02*
X170348318Y-79560143D01*
X170287842Y-78350619D02*
X170348318Y-78169190D01*
X170348318Y-78169190D02*
X170348318Y-77866809D01*
X170348318Y-77866809D02*
X170287842Y-77745857D01*
X170287842Y-77745857D02*
X170227365Y-77685381D01*
X170227365Y-77685381D02*
X170106413Y-77624904D01*
X170106413Y-77624904D02*
X169985461Y-77624904D01*
X169985461Y-77624904D02*
X169864508Y-77685381D01*
X169864508Y-77685381D02*
X169804032Y-77745857D01*
X169804032Y-77745857D02*
X169743556Y-77866809D01*
X169743556Y-77866809D02*
X169683080Y-78108714D01*
X169683080Y-78108714D02*
X169622603Y-78229666D01*
X169622603Y-78229666D02*
X169562127Y-78290143D01*
X169562127Y-78290143D02*
X169441175Y-78350619D01*
X169441175Y-78350619D02*
X169320222Y-78350619D01*
X169320222Y-78350619D02*
X169199270Y-78290143D01*
X169199270Y-78290143D02*
X169138794Y-78229666D01*
X169138794Y-78229666D02*
X169078318Y-78108714D01*
X169078318Y-78108714D02*
X169078318Y-77806333D01*
X169078318Y-77806333D02*
X169138794Y-77624904D01*
X169199270Y-77141095D02*
X169138794Y-77080619D01*
X169138794Y-77080619D02*
X169078318Y-76959666D01*
X169078318Y-76959666D02*
X169078318Y-76657285D01*
X169078318Y-76657285D02*
X169138794Y-76536333D01*
X169138794Y-76536333D02*
X169199270Y-76475857D01*
X169199270Y-76475857D02*
X169320222Y-76415380D01*
X169320222Y-76415380D02*
X169441175Y-76415380D01*
X169441175Y-76415380D02*
X169622603Y-76475857D01*
X169622603Y-76475857D02*
X170348318Y-77201571D01*
X170348318Y-77201571D02*
X170348318Y-76415380D01*
D12*
G04 #@! TO.C,DS4*
X106420000Y-93893000D02*
X106420000Y-61018000D01*
X130420000Y-95018000D02*
X130420000Y-61018000D01*
G04 #@! TO.C,DS3*
X131566000Y-93893000D02*
X131566000Y-61018000D01*
X155566000Y-95018000D02*
X155566000Y-61018000D01*
G04 #@! TO.C,DS1*
X182920000Y-93893000D02*
X182920000Y-61018000D01*
X206920000Y-95018000D02*
X206920000Y-61018000D01*
G04 #@! TO.C,DS2*
X157774000Y-93893000D02*
X157774000Y-61018000D01*
X181774000Y-95018000D02*
X181774000Y-61018000D01*
G04 #@! TD*
M02*
