M48
; DRILL file {KiCad 8.0.4} date 2024-08-10T20:36:19+0300
; FORMAT={-:-/ absolute / metric / decimal}
; #@! TF.CreationDate,2024-08-10T20:36:19+03:00
; #@! TF.GenerationSoftware,Kicad,Pcbnew,8.0.4
; #@! TF.FileFunction,MixedPlating,1,2
FMAT,2
METRIC
; #@! TA.AperFunction,Plated,PTH,ViaDrill
T1C0.300
; #@! TA.AperFunction,Plated,PTH,ComponentDrill
T2C0.500
; #@! TA.AperFunction,Plated,PTH,ComponentDrill
T3C0.950
; #@! TA.AperFunction,Plated,PTH,ComponentDrill
T4C1.850
%
G90
G05
T1
X107.95Y-62.611
X107.95Y-63.627
X107.95Y-64.77
X107.95Y-91.186
X107.95Y-92.329
X107.95Y-93.345
X108.966Y-62.611
X108.966Y-93.345
X109.22Y-84.836
X109.22Y-86.233
X110.109Y-62.611
X110.109Y-93.345
X110.744Y-84.836
X110.744Y-86.233
X113.792Y-71.628
X113.792Y-77.089
X114.935Y-65.659
X116.586Y-74.422
X119.126Y-68.199
X122.301Y-68.199
X122.555Y-75.946
X122.936Y-82.55
X123.444Y-75.946
X123.444Y-79.375
X123.698Y-88.011
X123.825Y-83.185
X123.825Y-84.455
X123.825Y-85.852
X124.46Y-75.946
X124.714Y-68.199
X125.095Y-79.375
X125.476Y-93.218
X126.111Y-62.865
X126.238Y-71.12
X127.127Y-68.199
X127.127Y-93.218
X127.889Y-76.073
X128.143Y-82.55
X128.143Y-83.82
X128.651Y-81.28
X128.778Y-93.218
X129.159Y-62.865
X129.413Y-68.199
X129.413Y-76.327
X129.794Y-88.138
X131.064Y-76.581
X132.08Y-80.01
X132.207Y-81.341
X132.842Y-70.866
X132.969Y-93.218
X133.604Y-62.865
X134.493Y-93.218
X135.763Y-62.865
X136.144Y-93.218
X137.224Y-75.882
X138.557Y-66.167
X138.557Y-90.17
X139.319Y-79.436
X140.462Y-78.232
X140.589Y-68.961
X140.97Y-65.405
X141.097Y-90.805
X142.24Y-73.533
X142.24Y-75.565
X142.494Y-84.836
X142.494Y-86.995
X143.566Y-66.802
X145.161Y-71.882
X145.161Y-74.295
X145.923Y-85.344
X146.177Y-64.77
X146.177Y-68.58
X146.177Y-91.44
X148.336Y-80.645
X148.971Y-81.153
X150.114Y-69.723
X150.241Y-81.915
X150.622Y-93.218
X150.749Y-62.484
X151.511Y-75.819
X151.892Y-93.218
X152.146Y-76.454
X152.908Y-81.534
X153.035Y-63.119
X153.416Y-77.089
X153.416Y-93.218
X153.543Y-72.136
X154.178Y-62.484
X154.686Y-77.724
X154.932Y-80.891
X155.067Y-70.739
X156.21Y-88.519
X157.353Y-74.295
X158.242Y-81.534
X158.75Y-93.218
X159.131Y-68.58
X159.385Y-70.231
X159.639Y-74.295
X159.639Y-81.407
X159.766Y-79.756
X160.401Y-62.611
X160.782Y-93.218
X161.29Y-88.519
X161.417Y-81.28
X162.179Y-74.803
X162.687Y-62.611
X162.687Y-93.218
X162.941Y-82.804
X163.068Y-69.723
X163.322Y-77.089
X164.465Y-70.866
X164.719Y-66.167
X164.719Y-90.17
X166.37Y-79.502
X166.497Y-88.519
X166.624Y-80.772
X167.259Y-65.405
X167.259Y-90.805
X167.767Y-74.295
X168.529Y-69.977
X169.736Y-74.231
X169.799Y-80.772
X169.799Y-82.169
X169.799Y-83.312
X169.926Y-85.217
X171.196Y-80.137
X171.323Y-85.725
X172.339Y-64.77
X172.339Y-91.44
X172.466Y-68.58
X173.228Y-67.564
X173.355Y-74.676
X175.133Y-85.979
X176.149Y-68.58
X176.403Y-81.153
X176.784Y-66.802
X177.038Y-74.676
X177.165Y-93.218
X178.689Y-93.218
X178.943Y-77.343
X179.959Y-68.58
X180.467Y-81.153
X180.594Y-93.218
X180.975Y-74.676
X183.769Y-68.58
X183.769Y-77.47
X183.769Y-81.153
X184.277Y-93.218
X184.658Y-74.676
X186.182Y-63.119
X186.69Y-88.519
X186.944Y-68.834
X186.944Y-71.501
X186.944Y-74.168
X187.579Y-81.026
X187.706Y-63.119
X189.103Y-88.646
X189.23Y-68.834
X190.373Y-80.899
X190.5Y-82.169
X190.5Y-83.312
X191.262Y-75.184
X191.516Y-83.947
X191.77Y-88.646
X192.024Y-78.994
X192.278Y-71.628
X192.278Y-73.66
X192.786Y-85.979
X194.183Y-88.646
X194.31Y-66.802
X196.469Y-88.646
X197.739Y-72.136
X198.623Y-90.048
X199.549Y-90.456
X199.707Y-91.249
X200.787Y-91.186
X201.115Y-63.933
X201.15Y-64.788
X201.168Y-65.786
X201.295Y-66.929
X203.073Y-62.357
X203.073Y-93.345
X204.216Y-62.357
X204.216Y-93.345
X205.232Y-62.357
X205.232Y-63.373
X205.232Y-64.516
X205.232Y-91.186
X205.232Y-92.329
X205.232Y-93.345
T2
X118.999Y-84.709
X118.999Y-86.609
T3
X113.34Y-62.818
X113.34Y-93.218
X115.88Y-62.818
X115.88Y-93.218
X118.42Y-62.818
X118.42Y-93.218
X120.96Y-62.818
X120.96Y-93.218
X123.5Y-62.818
X123.5Y-93.218
X138.486Y-62.818
X138.486Y-93.218
X141.026Y-62.818
X141.026Y-93.218
X143.566Y-62.818
X143.566Y-93.218
X146.106Y-62.818
X146.106Y-93.218
X148.646Y-62.818
X148.646Y-93.218
X164.694Y-62.818
X164.694Y-93.218
X167.234Y-62.818
X167.234Y-93.218
X169.774Y-62.818
X169.774Y-93.218
X172.314Y-62.818
X172.314Y-93.218
X174.854Y-62.818
X174.854Y-93.218
X189.84Y-62.818
X189.84Y-93.218
X192.38Y-62.818
X192.38Y-93.218
X194.92Y-62.818
X194.92Y-93.218
X197.46Y-62.818
X197.46Y-93.218
X200.0Y-62.818
X200.0Y-93.218
T4
X113.792Y-67.822
X113.792Y-81.022
M30
