G04 #@! TF.GenerationSoftware,KiCad,Pcbnew,8.0.4*
G04 #@! TF.CreationDate,2024-08-10T20:36:19+03:00*
G04 #@! TF.ProjectId,7clock,37636c6f-636b-42e6-9b69-6361645f7063,rev?*
G04 #@! TF.SameCoordinates,Original*
G04 #@! TF.FileFunction,Soldermask,Bot*
G04 #@! TF.FilePolarity,Negative*
%FSLAX46Y46*%
G04 Gerber Fmt 4.6, Leading zero omitted, Abs format (unit mm)*
G04 Created by KiCad (PCBNEW 8.0.4) date 2024-08-10 20:36:19*
%MOMM*%
%LPD*%
G01*
G04 APERTURE LIST*
G04 Aperture macros list*
%AMRoundRect*
0 Rectangle with rounded corners*
0 $1 Rounding radius*
0 $2 $3 $4 $5 $6 $7 $8 $9 X,Y pos of 4 corners*
0 Add a 4 corners polygon primitive as box body*
4,1,4,$2,$3,$4,$5,$6,$7,$8,$9,$2,$3,0*
0 Add four circle primitives for the rounded corners*
1,1,$1+$1,$2,$3*
1,1,$1+$1,$4,$5*
1,1,$1+$1,$6,$7*
1,1,$1+$1,$8,$9*
0 Add four rect primitives between the rounded corners*
20,1,$1+$1,$2,$3,$4,$5,0*
20,1,$1+$1,$4,$5,$6,$7,0*
20,1,$1+$1,$6,$7,$8,$9,0*
20,1,$1+$1,$8,$9,$2,$3,0*%
G04 Aperture macros list end*
%ADD10R,1.350000X1.350000*%
%ADD11C,1.350000*%
%ADD12RoundRect,0.200000X0.275000X-0.200000X0.275000X0.200000X-0.275000X0.200000X-0.275000X-0.200000X0*%
%ADD13RoundRect,0.200000X-0.200000X-0.275000X0.200000X-0.275000X0.200000X0.275000X-0.200000X0.275000X0*%
%ADD14RoundRect,0.150000X-0.587500X-0.150000X0.587500X-0.150000X0.587500X0.150000X-0.587500X0.150000X0*%
%ADD15RoundRect,0.200000X-0.275000X0.200000X-0.275000X-0.200000X0.275000X-0.200000X0.275000X0.200000X0*%
%ADD16RoundRect,0.112500X0.187500X0.112500X-0.187500X0.112500X-0.187500X-0.112500X0.187500X-0.112500X0*%
%ADD17R,2.413000X3.429000*%
%ADD18RoundRect,0.100000X-0.100000X0.350000X-0.100000X-0.350000X0.100000X-0.350000X0.100000X0.350000X0*%
%ADD19RoundRect,0.150000X-0.150000X0.587500X-0.150000X-0.587500X0.150000X-0.587500X0.150000X0.587500X0*%
%ADD20RoundRect,0.218750X0.218750X0.256250X-0.218750X0.256250X-0.218750X-0.256250X0.218750X-0.256250X0*%
%ADD21R,1.800000X1.100000*%
%ADD22RoundRect,0.250000X0.475000X-0.250000X0.475000X0.250000X-0.475000X0.250000X-0.475000X-0.250000X0*%
%ADD23RoundRect,0.200000X0.200000X0.275000X-0.200000X0.275000X-0.200000X-0.275000X0.200000X-0.275000X0*%
%ADD24R,1.700000X1.700000*%
%ADD25O,1.700000X1.700000*%
%ADD26RoundRect,0.225000X0.225000X0.250000X-0.225000X0.250000X-0.225000X-0.250000X0.225000X-0.250000X0*%
%ADD27RoundRect,0.150000X0.150000X-0.825000X0.150000X0.825000X-0.150000X0.825000X-0.150000X-0.825000X0*%
%ADD28C,2.400000*%
%ADD29RoundRect,1.000000X-1.000000X1.000000X-1.000000X-1.000000X1.000000X-1.000000X1.000000X1.000000X0*%
%ADD30RoundRect,0.150000X0.725000X0.150000X-0.725000X0.150000X-0.725000X-0.150000X0.725000X-0.150000X0*%
%ADD31RoundRect,0.150000X0.587500X0.150000X-0.587500X0.150000X-0.587500X-0.150000X0.587500X-0.150000X0*%
%ADD32RoundRect,0.150000X0.150000X-0.587500X0.150000X0.587500X-0.150000X0.587500X-0.150000X-0.587500X0*%
%ADD33R,1.500000X1.500000*%
%ADD34RoundRect,0.150000X-0.825000X-0.150000X0.825000X-0.150000X0.825000X0.150000X-0.825000X0.150000X0*%
%ADD35C,1.000000*%
%ADD36RoundRect,0.250000X0.250000X0.475000X-0.250000X0.475000X-0.250000X-0.475000X0.250000X-0.475000X0*%
%ADD37RoundRect,0.225000X0.250000X-0.225000X0.250000X0.225000X-0.250000X0.225000X-0.250000X-0.225000X0*%
%ADD38RoundRect,0.225000X-0.225000X-0.250000X0.225000X-0.250000X0.225000X0.250000X-0.225000X0.250000X0*%
G04 APERTURE END LIST*
D10*
G04 #@! TO.C,DS4*
X113340000Y-93218000D03*
D11*
X115880000Y-93218000D03*
X118420000Y-93218000D03*
X120960000Y-93218000D03*
X123500000Y-93218000D03*
X123500000Y-62818000D03*
X120960000Y-62818000D03*
X118420000Y-62818000D03*
X115880000Y-62818000D03*
X113340000Y-62818000D03*
G04 #@! TD*
D10*
G04 #@! TO.C,DS3*
X138486000Y-93218000D03*
D11*
X141026000Y-93218000D03*
X143566000Y-93218000D03*
X146106000Y-93218000D03*
X148646000Y-93218000D03*
X148646000Y-62818000D03*
X146106000Y-62818000D03*
X143566000Y-62818000D03*
X141026000Y-62818000D03*
X138486000Y-62818000D03*
G04 #@! TD*
D10*
G04 #@! TO.C,DS1*
X189840000Y-93218000D03*
D11*
X192380000Y-93218000D03*
X194920000Y-93218000D03*
X197460000Y-93218000D03*
X200000000Y-93218000D03*
X200000000Y-62818000D03*
X197460000Y-62818000D03*
X194920000Y-62818000D03*
X192380000Y-62818000D03*
X189840000Y-62818000D03*
G04 #@! TD*
D10*
G04 #@! TO.C,DS2*
X164694000Y-93218000D03*
D11*
X167234000Y-93218000D03*
X169774000Y-93218000D03*
X172314000Y-93218000D03*
X174854000Y-93218000D03*
X174854000Y-62818000D03*
X172314000Y-62818000D03*
X169774000Y-62818000D03*
X167234000Y-62818000D03*
X164694000Y-62818000D03*
G04 #@! TD*
D12*
G04 #@! TO.C,R22*
X132842000Y-73469000D03*
X132842000Y-71819000D03*
G04 #@! TD*
D13*
G04 #@! TO.C,R13*
X196973000Y-86254000D03*
X198623000Y-86254000D03*
G04 #@! TD*
D14*
G04 #@! TO.C,Q6*
X129316000Y-79563000D03*
X129316000Y-77663000D03*
X131191000Y-78613000D03*
G04 #@! TD*
D15*
G04 #@! TO.C,R18*
X163276000Y-72161000D03*
X163276000Y-73811000D03*
G04 #@! TD*
D16*
G04 #@! TO.C,D1*
X134908000Y-75184000D03*
X132808000Y-75184000D03*
G04 #@! TD*
D12*
G04 #@! TO.C,R17*
X182753000Y-70294000D03*
X182753000Y-68644000D03*
G04 #@! TD*
D17*
G04 #@! TO.C,L1*
X134620000Y-85913000D03*
X140462000Y-85913000D03*
G04 #@! TD*
D18*
G04 #@! TO.C,U5*
X137160000Y-79395000D03*
X137810000Y-79395000D03*
X138460000Y-79395000D03*
X138460000Y-81595000D03*
X137810000Y-81595000D03*
X137160000Y-81595000D03*
G04 #@! TD*
D19*
G04 #@! TO.C,Q2*
X175324333Y-72000000D03*
X177224333Y-72000000D03*
X176274333Y-73875000D03*
G04 #@! TD*
G04 #@! TO.C,Q4*
X182773000Y-72000000D03*
X184673000Y-72000000D03*
X183723000Y-73875000D03*
G04 #@! TD*
D13*
G04 #@! TO.C,R11*
X196973000Y-83206000D03*
X198623000Y-83206000D03*
G04 #@! TD*
D12*
G04 #@! TO.C,R15*
X175302333Y-70294000D03*
X175302333Y-68644000D03*
G04 #@! TD*
D13*
G04 #@! TO.C,R23*
X123635000Y-71120000D03*
X125285000Y-71120000D03*
G04 #@! TD*
G04 #@! TO.C,R5*
X146685000Y-70358000D03*
X148335000Y-70358000D03*
G04 #@! TD*
G04 #@! TO.C,R10*
X196973000Y-81682000D03*
X198623000Y-81682000D03*
G04 #@! TD*
D20*
G04 #@! TO.C,FB1*
X161290000Y-86106000D03*
X159715000Y-86106000D03*
G04 #@! TD*
D21*
G04 #@! TO.C,SW1*
X192428000Y-70502000D03*
X198628000Y-70502000D03*
X192428000Y-66802000D03*
X198628000Y-66802000D03*
G04 #@! TD*
D22*
G04 #@! TO.C,C7*
X140462000Y-81402000D03*
X140462000Y-79502000D03*
G04 #@! TD*
D23*
G04 #@! TO.C,R20*
X146621000Y-77724000D03*
X144971000Y-77724000D03*
G04 #@! TD*
D24*
G04 #@! TO.C,J3*
X153797000Y-88519000D03*
D25*
X151257000Y-88519000D03*
X148717000Y-88519000D03*
X146177000Y-88519000D03*
G04 #@! TD*
D26*
G04 #@! TO.C,C4*
X166083000Y-77050000D03*
X164533000Y-77050000D03*
G04 #@! TD*
D19*
G04 #@! TO.C,Q5*
X165120000Y-72048500D03*
X167020000Y-72048500D03*
X166070000Y-73923500D03*
G04 #@! TD*
D27*
G04 #@! TO.C,U1*
X155956000Y-84198000D03*
X154686000Y-84198000D03*
X153416000Y-84198000D03*
X152146000Y-84198000D03*
X150876000Y-84198000D03*
X149606000Y-84198000D03*
X148336000Y-84198000D03*
X148336000Y-79248000D03*
X149606000Y-79248000D03*
X150876000Y-79248000D03*
X152146000Y-79248000D03*
X153416000Y-79248000D03*
X154686000Y-79248000D03*
X155956000Y-79248000D03*
G04 #@! TD*
D24*
G04 #@! TO.C,J2*
X137160000Y-72136000D03*
D25*
X137160000Y-69596000D03*
G04 #@! TD*
D28*
G04 #@! TO.C,BT1*
X113792000Y-67822000D03*
X113792000Y-81022000D03*
D29*
X113792000Y-74422000D03*
G04 #@! TD*
D30*
G04 #@! TO.C,U4*
X194150000Y-77110000D03*
X194150000Y-78380000D03*
X194150000Y-79650000D03*
X194150000Y-80920000D03*
X194150000Y-82190000D03*
X194150000Y-83460000D03*
X194150000Y-84730000D03*
X194150000Y-86000000D03*
X189000000Y-86000000D03*
X189000000Y-84730000D03*
X189000000Y-83460000D03*
X189000000Y-82190000D03*
X189000000Y-80920000D03*
X189000000Y-79650000D03*
X189000000Y-78380000D03*
X189000000Y-77110000D03*
G04 #@! TD*
D13*
G04 #@! TO.C,R12*
X196973000Y-84730000D03*
X198623000Y-84730000D03*
G04 #@! TD*
D19*
G04 #@! TO.C,Q3*
X179048666Y-72000000D03*
X180948666Y-72000000D03*
X179998666Y-73875000D03*
G04 #@! TD*
D31*
G04 #@! TO.C,Q7*
X125778500Y-72837000D03*
X125778500Y-74737000D03*
X123903500Y-73787000D03*
G04 #@! TD*
D13*
G04 #@! TO.C,R8*
X196973000Y-78634000D03*
X198623000Y-78634000D03*
G04 #@! TD*
D32*
G04 #@! TO.C,Q8*
X131252000Y-75154000D03*
X129352000Y-75154000D03*
X130302000Y-73279000D03*
G04 #@! TD*
D24*
G04 #@! TO.C,J1*
X148478000Y-74041000D03*
D25*
X151018000Y-74041000D03*
X153558000Y-74041000D03*
G04 #@! TD*
D24*
G04 #@! TO.C,BT2*
X125984000Y-77724000D03*
D25*
X123444000Y-77724000D03*
G04 #@! TD*
D33*
G04 #@! TO.C,SW2*
X148426000Y-67437000D03*
X140626000Y-67437000D03*
G04 #@! TD*
D12*
G04 #@! TO.C,R16*
X179027666Y-70294000D03*
X179027666Y-68644000D03*
G04 #@! TD*
D13*
G04 #@! TO.C,R7*
X196973000Y-77110000D03*
X198623000Y-77110000D03*
G04 #@! TD*
D34*
G04 #@! TO.C,U2*
X121415000Y-86360000D03*
X121415000Y-85090000D03*
X121415000Y-83820000D03*
X121415000Y-82550000D03*
X126365000Y-82550000D03*
X126365000Y-83820000D03*
X126365000Y-85090000D03*
X126365000Y-86360000D03*
G04 #@! TD*
D16*
G04 #@! TO.C,D2*
X134908000Y-77216000D03*
X132808000Y-77216000D03*
G04 #@! TD*
D24*
G04 #@! TO.C,R3*
X155702000Y-65278000D03*
D25*
X158242000Y-65278000D03*
G04 #@! TD*
D35*
G04 #@! TO.C,Y1*
X118999000Y-86609000D03*
X118999000Y-84709000D03*
G04 #@! TD*
D15*
G04 #@! TO.C,R4*
X153035000Y-64136000D03*
X153035000Y-65786000D03*
G04 #@! TD*
D12*
G04 #@! TO.C,R14*
X171577000Y-70294000D03*
X171577000Y-68644000D03*
G04 #@! TD*
G04 #@! TO.C,R21*
X127635000Y-74676000D03*
X127635000Y-73026000D03*
G04 #@! TD*
D13*
G04 #@! TO.C,R9*
X196973000Y-80158000D03*
X198623000Y-80158000D03*
G04 #@! TD*
D36*
G04 #@! TO.C,C6*
X135316000Y-81341000D03*
X133416000Y-81341000D03*
G04 #@! TD*
D30*
G04 #@! TO.C,U3*
X173471000Y-77050000D03*
X173471000Y-78320000D03*
X173471000Y-79590000D03*
X173471000Y-80860000D03*
X173471000Y-82130000D03*
X173471000Y-83400000D03*
X173471000Y-84670000D03*
X173471000Y-85940000D03*
X168321000Y-85940000D03*
X168321000Y-84670000D03*
X168321000Y-83400000D03*
X168321000Y-82130000D03*
X168321000Y-80860000D03*
X168321000Y-79590000D03*
X168321000Y-78320000D03*
X168321000Y-77050000D03*
G04 #@! TD*
D26*
G04 #@! TO.C,C3*
X126378000Y-88011000D03*
X124828000Y-88011000D03*
G04 #@! TD*
D13*
G04 #@! TO.C,R6*
X196973000Y-75586000D03*
X198623000Y-75586000D03*
G04 #@! TD*
D23*
G04 #@! TO.C,R1*
X130047000Y-86360000D03*
X128397000Y-86360000D03*
G04 #@! TD*
D19*
G04 #@! TO.C,Q1*
X171600000Y-72000000D03*
X173500000Y-72000000D03*
X172550000Y-73875000D03*
G04 #@! TD*
D15*
G04 #@! TO.C,R2*
X190396000Y-68834000D03*
X190396000Y-70484000D03*
G04 #@! TD*
D37*
G04 #@! TO.C,C1*
X157734000Y-84211000D03*
X157734000Y-82661000D03*
G04 #@! TD*
D38*
G04 #@! TO.C,C5*
X188641000Y-75459000D03*
X190191000Y-75459000D03*
G04 #@! TD*
D22*
G04 #@! TO.C,C2*
X159512000Y-84452000D03*
X159512000Y-82552000D03*
G04 #@! TD*
D23*
G04 #@! TO.C,R19*
X146621000Y-79248000D03*
X144971000Y-79248000D03*
G04 #@! TD*
M02*
