G04 #@! TF.GenerationSoftware,KiCad,Pcbnew,8.0.4*
G04 #@! TF.CreationDate,2024-08-10T20:36:19+03:00*
G04 #@! TF.ProjectId,7clock,37636c6f-636b-42e6-9b69-6361645f7063,rev?*
G04 #@! TF.SameCoordinates,Original*
G04 #@! TF.FileFunction,Legend,Bot*
G04 #@! TF.FilePolarity,Positive*
%FSLAX46Y46*%
G04 Gerber Fmt 4.6, Leading zero omitted, Abs format (unit mm)*
G04 Created by KiCad (PCBNEW 8.0.4) date 2024-08-10 20:36:19*
%MOMM*%
%LPD*%
G01*
G04 APERTURE LIST*
%ADD10C,0.200000*%
%ADD11C,0.100000*%
%ADD12C,0.125000*%
%ADD13C,0.150000*%
%ADD14C,0.120000*%
G04 APERTURE END LIST*
D10*
X127519326Y-76575266D02*
X126757422Y-76575266D01*
X127138374Y-76956219D02*
X127138374Y-76194314D01*
D11*
X154794849Y-71816306D02*
X154842468Y-71911544D01*
X154842468Y-71911544D02*
X154842468Y-72054401D01*
X154842468Y-72054401D02*
X154794849Y-72197258D01*
X154794849Y-72197258D02*
X154699611Y-72292496D01*
X154699611Y-72292496D02*
X154604373Y-72340115D01*
X154604373Y-72340115D02*
X154413897Y-72387734D01*
X154413897Y-72387734D02*
X154271040Y-72387734D01*
X154271040Y-72387734D02*
X154080564Y-72340115D01*
X154080564Y-72340115D02*
X153985326Y-72292496D01*
X153985326Y-72292496D02*
X153890088Y-72197258D01*
X153890088Y-72197258D02*
X153842468Y-72054401D01*
X153842468Y-72054401D02*
X153842468Y-71959163D01*
X153842468Y-71959163D02*
X153890088Y-71816306D01*
X153890088Y-71816306D02*
X153937707Y-71768687D01*
X153937707Y-71768687D02*
X154271040Y-71768687D01*
X154271040Y-71768687D02*
X154271040Y-71959163D01*
X154509135Y-71340115D02*
X153842468Y-71340115D01*
X154413897Y-71340115D02*
X154461516Y-71292496D01*
X154461516Y-71292496D02*
X154509135Y-71197258D01*
X154509135Y-71197258D02*
X154509135Y-71054401D01*
X154509135Y-71054401D02*
X154461516Y-70959163D01*
X154461516Y-70959163D02*
X154366278Y-70911544D01*
X154366278Y-70911544D02*
X153842468Y-70911544D01*
X153842468Y-70006782D02*
X154842468Y-70006782D01*
X153890088Y-70006782D02*
X153842468Y-70102020D01*
X153842468Y-70102020D02*
X153842468Y-70292496D01*
X153842468Y-70292496D02*
X153890088Y-70387734D01*
X153890088Y-70387734D02*
X153937707Y-70435353D01*
X153937707Y-70435353D02*
X154032945Y-70482972D01*
X154032945Y-70482972D02*
X154318659Y-70482972D01*
X154318659Y-70482972D02*
X154413897Y-70435353D01*
X154413897Y-70435353D02*
X154461516Y-70387734D01*
X154461516Y-70387734D02*
X154509135Y-70292496D01*
X154509135Y-70292496D02*
X154509135Y-70102020D01*
X154509135Y-70102020D02*
X154461516Y-70006782D01*
X153232524Y-72340115D02*
X152423001Y-72340115D01*
X152423001Y-72340115D02*
X152327763Y-72292496D01*
X152327763Y-72292496D02*
X152280144Y-72244877D01*
X152280144Y-72244877D02*
X152232524Y-72149639D01*
X152232524Y-72149639D02*
X152232524Y-71959163D01*
X152232524Y-71959163D02*
X152280144Y-71863925D01*
X152280144Y-71863925D02*
X152327763Y-71816306D01*
X152327763Y-71816306D02*
X152423001Y-71768687D01*
X152423001Y-71768687D02*
X153232524Y-71768687D01*
X152232524Y-71292496D02*
X153232524Y-71292496D01*
X153232524Y-71292496D02*
X153232524Y-70911544D01*
X153232524Y-70911544D02*
X153184905Y-70816306D01*
X153184905Y-70816306D02*
X153137286Y-70768687D01*
X153137286Y-70768687D02*
X153042048Y-70721068D01*
X153042048Y-70721068D02*
X152899191Y-70721068D01*
X152899191Y-70721068D02*
X152803953Y-70768687D01*
X152803953Y-70768687D02*
X152756334Y-70816306D01*
X152756334Y-70816306D02*
X152708715Y-70911544D01*
X152708715Y-70911544D02*
X152708715Y-71292496D01*
X152232524Y-70292496D02*
X153232524Y-70292496D01*
X153232524Y-70292496D02*
X153232524Y-70054401D01*
X153232524Y-70054401D02*
X153184905Y-69911544D01*
X153184905Y-69911544D02*
X153089667Y-69816306D01*
X153089667Y-69816306D02*
X152994429Y-69768687D01*
X152994429Y-69768687D02*
X152803953Y-69721068D01*
X152803953Y-69721068D02*
X152661096Y-69721068D01*
X152661096Y-69721068D02*
X152470620Y-69768687D01*
X152470620Y-69768687D02*
X152375382Y-69816306D01*
X152375382Y-69816306D02*
X152280144Y-69911544D01*
X152280144Y-69911544D02*
X152232524Y-70054401D01*
X152232524Y-70054401D02*
X152232524Y-70292496D01*
X152232524Y-69292496D02*
X153232524Y-69292496D01*
X151622580Y-72435353D02*
X151622580Y-71816306D01*
X151622580Y-71816306D02*
X151241628Y-72149639D01*
X151241628Y-72149639D02*
X151241628Y-72006782D01*
X151241628Y-72006782D02*
X151194009Y-71911544D01*
X151194009Y-71911544D02*
X151146390Y-71863925D01*
X151146390Y-71863925D02*
X151051152Y-71816306D01*
X151051152Y-71816306D02*
X150813057Y-71816306D01*
X150813057Y-71816306D02*
X150717819Y-71863925D01*
X150717819Y-71863925D02*
X150670200Y-71911544D01*
X150670200Y-71911544D02*
X150622580Y-72006782D01*
X150622580Y-72006782D02*
X150622580Y-72292496D01*
X150622580Y-72292496D02*
X150670200Y-72387734D01*
X150670200Y-72387734D02*
X150717819Y-72435353D01*
X150717819Y-71387734D02*
X150670200Y-71340115D01*
X150670200Y-71340115D02*
X150622580Y-71387734D01*
X150622580Y-71387734D02*
X150670200Y-71435353D01*
X150670200Y-71435353D02*
X150717819Y-71387734D01*
X150717819Y-71387734D02*
X150622580Y-71387734D01*
X151622580Y-71006782D02*
X151622580Y-70387735D01*
X151622580Y-70387735D02*
X151241628Y-70721068D01*
X151241628Y-70721068D02*
X151241628Y-70578211D01*
X151241628Y-70578211D02*
X151194009Y-70482973D01*
X151194009Y-70482973D02*
X151146390Y-70435354D01*
X151146390Y-70435354D02*
X151051152Y-70387735D01*
X151051152Y-70387735D02*
X150813057Y-70387735D01*
X150813057Y-70387735D02*
X150717819Y-70435354D01*
X150717819Y-70435354D02*
X150670200Y-70482973D01*
X150670200Y-70482973D02*
X150622580Y-70578211D01*
X150622580Y-70578211D02*
X150622580Y-70863925D01*
X150622580Y-70863925D02*
X150670200Y-70959163D01*
X150670200Y-70959163D02*
X150717819Y-71006782D01*
X151622580Y-70102020D02*
X150622580Y-69768687D01*
X150622580Y-69768687D02*
X151622580Y-69435354D01*
D10*
X121263409Y-77157006D02*
X121311028Y-77299863D01*
X121311028Y-77299863D02*
X121358647Y-77347482D01*
X121358647Y-77347482D02*
X121453885Y-77395101D01*
X121453885Y-77395101D02*
X121596742Y-77395101D01*
X121596742Y-77395101D02*
X121691980Y-77347482D01*
X121691980Y-77347482D02*
X121739600Y-77299863D01*
X121739600Y-77299863D02*
X121787219Y-77204625D01*
X121787219Y-77204625D02*
X121787219Y-76823673D01*
X121787219Y-76823673D02*
X120787219Y-76823673D01*
X120787219Y-76823673D02*
X120787219Y-77157006D01*
X120787219Y-77157006D02*
X120834838Y-77252244D01*
X120834838Y-77252244D02*
X120882457Y-77299863D01*
X120882457Y-77299863D02*
X120977695Y-77347482D01*
X120977695Y-77347482D02*
X121072933Y-77347482D01*
X121072933Y-77347482D02*
X121168171Y-77299863D01*
X121168171Y-77299863D02*
X121215790Y-77252244D01*
X121215790Y-77252244D02*
X121263409Y-77157006D01*
X121263409Y-77157006D02*
X121263409Y-76823673D01*
X121501504Y-77776054D02*
X121501504Y-78252244D01*
X121787219Y-77680816D02*
X120787219Y-78014149D01*
X120787219Y-78014149D02*
X121787219Y-78347482D01*
X120787219Y-78537959D02*
X120787219Y-79109387D01*
X121787219Y-78823673D02*
X120787219Y-78823673D01*
D11*
X144920687Y-65277419D02*
X145254020Y-64801228D01*
X145492115Y-65277419D02*
X145492115Y-64277419D01*
X145492115Y-64277419D02*
X145111163Y-64277419D01*
X145111163Y-64277419D02*
X145015925Y-64325038D01*
X145015925Y-64325038D02*
X144968306Y-64372657D01*
X144968306Y-64372657D02*
X144920687Y-64467895D01*
X144920687Y-64467895D02*
X144920687Y-64610752D01*
X144920687Y-64610752D02*
X144968306Y-64705990D01*
X144968306Y-64705990D02*
X145015925Y-64753609D01*
X145015925Y-64753609D02*
X145111163Y-64801228D01*
X145111163Y-64801228D02*
X145492115Y-64801228D01*
X144111163Y-65229800D02*
X144206401Y-65277419D01*
X144206401Y-65277419D02*
X144396877Y-65277419D01*
X144396877Y-65277419D02*
X144492115Y-65229800D01*
X144492115Y-65229800D02*
X144539734Y-65134561D01*
X144539734Y-65134561D02*
X144539734Y-64753609D01*
X144539734Y-64753609D02*
X144492115Y-64658371D01*
X144492115Y-64658371D02*
X144396877Y-64610752D01*
X144396877Y-64610752D02*
X144206401Y-64610752D01*
X144206401Y-64610752D02*
X144111163Y-64658371D01*
X144111163Y-64658371D02*
X144063544Y-64753609D01*
X144063544Y-64753609D02*
X144063544Y-64848847D01*
X144063544Y-64848847D02*
X144539734Y-64944085D01*
X143682591Y-65229800D02*
X143587353Y-65277419D01*
X143587353Y-65277419D02*
X143396877Y-65277419D01*
X143396877Y-65277419D02*
X143301639Y-65229800D01*
X143301639Y-65229800D02*
X143254020Y-65134561D01*
X143254020Y-65134561D02*
X143254020Y-65086942D01*
X143254020Y-65086942D02*
X143301639Y-64991704D01*
X143301639Y-64991704D02*
X143396877Y-64944085D01*
X143396877Y-64944085D02*
X143539734Y-64944085D01*
X143539734Y-64944085D02*
X143634972Y-64896466D01*
X143634972Y-64896466D02*
X143682591Y-64801228D01*
X143682591Y-64801228D02*
X143682591Y-64753609D01*
X143682591Y-64753609D02*
X143634972Y-64658371D01*
X143634972Y-64658371D02*
X143539734Y-64610752D01*
X143539734Y-64610752D02*
X143396877Y-64610752D01*
X143396877Y-64610752D02*
X143301639Y-64658371D01*
X142444496Y-65229800D02*
X142539734Y-65277419D01*
X142539734Y-65277419D02*
X142730210Y-65277419D01*
X142730210Y-65277419D02*
X142825448Y-65229800D01*
X142825448Y-65229800D02*
X142873067Y-65134561D01*
X142873067Y-65134561D02*
X142873067Y-64753609D01*
X142873067Y-64753609D02*
X142825448Y-64658371D01*
X142825448Y-64658371D02*
X142730210Y-64610752D01*
X142730210Y-64610752D02*
X142539734Y-64610752D01*
X142539734Y-64610752D02*
X142444496Y-64658371D01*
X142444496Y-64658371D02*
X142396877Y-64753609D01*
X142396877Y-64753609D02*
X142396877Y-64848847D01*
X142396877Y-64848847D02*
X142873067Y-64944085D01*
X142111162Y-64610752D02*
X141730210Y-64610752D01*
X141968305Y-64277419D02*
X141968305Y-65134561D01*
X141968305Y-65134561D02*
X141920686Y-65229800D01*
X141920686Y-65229800D02*
X141825448Y-65277419D01*
X141825448Y-65277419D02*
X141730210Y-65277419D01*
D10*
X137933326Y-67939219D02*
X137933326Y-66939219D01*
X137933326Y-66939219D02*
X137695231Y-66939219D01*
X137695231Y-66939219D02*
X137552374Y-66986838D01*
X137552374Y-66986838D02*
X137457136Y-67082076D01*
X137457136Y-67082076D02*
X137409517Y-67177314D01*
X137409517Y-67177314D02*
X137361898Y-67367790D01*
X137361898Y-67367790D02*
X137361898Y-67510647D01*
X137361898Y-67510647D02*
X137409517Y-67701123D01*
X137409517Y-67701123D02*
X137457136Y-67796361D01*
X137457136Y-67796361D02*
X137552374Y-67891600D01*
X137552374Y-67891600D02*
X137695231Y-67939219D01*
X137695231Y-67939219D02*
X137933326Y-67939219D01*
X136361898Y-67843980D02*
X136409517Y-67891600D01*
X136409517Y-67891600D02*
X136552374Y-67939219D01*
X136552374Y-67939219D02*
X136647612Y-67939219D01*
X136647612Y-67939219D02*
X136790469Y-67891600D01*
X136790469Y-67891600D02*
X136885707Y-67796361D01*
X136885707Y-67796361D02*
X136933326Y-67701123D01*
X136933326Y-67701123D02*
X136980945Y-67510647D01*
X136980945Y-67510647D02*
X136980945Y-67367790D01*
X136980945Y-67367790D02*
X136933326Y-67177314D01*
X136933326Y-67177314D02*
X136885707Y-67082076D01*
X136885707Y-67082076D02*
X136790469Y-66986838D01*
X136790469Y-66986838D02*
X136647612Y-66939219D01*
X136647612Y-66939219D02*
X136552374Y-66939219D01*
X136552374Y-66939219D02*
X136409517Y-66986838D01*
X136409517Y-66986838D02*
X136361898Y-67034457D01*
X138695326Y-73273266D02*
X137933422Y-73273266D01*
X138314374Y-73654219D02*
X138314374Y-72892314D01*
D12*
X158969478Y-63371119D02*
X159445668Y-63371119D01*
X159445668Y-63371119D02*
X159445668Y-62371119D01*
X158636144Y-63371119D02*
X158636144Y-62371119D01*
X158636144Y-62371119D02*
X158398049Y-62371119D01*
X158398049Y-62371119D02*
X158255192Y-62418738D01*
X158255192Y-62418738D02*
X158159954Y-62513976D01*
X158159954Y-62513976D02*
X158112335Y-62609214D01*
X158112335Y-62609214D02*
X158064716Y-62799690D01*
X158064716Y-62799690D02*
X158064716Y-62942547D01*
X158064716Y-62942547D02*
X158112335Y-63133023D01*
X158112335Y-63133023D02*
X158159954Y-63228261D01*
X158159954Y-63228261D02*
X158255192Y-63323500D01*
X158255192Y-63323500D02*
X158398049Y-63371119D01*
X158398049Y-63371119D02*
X158636144Y-63371119D01*
X157064716Y-63371119D02*
X157398049Y-62894928D01*
X157636144Y-63371119D02*
X157636144Y-62371119D01*
X157636144Y-62371119D02*
X157255192Y-62371119D01*
X157255192Y-62371119D02*
X157159954Y-62418738D01*
X157159954Y-62418738D02*
X157112335Y-62466357D01*
X157112335Y-62466357D02*
X157064716Y-62561595D01*
X157064716Y-62561595D02*
X157064716Y-62704452D01*
X157064716Y-62704452D02*
X157112335Y-62799690D01*
X157112335Y-62799690D02*
X157159954Y-62847309D01*
X157159954Y-62847309D02*
X157255192Y-62894928D01*
X157255192Y-62894928D02*
X157636144Y-62894928D01*
D11*
X149411206Y-90743693D02*
X149363587Y-90648455D01*
X149363587Y-90648455D02*
X149363587Y-90505598D01*
X149363587Y-90505598D02*
X149411206Y-90362741D01*
X149411206Y-90362741D02*
X149506444Y-90267503D01*
X149506444Y-90267503D02*
X149601682Y-90219884D01*
X149601682Y-90219884D02*
X149792158Y-90172265D01*
X149792158Y-90172265D02*
X149935015Y-90172265D01*
X149935015Y-90172265D02*
X150125491Y-90219884D01*
X150125491Y-90219884D02*
X150220729Y-90267503D01*
X150220729Y-90267503D02*
X150315968Y-90362741D01*
X150315968Y-90362741D02*
X150363587Y-90505598D01*
X150363587Y-90505598D02*
X150363587Y-90600836D01*
X150363587Y-90600836D02*
X150315968Y-90743693D01*
X150315968Y-90743693D02*
X150268348Y-90791312D01*
X150268348Y-90791312D02*
X149935015Y-90791312D01*
X149935015Y-90791312D02*
X149935015Y-90600836D01*
X149696920Y-91219884D02*
X150363587Y-91219884D01*
X149792158Y-91219884D02*
X149744539Y-91267503D01*
X149744539Y-91267503D02*
X149696920Y-91362741D01*
X149696920Y-91362741D02*
X149696920Y-91505598D01*
X149696920Y-91505598D02*
X149744539Y-91600836D01*
X149744539Y-91600836D02*
X149839777Y-91648455D01*
X149839777Y-91648455D02*
X150363587Y-91648455D01*
X150363587Y-92553217D02*
X149363587Y-92553217D01*
X150315968Y-92553217D02*
X150363587Y-92457979D01*
X150363587Y-92457979D02*
X150363587Y-92267503D01*
X150363587Y-92267503D02*
X150315968Y-92172265D01*
X150315968Y-92172265D02*
X150268348Y-92124646D01*
X150268348Y-92124646D02*
X150173110Y-92077027D01*
X150173110Y-92077027D02*
X149887396Y-92077027D01*
X149887396Y-92077027D02*
X149792158Y-92124646D01*
X149792158Y-92124646D02*
X149744539Y-92172265D01*
X149744539Y-92172265D02*
X149696920Y-92267503D01*
X149696920Y-92267503D02*
X149696920Y-92457979D01*
X149696920Y-92457979D02*
X149744539Y-92553217D01*
X150973531Y-90077027D02*
X150973531Y-90648455D01*
X151973531Y-90362741D02*
X150973531Y-90362741D01*
X150973531Y-90886551D02*
X151973531Y-91553217D01*
X150973531Y-91553217D02*
X151973531Y-90886551D01*
X153583475Y-90791312D02*
X153107284Y-90457979D01*
X153583475Y-90219884D02*
X152583475Y-90219884D01*
X152583475Y-90219884D02*
X152583475Y-90600836D01*
X152583475Y-90600836D02*
X152631094Y-90696074D01*
X152631094Y-90696074D02*
X152678713Y-90743693D01*
X152678713Y-90743693D02*
X152773951Y-90791312D01*
X152773951Y-90791312D02*
X152916808Y-90791312D01*
X152916808Y-90791312D02*
X153012046Y-90743693D01*
X153012046Y-90743693D02*
X153059665Y-90696074D01*
X153059665Y-90696074D02*
X153107284Y-90600836D01*
X153107284Y-90600836D02*
X153107284Y-90219884D01*
X152583475Y-91124646D02*
X153583475Y-91791312D01*
X152583475Y-91791312D02*
X153583475Y-91124646D01*
X154193419Y-90124646D02*
X154193419Y-90743693D01*
X154193419Y-90743693D02*
X154574371Y-90410360D01*
X154574371Y-90410360D02*
X154574371Y-90553217D01*
X154574371Y-90553217D02*
X154621990Y-90648455D01*
X154621990Y-90648455D02*
X154669609Y-90696074D01*
X154669609Y-90696074D02*
X154764847Y-90743693D01*
X154764847Y-90743693D02*
X155002942Y-90743693D01*
X155002942Y-90743693D02*
X155098180Y-90696074D01*
X155098180Y-90696074D02*
X155145800Y-90648455D01*
X155145800Y-90648455D02*
X155193419Y-90553217D01*
X155193419Y-90553217D02*
X155193419Y-90267503D01*
X155193419Y-90267503D02*
X155145800Y-90172265D01*
X155145800Y-90172265D02*
X155098180Y-90124646D01*
X155098180Y-91172265D02*
X155145800Y-91219884D01*
X155145800Y-91219884D02*
X155193419Y-91172265D01*
X155193419Y-91172265D02*
X155145800Y-91124646D01*
X155145800Y-91124646D02*
X155098180Y-91172265D01*
X155098180Y-91172265D02*
X155193419Y-91172265D01*
X154193419Y-91553217D02*
X154193419Y-92172264D01*
X154193419Y-92172264D02*
X154574371Y-91838931D01*
X154574371Y-91838931D02*
X154574371Y-91981788D01*
X154574371Y-91981788D02*
X154621990Y-92077026D01*
X154621990Y-92077026D02*
X154669609Y-92124645D01*
X154669609Y-92124645D02*
X154764847Y-92172264D01*
X154764847Y-92172264D02*
X155002942Y-92172264D01*
X155002942Y-92172264D02*
X155098180Y-92124645D01*
X155098180Y-92124645D02*
X155145800Y-92077026D01*
X155145800Y-92077026D02*
X155193419Y-91981788D01*
X155193419Y-91981788D02*
X155193419Y-91696074D01*
X155193419Y-91696074D02*
X155145800Y-91600836D01*
X155145800Y-91600836D02*
X155098180Y-91553217D01*
X154193419Y-92457979D02*
X155193419Y-92791312D01*
X155193419Y-92791312D02*
X154193419Y-93124645D01*
D13*
X134726819Y-72001142D02*
X134250628Y-71667809D01*
X134726819Y-71429714D02*
X133726819Y-71429714D01*
X133726819Y-71429714D02*
X133726819Y-71810666D01*
X133726819Y-71810666D02*
X133774438Y-71905904D01*
X133774438Y-71905904D02*
X133822057Y-71953523D01*
X133822057Y-71953523D02*
X133917295Y-72001142D01*
X133917295Y-72001142D02*
X134060152Y-72001142D01*
X134060152Y-72001142D02*
X134155390Y-71953523D01*
X134155390Y-71953523D02*
X134203009Y-71905904D01*
X134203009Y-71905904D02*
X134250628Y-71810666D01*
X134250628Y-71810666D02*
X134250628Y-71429714D01*
X133822057Y-72382095D02*
X133774438Y-72429714D01*
X133774438Y-72429714D02*
X133726819Y-72524952D01*
X133726819Y-72524952D02*
X133726819Y-72763047D01*
X133726819Y-72763047D02*
X133774438Y-72858285D01*
X133774438Y-72858285D02*
X133822057Y-72905904D01*
X133822057Y-72905904D02*
X133917295Y-72953523D01*
X133917295Y-72953523D02*
X134012533Y-72953523D01*
X134012533Y-72953523D02*
X134155390Y-72905904D01*
X134155390Y-72905904D02*
X134726819Y-72334476D01*
X134726819Y-72334476D02*
X134726819Y-72953523D01*
X133822057Y-73334476D02*
X133774438Y-73382095D01*
X133774438Y-73382095D02*
X133726819Y-73477333D01*
X133726819Y-73477333D02*
X133726819Y-73715428D01*
X133726819Y-73715428D02*
X133774438Y-73810666D01*
X133774438Y-73810666D02*
X133822057Y-73858285D01*
X133822057Y-73858285D02*
X133917295Y-73905904D01*
X133917295Y-73905904D02*
X134012533Y-73905904D01*
X134012533Y-73905904D02*
X134155390Y-73858285D01*
X134155390Y-73858285D02*
X134726819Y-73286857D01*
X134726819Y-73286857D02*
X134726819Y-73905904D01*
X201361857Y-86701819D02*
X201695190Y-86225628D01*
X201933285Y-86701819D02*
X201933285Y-85701819D01*
X201933285Y-85701819D02*
X201552333Y-85701819D01*
X201552333Y-85701819D02*
X201457095Y-85749438D01*
X201457095Y-85749438D02*
X201409476Y-85797057D01*
X201409476Y-85797057D02*
X201361857Y-85892295D01*
X201361857Y-85892295D02*
X201361857Y-86035152D01*
X201361857Y-86035152D02*
X201409476Y-86130390D01*
X201409476Y-86130390D02*
X201457095Y-86178009D01*
X201457095Y-86178009D02*
X201552333Y-86225628D01*
X201552333Y-86225628D02*
X201933285Y-86225628D01*
X200409476Y-86701819D02*
X200980904Y-86701819D01*
X200695190Y-86701819D02*
X200695190Y-85701819D01*
X200695190Y-85701819D02*
X200790428Y-85844676D01*
X200790428Y-85844676D02*
X200885666Y-85939914D01*
X200885666Y-85939914D02*
X200980904Y-85987533D01*
X200076142Y-85701819D02*
X199457095Y-85701819D01*
X199457095Y-85701819D02*
X199790428Y-86082771D01*
X199790428Y-86082771D02*
X199647571Y-86082771D01*
X199647571Y-86082771D02*
X199552333Y-86130390D01*
X199552333Y-86130390D02*
X199504714Y-86178009D01*
X199504714Y-86178009D02*
X199457095Y-86273247D01*
X199457095Y-86273247D02*
X199457095Y-86511342D01*
X199457095Y-86511342D02*
X199504714Y-86606580D01*
X199504714Y-86606580D02*
X199552333Y-86654200D01*
X199552333Y-86654200D02*
X199647571Y-86701819D01*
X199647571Y-86701819D02*
X199933285Y-86701819D01*
X199933285Y-86701819D02*
X200028523Y-86654200D01*
X200028523Y-86654200D02*
X200076142Y-86606580D01*
X130397238Y-81576057D02*
X130492476Y-81528438D01*
X130492476Y-81528438D02*
X130587714Y-81433200D01*
X130587714Y-81433200D02*
X130730571Y-81290342D01*
X130730571Y-81290342D02*
X130825809Y-81242723D01*
X130825809Y-81242723D02*
X130921047Y-81242723D01*
X130873428Y-81480819D02*
X130968666Y-81433200D01*
X130968666Y-81433200D02*
X131063904Y-81337961D01*
X131063904Y-81337961D02*
X131111523Y-81147485D01*
X131111523Y-81147485D02*
X131111523Y-80814152D01*
X131111523Y-80814152D02*
X131063904Y-80623676D01*
X131063904Y-80623676D02*
X130968666Y-80528438D01*
X130968666Y-80528438D02*
X130873428Y-80480819D01*
X130873428Y-80480819D02*
X130682952Y-80480819D01*
X130682952Y-80480819D02*
X130587714Y-80528438D01*
X130587714Y-80528438D02*
X130492476Y-80623676D01*
X130492476Y-80623676D02*
X130444857Y-80814152D01*
X130444857Y-80814152D02*
X130444857Y-81147485D01*
X130444857Y-81147485D02*
X130492476Y-81337961D01*
X130492476Y-81337961D02*
X130587714Y-81433200D01*
X130587714Y-81433200D02*
X130682952Y-81480819D01*
X130682952Y-81480819D02*
X130873428Y-81480819D01*
X129587714Y-80480819D02*
X129778190Y-80480819D01*
X129778190Y-80480819D02*
X129873428Y-80528438D01*
X129873428Y-80528438D02*
X129921047Y-80576057D01*
X129921047Y-80576057D02*
X130016285Y-80718914D01*
X130016285Y-80718914D02*
X130063904Y-80909390D01*
X130063904Y-80909390D02*
X130063904Y-81290342D01*
X130063904Y-81290342D02*
X130016285Y-81385580D01*
X130016285Y-81385580D02*
X129968666Y-81433200D01*
X129968666Y-81433200D02*
X129873428Y-81480819D01*
X129873428Y-81480819D02*
X129682952Y-81480819D01*
X129682952Y-81480819D02*
X129587714Y-81433200D01*
X129587714Y-81433200D02*
X129540095Y-81385580D01*
X129540095Y-81385580D02*
X129492476Y-81290342D01*
X129492476Y-81290342D02*
X129492476Y-81052247D01*
X129492476Y-81052247D02*
X129540095Y-80957009D01*
X129540095Y-80957009D02*
X129587714Y-80909390D01*
X129587714Y-80909390D02*
X129682952Y-80861771D01*
X129682952Y-80861771D02*
X129873428Y-80861771D01*
X129873428Y-80861771D02*
X129968666Y-80909390D01*
X129968666Y-80909390D02*
X130016285Y-80957009D01*
X130016285Y-80957009D02*
X130063904Y-81052247D01*
X162300819Y-72343142D02*
X161824628Y-72009809D01*
X162300819Y-71771714D02*
X161300819Y-71771714D01*
X161300819Y-71771714D02*
X161300819Y-72152666D01*
X161300819Y-72152666D02*
X161348438Y-72247904D01*
X161348438Y-72247904D02*
X161396057Y-72295523D01*
X161396057Y-72295523D02*
X161491295Y-72343142D01*
X161491295Y-72343142D02*
X161634152Y-72343142D01*
X161634152Y-72343142D02*
X161729390Y-72295523D01*
X161729390Y-72295523D02*
X161777009Y-72247904D01*
X161777009Y-72247904D02*
X161824628Y-72152666D01*
X161824628Y-72152666D02*
X161824628Y-71771714D01*
X162300819Y-73295523D02*
X162300819Y-72724095D01*
X162300819Y-73009809D02*
X161300819Y-73009809D01*
X161300819Y-73009809D02*
X161443676Y-72914571D01*
X161443676Y-72914571D02*
X161538914Y-72819333D01*
X161538914Y-72819333D02*
X161586533Y-72724095D01*
X161729390Y-73866952D02*
X161681771Y-73771714D01*
X161681771Y-73771714D02*
X161634152Y-73724095D01*
X161634152Y-73724095D02*
X161538914Y-73676476D01*
X161538914Y-73676476D02*
X161491295Y-73676476D01*
X161491295Y-73676476D02*
X161396057Y-73724095D01*
X161396057Y-73724095D02*
X161348438Y-73771714D01*
X161348438Y-73771714D02*
X161300819Y-73866952D01*
X161300819Y-73866952D02*
X161300819Y-74057428D01*
X161300819Y-74057428D02*
X161348438Y-74152666D01*
X161348438Y-74152666D02*
X161396057Y-74200285D01*
X161396057Y-74200285D02*
X161491295Y-74247904D01*
X161491295Y-74247904D02*
X161538914Y-74247904D01*
X161538914Y-74247904D02*
X161634152Y-74200285D01*
X161634152Y-74200285D02*
X161681771Y-74152666D01*
X161681771Y-74152666D02*
X161729390Y-74057428D01*
X161729390Y-74057428D02*
X161729390Y-73866952D01*
X161729390Y-73866952D02*
X161777009Y-73771714D01*
X161777009Y-73771714D02*
X161824628Y-73724095D01*
X161824628Y-73724095D02*
X161919866Y-73676476D01*
X161919866Y-73676476D02*
X162110342Y-73676476D01*
X162110342Y-73676476D02*
X162205580Y-73724095D01*
X162205580Y-73724095D02*
X162253200Y-73771714D01*
X162253200Y-73771714D02*
X162300819Y-73866952D01*
X162300819Y-73866952D02*
X162300819Y-74057428D01*
X162300819Y-74057428D02*
X162253200Y-74152666D01*
X162253200Y-74152666D02*
X162205580Y-74200285D01*
X162205580Y-74200285D02*
X162110342Y-74247904D01*
X162110342Y-74247904D02*
X161919866Y-74247904D01*
X161919866Y-74247904D02*
X161824628Y-74200285D01*
X161824628Y-74200285D02*
X161777009Y-74152666D01*
X161777009Y-74152666D02*
X161729390Y-74057428D01*
X137136094Y-75638819D02*
X137136094Y-74638819D01*
X137136094Y-74638819D02*
X136897999Y-74638819D01*
X136897999Y-74638819D02*
X136755142Y-74686438D01*
X136755142Y-74686438D02*
X136659904Y-74781676D01*
X136659904Y-74781676D02*
X136612285Y-74876914D01*
X136612285Y-74876914D02*
X136564666Y-75067390D01*
X136564666Y-75067390D02*
X136564666Y-75210247D01*
X136564666Y-75210247D02*
X136612285Y-75400723D01*
X136612285Y-75400723D02*
X136659904Y-75495961D01*
X136659904Y-75495961D02*
X136755142Y-75591200D01*
X136755142Y-75591200D02*
X136897999Y-75638819D01*
X136897999Y-75638819D02*
X137136094Y-75638819D01*
X135612285Y-75638819D02*
X136183713Y-75638819D01*
X135897999Y-75638819D02*
X135897999Y-74638819D01*
X135897999Y-74638819D02*
X135993237Y-74781676D01*
X135993237Y-74781676D02*
X136088475Y-74876914D01*
X136088475Y-74876914D02*
X136183713Y-74924533D01*
X181683819Y-68826142D02*
X181207628Y-68492809D01*
X181683819Y-68254714D02*
X180683819Y-68254714D01*
X180683819Y-68254714D02*
X180683819Y-68635666D01*
X180683819Y-68635666D02*
X180731438Y-68730904D01*
X180731438Y-68730904D02*
X180779057Y-68778523D01*
X180779057Y-68778523D02*
X180874295Y-68826142D01*
X180874295Y-68826142D02*
X181017152Y-68826142D01*
X181017152Y-68826142D02*
X181112390Y-68778523D01*
X181112390Y-68778523D02*
X181160009Y-68730904D01*
X181160009Y-68730904D02*
X181207628Y-68635666D01*
X181207628Y-68635666D02*
X181207628Y-68254714D01*
X181683819Y-69778523D02*
X181683819Y-69207095D01*
X181683819Y-69492809D02*
X180683819Y-69492809D01*
X180683819Y-69492809D02*
X180826676Y-69397571D01*
X180826676Y-69397571D02*
X180921914Y-69302333D01*
X180921914Y-69302333D02*
X180969533Y-69207095D01*
X180683819Y-70111857D02*
X180683819Y-70778523D01*
X180683819Y-70778523D02*
X181683819Y-70349952D01*
X136056666Y-90624819D02*
X136532856Y-90624819D01*
X136532856Y-90624819D02*
X136532856Y-89624819D01*
X135199523Y-90624819D02*
X135770951Y-90624819D01*
X135485237Y-90624819D02*
X135485237Y-89624819D01*
X135485237Y-89624819D02*
X135580475Y-89767676D01*
X135580475Y-89767676D02*
X135675713Y-89862914D01*
X135675713Y-89862914D02*
X135770951Y-89910533D01*
X135090819Y-78547095D02*
X135900342Y-78547095D01*
X135900342Y-78547095D02*
X135995580Y-78594714D01*
X135995580Y-78594714D02*
X136043200Y-78642333D01*
X136043200Y-78642333D02*
X136090819Y-78737571D01*
X136090819Y-78737571D02*
X136090819Y-78928047D01*
X136090819Y-78928047D02*
X136043200Y-79023285D01*
X136043200Y-79023285D02*
X135995580Y-79070904D01*
X135995580Y-79070904D02*
X135900342Y-79118523D01*
X135900342Y-79118523D02*
X135090819Y-79118523D01*
X135090819Y-80070904D02*
X135090819Y-79594714D01*
X135090819Y-79594714D02*
X135567009Y-79547095D01*
X135567009Y-79547095D02*
X135519390Y-79594714D01*
X135519390Y-79594714D02*
X135471771Y-79689952D01*
X135471771Y-79689952D02*
X135471771Y-79928047D01*
X135471771Y-79928047D02*
X135519390Y-80023285D01*
X135519390Y-80023285D02*
X135567009Y-80070904D01*
X135567009Y-80070904D02*
X135662247Y-80118523D01*
X135662247Y-80118523D02*
X135900342Y-80118523D01*
X135900342Y-80118523D02*
X135995580Y-80070904D01*
X135995580Y-80070904D02*
X136043200Y-80023285D01*
X136043200Y-80023285D02*
X136090819Y-79928047D01*
X136090819Y-79928047D02*
X136090819Y-79689952D01*
X136090819Y-79689952D02*
X136043200Y-79594714D01*
X136043200Y-79594714D02*
X135995580Y-79547095D01*
X175493390Y-74698761D02*
X175445771Y-74603523D01*
X175445771Y-74603523D02*
X175350533Y-74508285D01*
X175350533Y-74508285D02*
X175207675Y-74365428D01*
X175207675Y-74365428D02*
X175160056Y-74270190D01*
X175160056Y-74270190D02*
X175160056Y-74174952D01*
X175398152Y-74222571D02*
X175350533Y-74127333D01*
X175350533Y-74127333D02*
X175255294Y-74032095D01*
X175255294Y-74032095D02*
X175064818Y-73984476D01*
X175064818Y-73984476D02*
X174731485Y-73984476D01*
X174731485Y-73984476D02*
X174541009Y-74032095D01*
X174541009Y-74032095D02*
X174445771Y-74127333D01*
X174445771Y-74127333D02*
X174398152Y-74222571D01*
X174398152Y-74222571D02*
X174398152Y-74413047D01*
X174398152Y-74413047D02*
X174445771Y-74508285D01*
X174445771Y-74508285D02*
X174541009Y-74603523D01*
X174541009Y-74603523D02*
X174731485Y-74651142D01*
X174731485Y-74651142D02*
X175064818Y-74651142D01*
X175064818Y-74651142D02*
X175255294Y-74603523D01*
X175255294Y-74603523D02*
X175350533Y-74508285D01*
X175350533Y-74508285D02*
X175398152Y-74413047D01*
X175398152Y-74413047D02*
X175398152Y-74222571D01*
X174493390Y-75032095D02*
X174445771Y-75079714D01*
X174445771Y-75079714D02*
X174398152Y-75174952D01*
X174398152Y-75174952D02*
X174398152Y-75413047D01*
X174398152Y-75413047D02*
X174445771Y-75508285D01*
X174445771Y-75508285D02*
X174493390Y-75555904D01*
X174493390Y-75555904D02*
X174588628Y-75603523D01*
X174588628Y-75603523D02*
X174683866Y-75603523D01*
X174683866Y-75603523D02*
X174826723Y-75555904D01*
X174826723Y-75555904D02*
X175398152Y-74984476D01*
X175398152Y-74984476D02*
X175398152Y-75603523D01*
X182942057Y-74698761D02*
X182894438Y-74603523D01*
X182894438Y-74603523D02*
X182799200Y-74508285D01*
X182799200Y-74508285D02*
X182656342Y-74365428D01*
X182656342Y-74365428D02*
X182608723Y-74270190D01*
X182608723Y-74270190D02*
X182608723Y-74174952D01*
X182846819Y-74222571D02*
X182799200Y-74127333D01*
X182799200Y-74127333D02*
X182703961Y-74032095D01*
X182703961Y-74032095D02*
X182513485Y-73984476D01*
X182513485Y-73984476D02*
X182180152Y-73984476D01*
X182180152Y-73984476D02*
X181989676Y-74032095D01*
X181989676Y-74032095D02*
X181894438Y-74127333D01*
X181894438Y-74127333D02*
X181846819Y-74222571D01*
X181846819Y-74222571D02*
X181846819Y-74413047D01*
X181846819Y-74413047D02*
X181894438Y-74508285D01*
X181894438Y-74508285D02*
X181989676Y-74603523D01*
X181989676Y-74603523D02*
X182180152Y-74651142D01*
X182180152Y-74651142D02*
X182513485Y-74651142D01*
X182513485Y-74651142D02*
X182703961Y-74603523D01*
X182703961Y-74603523D02*
X182799200Y-74508285D01*
X182799200Y-74508285D02*
X182846819Y-74413047D01*
X182846819Y-74413047D02*
X182846819Y-74222571D01*
X182180152Y-75508285D02*
X182846819Y-75508285D01*
X181799200Y-75270190D02*
X182513485Y-75032095D01*
X182513485Y-75032095D02*
X182513485Y-75651142D01*
X201361857Y-83653819D02*
X201695190Y-83177628D01*
X201933285Y-83653819D02*
X201933285Y-82653819D01*
X201933285Y-82653819D02*
X201552333Y-82653819D01*
X201552333Y-82653819D02*
X201457095Y-82701438D01*
X201457095Y-82701438D02*
X201409476Y-82749057D01*
X201409476Y-82749057D02*
X201361857Y-82844295D01*
X201361857Y-82844295D02*
X201361857Y-82987152D01*
X201361857Y-82987152D02*
X201409476Y-83082390D01*
X201409476Y-83082390D02*
X201457095Y-83130009D01*
X201457095Y-83130009D02*
X201552333Y-83177628D01*
X201552333Y-83177628D02*
X201933285Y-83177628D01*
X200409476Y-83653819D02*
X200980904Y-83653819D01*
X200695190Y-83653819D02*
X200695190Y-82653819D01*
X200695190Y-82653819D02*
X200790428Y-82796676D01*
X200790428Y-82796676D02*
X200885666Y-82891914D01*
X200885666Y-82891914D02*
X200980904Y-82939533D01*
X199457095Y-83653819D02*
X200028523Y-83653819D01*
X199742809Y-83653819D02*
X199742809Y-82653819D01*
X199742809Y-82653819D02*
X199838047Y-82796676D01*
X199838047Y-82796676D02*
X199933285Y-82891914D01*
X199933285Y-82891914D02*
X200028523Y-82939533D01*
X174233152Y-68826142D02*
X173756961Y-68492809D01*
X174233152Y-68254714D02*
X173233152Y-68254714D01*
X173233152Y-68254714D02*
X173233152Y-68635666D01*
X173233152Y-68635666D02*
X173280771Y-68730904D01*
X173280771Y-68730904D02*
X173328390Y-68778523D01*
X173328390Y-68778523D02*
X173423628Y-68826142D01*
X173423628Y-68826142D02*
X173566485Y-68826142D01*
X173566485Y-68826142D02*
X173661723Y-68778523D01*
X173661723Y-68778523D02*
X173709342Y-68730904D01*
X173709342Y-68730904D02*
X173756961Y-68635666D01*
X173756961Y-68635666D02*
X173756961Y-68254714D01*
X174233152Y-69778523D02*
X174233152Y-69207095D01*
X174233152Y-69492809D02*
X173233152Y-69492809D01*
X173233152Y-69492809D02*
X173376009Y-69397571D01*
X173376009Y-69397571D02*
X173471247Y-69302333D01*
X173471247Y-69302333D02*
X173518866Y-69207095D01*
X173233152Y-70683285D02*
X173233152Y-70207095D01*
X173233152Y-70207095D02*
X173709342Y-70159476D01*
X173709342Y-70159476D02*
X173661723Y-70207095D01*
X173661723Y-70207095D02*
X173614104Y-70302333D01*
X173614104Y-70302333D02*
X173614104Y-70540428D01*
X173614104Y-70540428D02*
X173661723Y-70635666D01*
X173661723Y-70635666D02*
X173709342Y-70683285D01*
X173709342Y-70683285D02*
X173804580Y-70730904D01*
X173804580Y-70730904D02*
X174042675Y-70730904D01*
X174042675Y-70730904D02*
X174137913Y-70683285D01*
X174137913Y-70683285D02*
X174185533Y-70635666D01*
X174185533Y-70635666D02*
X174233152Y-70540428D01*
X174233152Y-70540428D02*
X174233152Y-70302333D01*
X174233152Y-70302333D02*
X174185533Y-70207095D01*
X174185533Y-70207095D02*
X174137913Y-70159476D01*
X125102857Y-70177819D02*
X125436190Y-69701628D01*
X125674285Y-70177819D02*
X125674285Y-69177819D01*
X125674285Y-69177819D02*
X125293333Y-69177819D01*
X125293333Y-69177819D02*
X125198095Y-69225438D01*
X125198095Y-69225438D02*
X125150476Y-69273057D01*
X125150476Y-69273057D02*
X125102857Y-69368295D01*
X125102857Y-69368295D02*
X125102857Y-69511152D01*
X125102857Y-69511152D02*
X125150476Y-69606390D01*
X125150476Y-69606390D02*
X125198095Y-69654009D01*
X125198095Y-69654009D02*
X125293333Y-69701628D01*
X125293333Y-69701628D02*
X125674285Y-69701628D01*
X124721904Y-69273057D02*
X124674285Y-69225438D01*
X124674285Y-69225438D02*
X124579047Y-69177819D01*
X124579047Y-69177819D02*
X124340952Y-69177819D01*
X124340952Y-69177819D02*
X124245714Y-69225438D01*
X124245714Y-69225438D02*
X124198095Y-69273057D01*
X124198095Y-69273057D02*
X124150476Y-69368295D01*
X124150476Y-69368295D02*
X124150476Y-69463533D01*
X124150476Y-69463533D02*
X124198095Y-69606390D01*
X124198095Y-69606390D02*
X124769523Y-70177819D01*
X124769523Y-70177819D02*
X124150476Y-70177819D01*
X123817142Y-69177819D02*
X123198095Y-69177819D01*
X123198095Y-69177819D02*
X123531428Y-69558771D01*
X123531428Y-69558771D02*
X123388571Y-69558771D01*
X123388571Y-69558771D02*
X123293333Y-69606390D01*
X123293333Y-69606390D02*
X123245714Y-69654009D01*
X123245714Y-69654009D02*
X123198095Y-69749247D01*
X123198095Y-69749247D02*
X123198095Y-69987342D01*
X123198095Y-69987342D02*
X123245714Y-70082580D01*
X123245714Y-70082580D02*
X123293333Y-70130200D01*
X123293333Y-70130200D02*
X123388571Y-70177819D01*
X123388571Y-70177819D02*
X123674285Y-70177819D01*
X123674285Y-70177819D02*
X123769523Y-70130200D01*
X123769523Y-70130200D02*
X123817142Y-70082580D01*
X145263666Y-70812819D02*
X145596999Y-70336628D01*
X145835094Y-70812819D02*
X145835094Y-69812819D01*
X145835094Y-69812819D02*
X145454142Y-69812819D01*
X145454142Y-69812819D02*
X145358904Y-69860438D01*
X145358904Y-69860438D02*
X145311285Y-69908057D01*
X145311285Y-69908057D02*
X145263666Y-70003295D01*
X145263666Y-70003295D02*
X145263666Y-70146152D01*
X145263666Y-70146152D02*
X145311285Y-70241390D01*
X145311285Y-70241390D02*
X145358904Y-70289009D01*
X145358904Y-70289009D02*
X145454142Y-70336628D01*
X145454142Y-70336628D02*
X145835094Y-70336628D01*
X144358904Y-69812819D02*
X144835094Y-69812819D01*
X144835094Y-69812819D02*
X144882713Y-70289009D01*
X144882713Y-70289009D02*
X144835094Y-70241390D01*
X144835094Y-70241390D02*
X144739856Y-70193771D01*
X144739856Y-70193771D02*
X144501761Y-70193771D01*
X144501761Y-70193771D02*
X144406523Y-70241390D01*
X144406523Y-70241390D02*
X144358904Y-70289009D01*
X144358904Y-70289009D02*
X144311285Y-70384247D01*
X144311285Y-70384247D02*
X144311285Y-70622342D01*
X144311285Y-70622342D02*
X144358904Y-70717580D01*
X144358904Y-70717580D02*
X144406523Y-70765200D01*
X144406523Y-70765200D02*
X144501761Y-70812819D01*
X144501761Y-70812819D02*
X144739856Y-70812819D01*
X144739856Y-70812819D02*
X144835094Y-70765200D01*
X144835094Y-70765200D02*
X144882713Y-70717580D01*
X201361857Y-82129819D02*
X201695190Y-81653628D01*
X201933285Y-82129819D02*
X201933285Y-81129819D01*
X201933285Y-81129819D02*
X201552333Y-81129819D01*
X201552333Y-81129819D02*
X201457095Y-81177438D01*
X201457095Y-81177438D02*
X201409476Y-81225057D01*
X201409476Y-81225057D02*
X201361857Y-81320295D01*
X201361857Y-81320295D02*
X201361857Y-81463152D01*
X201361857Y-81463152D02*
X201409476Y-81558390D01*
X201409476Y-81558390D02*
X201457095Y-81606009D01*
X201457095Y-81606009D02*
X201552333Y-81653628D01*
X201552333Y-81653628D02*
X201933285Y-81653628D01*
X200409476Y-82129819D02*
X200980904Y-82129819D01*
X200695190Y-82129819D02*
X200695190Y-81129819D01*
X200695190Y-81129819D02*
X200790428Y-81272676D01*
X200790428Y-81272676D02*
X200885666Y-81367914D01*
X200885666Y-81367914D02*
X200980904Y-81415533D01*
X199790428Y-81129819D02*
X199695190Y-81129819D01*
X199695190Y-81129819D02*
X199599952Y-81177438D01*
X199599952Y-81177438D02*
X199552333Y-81225057D01*
X199552333Y-81225057D02*
X199504714Y-81320295D01*
X199504714Y-81320295D02*
X199457095Y-81510771D01*
X199457095Y-81510771D02*
X199457095Y-81748866D01*
X199457095Y-81748866D02*
X199504714Y-81939342D01*
X199504714Y-81939342D02*
X199552333Y-82034580D01*
X199552333Y-82034580D02*
X199599952Y-82082200D01*
X199599952Y-82082200D02*
X199695190Y-82129819D01*
X199695190Y-82129819D02*
X199790428Y-82129819D01*
X199790428Y-82129819D02*
X199885666Y-82082200D01*
X199885666Y-82082200D02*
X199933285Y-82034580D01*
X199933285Y-82034580D02*
X199980904Y-81939342D01*
X199980904Y-81939342D02*
X200028523Y-81748866D01*
X200028523Y-81748866D02*
X200028523Y-81510771D01*
X200028523Y-81510771D02*
X199980904Y-81320295D01*
X199980904Y-81320295D02*
X199933285Y-81225057D01*
X199933285Y-81225057D02*
X199885666Y-81177438D01*
X199885666Y-81177438D02*
X199790428Y-81129819D01*
X161335833Y-87561009D02*
X161669166Y-87561009D01*
X161669166Y-88084819D02*
X161669166Y-87084819D01*
X161669166Y-87084819D02*
X161192976Y-87084819D01*
X160478690Y-87561009D02*
X160335833Y-87608628D01*
X160335833Y-87608628D02*
X160288214Y-87656247D01*
X160288214Y-87656247D02*
X160240595Y-87751485D01*
X160240595Y-87751485D02*
X160240595Y-87894342D01*
X160240595Y-87894342D02*
X160288214Y-87989580D01*
X160288214Y-87989580D02*
X160335833Y-88037200D01*
X160335833Y-88037200D02*
X160431071Y-88084819D01*
X160431071Y-88084819D02*
X160812023Y-88084819D01*
X160812023Y-88084819D02*
X160812023Y-87084819D01*
X160812023Y-87084819D02*
X160478690Y-87084819D01*
X160478690Y-87084819D02*
X160383452Y-87132438D01*
X160383452Y-87132438D02*
X160335833Y-87180057D01*
X160335833Y-87180057D02*
X160288214Y-87275295D01*
X160288214Y-87275295D02*
X160288214Y-87370533D01*
X160288214Y-87370533D02*
X160335833Y-87465771D01*
X160335833Y-87465771D02*
X160383452Y-87513390D01*
X160383452Y-87513390D02*
X160478690Y-87561009D01*
X160478690Y-87561009D02*
X160812023Y-87561009D01*
X159288214Y-88084819D02*
X159859642Y-88084819D01*
X159573928Y-88084819D02*
X159573928Y-87084819D01*
X159573928Y-87084819D02*
X159669166Y-87227676D01*
X159669166Y-87227676D02*
X159764404Y-87322914D01*
X159764404Y-87322914D02*
X159859642Y-87370533D01*
X196861332Y-72659200D02*
X196718475Y-72706819D01*
X196718475Y-72706819D02*
X196480380Y-72706819D01*
X196480380Y-72706819D02*
X196385142Y-72659200D01*
X196385142Y-72659200D02*
X196337523Y-72611580D01*
X196337523Y-72611580D02*
X196289904Y-72516342D01*
X196289904Y-72516342D02*
X196289904Y-72421104D01*
X196289904Y-72421104D02*
X196337523Y-72325866D01*
X196337523Y-72325866D02*
X196385142Y-72278247D01*
X196385142Y-72278247D02*
X196480380Y-72230628D01*
X196480380Y-72230628D02*
X196670856Y-72183009D01*
X196670856Y-72183009D02*
X196766094Y-72135390D01*
X196766094Y-72135390D02*
X196813713Y-72087771D01*
X196813713Y-72087771D02*
X196861332Y-71992533D01*
X196861332Y-71992533D02*
X196861332Y-71897295D01*
X196861332Y-71897295D02*
X196813713Y-71802057D01*
X196813713Y-71802057D02*
X196766094Y-71754438D01*
X196766094Y-71754438D02*
X196670856Y-71706819D01*
X196670856Y-71706819D02*
X196432761Y-71706819D01*
X196432761Y-71706819D02*
X196289904Y-71754438D01*
X195956570Y-71706819D02*
X195718475Y-72706819D01*
X195718475Y-72706819D02*
X195527999Y-71992533D01*
X195527999Y-71992533D02*
X195337523Y-72706819D01*
X195337523Y-72706819D02*
X195099428Y-71706819D01*
X194194666Y-72706819D02*
X194766094Y-72706819D01*
X194480380Y-72706819D02*
X194480380Y-71706819D01*
X194480380Y-71706819D02*
X194575618Y-71849676D01*
X194575618Y-71849676D02*
X194670856Y-71944914D01*
X194670856Y-71944914D02*
X194766094Y-71992533D01*
X142472580Y-80412333D02*
X142520200Y-80364714D01*
X142520200Y-80364714D02*
X142567819Y-80221857D01*
X142567819Y-80221857D02*
X142567819Y-80126619D01*
X142567819Y-80126619D02*
X142520200Y-79983762D01*
X142520200Y-79983762D02*
X142424961Y-79888524D01*
X142424961Y-79888524D02*
X142329723Y-79840905D01*
X142329723Y-79840905D02*
X142139247Y-79793286D01*
X142139247Y-79793286D02*
X141996390Y-79793286D01*
X141996390Y-79793286D02*
X141805914Y-79840905D01*
X141805914Y-79840905D02*
X141710676Y-79888524D01*
X141710676Y-79888524D02*
X141615438Y-79983762D01*
X141615438Y-79983762D02*
X141567819Y-80126619D01*
X141567819Y-80126619D02*
X141567819Y-80221857D01*
X141567819Y-80221857D02*
X141615438Y-80364714D01*
X141615438Y-80364714D02*
X141663057Y-80412333D01*
X141567819Y-80745667D02*
X141567819Y-81412333D01*
X141567819Y-81412333D02*
X142567819Y-80983762D01*
X146438857Y-81226819D02*
X146772190Y-80750628D01*
X147010285Y-81226819D02*
X147010285Y-80226819D01*
X147010285Y-80226819D02*
X146629333Y-80226819D01*
X146629333Y-80226819D02*
X146534095Y-80274438D01*
X146534095Y-80274438D02*
X146486476Y-80322057D01*
X146486476Y-80322057D02*
X146438857Y-80417295D01*
X146438857Y-80417295D02*
X146438857Y-80560152D01*
X146438857Y-80560152D02*
X146486476Y-80655390D01*
X146486476Y-80655390D02*
X146534095Y-80703009D01*
X146534095Y-80703009D02*
X146629333Y-80750628D01*
X146629333Y-80750628D02*
X147010285Y-80750628D01*
X146057904Y-80322057D02*
X146010285Y-80274438D01*
X146010285Y-80274438D02*
X145915047Y-80226819D01*
X145915047Y-80226819D02*
X145676952Y-80226819D01*
X145676952Y-80226819D02*
X145581714Y-80274438D01*
X145581714Y-80274438D02*
X145534095Y-80322057D01*
X145534095Y-80322057D02*
X145486476Y-80417295D01*
X145486476Y-80417295D02*
X145486476Y-80512533D01*
X145486476Y-80512533D02*
X145534095Y-80655390D01*
X145534095Y-80655390D02*
X146105523Y-81226819D01*
X146105523Y-81226819D02*
X145486476Y-81226819D01*
X144867428Y-80226819D02*
X144772190Y-80226819D01*
X144772190Y-80226819D02*
X144676952Y-80274438D01*
X144676952Y-80274438D02*
X144629333Y-80322057D01*
X144629333Y-80322057D02*
X144581714Y-80417295D01*
X144581714Y-80417295D02*
X144534095Y-80607771D01*
X144534095Y-80607771D02*
X144534095Y-80845866D01*
X144534095Y-80845866D02*
X144581714Y-81036342D01*
X144581714Y-81036342D02*
X144629333Y-81131580D01*
X144629333Y-81131580D02*
X144676952Y-81179200D01*
X144676952Y-81179200D02*
X144772190Y-81226819D01*
X144772190Y-81226819D02*
X144867428Y-81226819D01*
X144867428Y-81226819D02*
X144962666Y-81179200D01*
X144962666Y-81179200D02*
X145010285Y-81131580D01*
X145010285Y-81131580D02*
X145057904Y-81036342D01*
X145057904Y-81036342D02*
X145105523Y-80845866D01*
X145105523Y-80845866D02*
X145105523Y-80607771D01*
X145105523Y-80607771D02*
X145057904Y-80417295D01*
X145057904Y-80417295D02*
X145010285Y-80322057D01*
X145010285Y-80322057D02*
X144962666Y-80274438D01*
X144962666Y-80274438D02*
X144867428Y-80226819D01*
X165393666Y-78845580D02*
X165441285Y-78893200D01*
X165441285Y-78893200D02*
X165584142Y-78940819D01*
X165584142Y-78940819D02*
X165679380Y-78940819D01*
X165679380Y-78940819D02*
X165822237Y-78893200D01*
X165822237Y-78893200D02*
X165917475Y-78797961D01*
X165917475Y-78797961D02*
X165965094Y-78702723D01*
X165965094Y-78702723D02*
X166012713Y-78512247D01*
X166012713Y-78512247D02*
X166012713Y-78369390D01*
X166012713Y-78369390D02*
X165965094Y-78178914D01*
X165965094Y-78178914D02*
X165917475Y-78083676D01*
X165917475Y-78083676D02*
X165822237Y-77988438D01*
X165822237Y-77988438D02*
X165679380Y-77940819D01*
X165679380Y-77940819D02*
X165584142Y-77940819D01*
X165584142Y-77940819D02*
X165441285Y-77988438D01*
X165441285Y-77988438D02*
X165393666Y-78036057D01*
X164536523Y-78274152D02*
X164536523Y-78940819D01*
X164774618Y-77893200D02*
X165012713Y-78607485D01*
X165012713Y-78607485D02*
X164393666Y-78607485D01*
X166165238Y-70869057D02*
X166260476Y-70821438D01*
X166260476Y-70821438D02*
X166355714Y-70726200D01*
X166355714Y-70726200D02*
X166498571Y-70583342D01*
X166498571Y-70583342D02*
X166593809Y-70535723D01*
X166593809Y-70535723D02*
X166689047Y-70535723D01*
X166641428Y-70773819D02*
X166736666Y-70726200D01*
X166736666Y-70726200D02*
X166831904Y-70630961D01*
X166831904Y-70630961D02*
X166879523Y-70440485D01*
X166879523Y-70440485D02*
X166879523Y-70107152D01*
X166879523Y-70107152D02*
X166831904Y-69916676D01*
X166831904Y-69916676D02*
X166736666Y-69821438D01*
X166736666Y-69821438D02*
X166641428Y-69773819D01*
X166641428Y-69773819D02*
X166450952Y-69773819D01*
X166450952Y-69773819D02*
X166355714Y-69821438D01*
X166355714Y-69821438D02*
X166260476Y-69916676D01*
X166260476Y-69916676D02*
X166212857Y-70107152D01*
X166212857Y-70107152D02*
X166212857Y-70440485D01*
X166212857Y-70440485D02*
X166260476Y-70630961D01*
X166260476Y-70630961D02*
X166355714Y-70726200D01*
X166355714Y-70726200D02*
X166450952Y-70773819D01*
X166450952Y-70773819D02*
X166641428Y-70773819D01*
X165308095Y-69773819D02*
X165784285Y-69773819D01*
X165784285Y-69773819D02*
X165831904Y-70250009D01*
X165831904Y-70250009D02*
X165784285Y-70202390D01*
X165784285Y-70202390D02*
X165689047Y-70154771D01*
X165689047Y-70154771D02*
X165450952Y-70154771D01*
X165450952Y-70154771D02*
X165355714Y-70202390D01*
X165355714Y-70202390D02*
X165308095Y-70250009D01*
X165308095Y-70250009D02*
X165260476Y-70345247D01*
X165260476Y-70345247D02*
X165260476Y-70583342D01*
X165260476Y-70583342D02*
X165308095Y-70678580D01*
X165308095Y-70678580D02*
X165355714Y-70726200D01*
X165355714Y-70726200D02*
X165450952Y-70773819D01*
X165450952Y-70773819D02*
X165689047Y-70773819D01*
X165689047Y-70773819D02*
X165784285Y-70726200D01*
X165784285Y-70726200D02*
X165831904Y-70678580D01*
X156880819Y-78610095D02*
X157690342Y-78610095D01*
X157690342Y-78610095D02*
X157785580Y-78657714D01*
X157785580Y-78657714D02*
X157833200Y-78705333D01*
X157833200Y-78705333D02*
X157880819Y-78800571D01*
X157880819Y-78800571D02*
X157880819Y-78991047D01*
X157880819Y-78991047D02*
X157833200Y-79086285D01*
X157833200Y-79086285D02*
X157785580Y-79133904D01*
X157785580Y-79133904D02*
X157690342Y-79181523D01*
X157690342Y-79181523D02*
X156880819Y-79181523D01*
X157880819Y-80181523D02*
X157880819Y-79610095D01*
X157880819Y-79895809D02*
X156880819Y-79895809D01*
X156880819Y-79895809D02*
X157023676Y-79800571D01*
X157023676Y-79800571D02*
X157118914Y-79705333D01*
X157118914Y-79705333D02*
X157166533Y-79610095D01*
X107714285Y-67068990D02*
X107857142Y-67021371D01*
X107857142Y-67021371D02*
X107904761Y-66973752D01*
X107904761Y-66973752D02*
X107952380Y-66878514D01*
X107952380Y-66878514D02*
X107952380Y-66735657D01*
X107952380Y-66735657D02*
X107904761Y-66640419D01*
X107904761Y-66640419D02*
X107857142Y-66592800D01*
X107857142Y-66592800D02*
X107761904Y-66545180D01*
X107761904Y-66545180D02*
X107380952Y-66545180D01*
X107380952Y-66545180D02*
X107380952Y-67545180D01*
X107380952Y-67545180D02*
X107714285Y-67545180D01*
X107714285Y-67545180D02*
X107809523Y-67497561D01*
X107809523Y-67497561D02*
X107857142Y-67449942D01*
X107857142Y-67449942D02*
X107904761Y-67354704D01*
X107904761Y-67354704D02*
X107904761Y-67259466D01*
X107904761Y-67259466D02*
X107857142Y-67164228D01*
X107857142Y-67164228D02*
X107809523Y-67116609D01*
X107809523Y-67116609D02*
X107714285Y-67068990D01*
X107714285Y-67068990D02*
X107380952Y-67068990D01*
X108238095Y-67545180D02*
X108809523Y-67545180D01*
X108523809Y-66545180D02*
X108523809Y-67545180D01*
X109666666Y-66545180D02*
X109095238Y-66545180D01*
X109380952Y-66545180D02*
X109380952Y-67545180D01*
X109380952Y-67545180D02*
X109285714Y-67402323D01*
X109285714Y-67402323D02*
X109190476Y-67307085D01*
X109190476Y-67307085D02*
X109095238Y-67259466D01*
X193547904Y-86957819D02*
X193547904Y-87767342D01*
X193547904Y-87767342D02*
X193500285Y-87862580D01*
X193500285Y-87862580D02*
X193452666Y-87910200D01*
X193452666Y-87910200D02*
X193357428Y-87957819D01*
X193357428Y-87957819D02*
X193166952Y-87957819D01*
X193166952Y-87957819D02*
X193071714Y-87910200D01*
X193071714Y-87910200D02*
X193024095Y-87862580D01*
X193024095Y-87862580D02*
X192976476Y-87767342D01*
X192976476Y-87767342D02*
X192976476Y-86957819D01*
X192071714Y-87291152D02*
X192071714Y-87957819D01*
X192309809Y-86910200D02*
X192547904Y-87624485D01*
X192547904Y-87624485D02*
X191928857Y-87624485D01*
X201361857Y-85177819D02*
X201695190Y-84701628D01*
X201933285Y-85177819D02*
X201933285Y-84177819D01*
X201933285Y-84177819D02*
X201552333Y-84177819D01*
X201552333Y-84177819D02*
X201457095Y-84225438D01*
X201457095Y-84225438D02*
X201409476Y-84273057D01*
X201409476Y-84273057D02*
X201361857Y-84368295D01*
X201361857Y-84368295D02*
X201361857Y-84511152D01*
X201361857Y-84511152D02*
X201409476Y-84606390D01*
X201409476Y-84606390D02*
X201457095Y-84654009D01*
X201457095Y-84654009D02*
X201552333Y-84701628D01*
X201552333Y-84701628D02*
X201933285Y-84701628D01*
X200409476Y-85177819D02*
X200980904Y-85177819D01*
X200695190Y-85177819D02*
X200695190Y-84177819D01*
X200695190Y-84177819D02*
X200790428Y-84320676D01*
X200790428Y-84320676D02*
X200885666Y-84415914D01*
X200885666Y-84415914D02*
X200980904Y-84463533D01*
X200028523Y-84273057D02*
X199980904Y-84225438D01*
X199980904Y-84225438D02*
X199885666Y-84177819D01*
X199885666Y-84177819D02*
X199647571Y-84177819D01*
X199647571Y-84177819D02*
X199552333Y-84225438D01*
X199552333Y-84225438D02*
X199504714Y-84273057D01*
X199504714Y-84273057D02*
X199457095Y-84368295D01*
X199457095Y-84368295D02*
X199457095Y-84463533D01*
X199457095Y-84463533D02*
X199504714Y-84606390D01*
X199504714Y-84606390D02*
X200076142Y-85177819D01*
X200076142Y-85177819D02*
X199457095Y-85177819D01*
X179217723Y-74698761D02*
X179170104Y-74603523D01*
X179170104Y-74603523D02*
X179074866Y-74508285D01*
X179074866Y-74508285D02*
X178932008Y-74365428D01*
X178932008Y-74365428D02*
X178884389Y-74270190D01*
X178884389Y-74270190D02*
X178884389Y-74174952D01*
X179122485Y-74222571D02*
X179074866Y-74127333D01*
X179074866Y-74127333D02*
X178979627Y-74032095D01*
X178979627Y-74032095D02*
X178789151Y-73984476D01*
X178789151Y-73984476D02*
X178455818Y-73984476D01*
X178455818Y-73984476D02*
X178265342Y-74032095D01*
X178265342Y-74032095D02*
X178170104Y-74127333D01*
X178170104Y-74127333D02*
X178122485Y-74222571D01*
X178122485Y-74222571D02*
X178122485Y-74413047D01*
X178122485Y-74413047D02*
X178170104Y-74508285D01*
X178170104Y-74508285D02*
X178265342Y-74603523D01*
X178265342Y-74603523D02*
X178455818Y-74651142D01*
X178455818Y-74651142D02*
X178789151Y-74651142D01*
X178789151Y-74651142D02*
X178979627Y-74603523D01*
X178979627Y-74603523D02*
X179074866Y-74508285D01*
X179074866Y-74508285D02*
X179122485Y-74413047D01*
X179122485Y-74413047D02*
X179122485Y-74222571D01*
X178122485Y-74984476D02*
X178122485Y-75603523D01*
X178122485Y-75603523D02*
X178503437Y-75270190D01*
X178503437Y-75270190D02*
X178503437Y-75413047D01*
X178503437Y-75413047D02*
X178551056Y-75508285D01*
X178551056Y-75508285D02*
X178598675Y-75555904D01*
X178598675Y-75555904D02*
X178693913Y-75603523D01*
X178693913Y-75603523D02*
X178932008Y-75603523D01*
X178932008Y-75603523D02*
X179027246Y-75555904D01*
X179027246Y-75555904D02*
X179074866Y-75508285D01*
X179074866Y-75508285D02*
X179122485Y-75413047D01*
X179122485Y-75413047D02*
X179122485Y-75127333D01*
X179122485Y-75127333D02*
X179074866Y-75032095D01*
X179074866Y-75032095D02*
X179027246Y-74984476D01*
X122851057Y-73818761D02*
X122803438Y-73723523D01*
X122803438Y-73723523D02*
X122708200Y-73628285D01*
X122708200Y-73628285D02*
X122565342Y-73485428D01*
X122565342Y-73485428D02*
X122517723Y-73390190D01*
X122517723Y-73390190D02*
X122517723Y-73294952D01*
X122755819Y-73342571D02*
X122708200Y-73247333D01*
X122708200Y-73247333D02*
X122612961Y-73152095D01*
X122612961Y-73152095D02*
X122422485Y-73104476D01*
X122422485Y-73104476D02*
X122089152Y-73104476D01*
X122089152Y-73104476D02*
X121898676Y-73152095D01*
X121898676Y-73152095D02*
X121803438Y-73247333D01*
X121803438Y-73247333D02*
X121755819Y-73342571D01*
X121755819Y-73342571D02*
X121755819Y-73533047D01*
X121755819Y-73533047D02*
X121803438Y-73628285D01*
X121803438Y-73628285D02*
X121898676Y-73723523D01*
X121898676Y-73723523D02*
X122089152Y-73771142D01*
X122089152Y-73771142D02*
X122422485Y-73771142D01*
X122422485Y-73771142D02*
X122612961Y-73723523D01*
X122612961Y-73723523D02*
X122708200Y-73628285D01*
X122708200Y-73628285D02*
X122755819Y-73533047D01*
X122755819Y-73533047D02*
X122755819Y-73342571D01*
X121755819Y-74104476D02*
X121755819Y-74771142D01*
X121755819Y-74771142D02*
X122755819Y-74342571D01*
X200409475Y-79081819D02*
X200742808Y-78605628D01*
X200980903Y-79081819D02*
X200980903Y-78081819D01*
X200980903Y-78081819D02*
X200599951Y-78081819D01*
X200599951Y-78081819D02*
X200504713Y-78129438D01*
X200504713Y-78129438D02*
X200457094Y-78177057D01*
X200457094Y-78177057D02*
X200409475Y-78272295D01*
X200409475Y-78272295D02*
X200409475Y-78415152D01*
X200409475Y-78415152D02*
X200457094Y-78510390D01*
X200457094Y-78510390D02*
X200504713Y-78558009D01*
X200504713Y-78558009D02*
X200599951Y-78605628D01*
X200599951Y-78605628D02*
X200980903Y-78605628D01*
X199838046Y-78510390D02*
X199933284Y-78462771D01*
X199933284Y-78462771D02*
X199980903Y-78415152D01*
X199980903Y-78415152D02*
X200028522Y-78319914D01*
X200028522Y-78319914D02*
X200028522Y-78272295D01*
X200028522Y-78272295D02*
X199980903Y-78177057D01*
X199980903Y-78177057D02*
X199933284Y-78129438D01*
X199933284Y-78129438D02*
X199838046Y-78081819D01*
X199838046Y-78081819D02*
X199647570Y-78081819D01*
X199647570Y-78081819D02*
X199552332Y-78129438D01*
X199552332Y-78129438D02*
X199504713Y-78177057D01*
X199504713Y-78177057D02*
X199457094Y-78272295D01*
X199457094Y-78272295D02*
X199457094Y-78319914D01*
X199457094Y-78319914D02*
X199504713Y-78415152D01*
X199504713Y-78415152D02*
X199552332Y-78462771D01*
X199552332Y-78462771D02*
X199647570Y-78510390D01*
X199647570Y-78510390D02*
X199838046Y-78510390D01*
X199838046Y-78510390D02*
X199933284Y-78558009D01*
X199933284Y-78558009D02*
X199980903Y-78605628D01*
X199980903Y-78605628D02*
X200028522Y-78700866D01*
X200028522Y-78700866D02*
X200028522Y-78891342D01*
X200028522Y-78891342D02*
X199980903Y-78986580D01*
X199980903Y-78986580D02*
X199933284Y-79034200D01*
X199933284Y-79034200D02*
X199838046Y-79081819D01*
X199838046Y-79081819D02*
X199647570Y-79081819D01*
X199647570Y-79081819D02*
X199552332Y-79034200D01*
X199552332Y-79034200D02*
X199504713Y-78986580D01*
X199504713Y-78986580D02*
X199457094Y-78891342D01*
X199457094Y-78891342D02*
X199457094Y-78700866D01*
X199457094Y-78700866D02*
X199504713Y-78605628D01*
X199504713Y-78605628D02*
X199552332Y-78558009D01*
X199552332Y-78558009D02*
X199647570Y-78510390D01*
X130397238Y-72178057D02*
X130492476Y-72130438D01*
X130492476Y-72130438D02*
X130587714Y-72035200D01*
X130587714Y-72035200D02*
X130730571Y-71892342D01*
X130730571Y-71892342D02*
X130825809Y-71844723D01*
X130825809Y-71844723D02*
X130921047Y-71844723D01*
X130873428Y-72082819D02*
X130968666Y-72035200D01*
X130968666Y-72035200D02*
X131063904Y-71939961D01*
X131063904Y-71939961D02*
X131111523Y-71749485D01*
X131111523Y-71749485D02*
X131111523Y-71416152D01*
X131111523Y-71416152D02*
X131063904Y-71225676D01*
X131063904Y-71225676D02*
X130968666Y-71130438D01*
X130968666Y-71130438D02*
X130873428Y-71082819D01*
X130873428Y-71082819D02*
X130682952Y-71082819D01*
X130682952Y-71082819D02*
X130587714Y-71130438D01*
X130587714Y-71130438D02*
X130492476Y-71225676D01*
X130492476Y-71225676D02*
X130444857Y-71416152D01*
X130444857Y-71416152D02*
X130444857Y-71749485D01*
X130444857Y-71749485D02*
X130492476Y-71939961D01*
X130492476Y-71939961D02*
X130587714Y-72035200D01*
X130587714Y-72035200D02*
X130682952Y-72082819D01*
X130682952Y-72082819D02*
X130873428Y-72082819D01*
X129873428Y-71511390D02*
X129968666Y-71463771D01*
X129968666Y-71463771D02*
X130016285Y-71416152D01*
X130016285Y-71416152D02*
X130063904Y-71320914D01*
X130063904Y-71320914D02*
X130063904Y-71273295D01*
X130063904Y-71273295D02*
X130016285Y-71178057D01*
X130016285Y-71178057D02*
X129968666Y-71130438D01*
X129968666Y-71130438D02*
X129873428Y-71082819D01*
X129873428Y-71082819D02*
X129682952Y-71082819D01*
X129682952Y-71082819D02*
X129587714Y-71130438D01*
X129587714Y-71130438D02*
X129540095Y-71178057D01*
X129540095Y-71178057D02*
X129492476Y-71273295D01*
X129492476Y-71273295D02*
X129492476Y-71320914D01*
X129492476Y-71320914D02*
X129540095Y-71416152D01*
X129540095Y-71416152D02*
X129587714Y-71463771D01*
X129587714Y-71463771D02*
X129682952Y-71511390D01*
X129682952Y-71511390D02*
X129873428Y-71511390D01*
X129873428Y-71511390D02*
X129968666Y-71559009D01*
X129968666Y-71559009D02*
X130016285Y-71606628D01*
X130016285Y-71606628D02*
X130063904Y-71701866D01*
X130063904Y-71701866D02*
X130063904Y-71892342D01*
X130063904Y-71892342D02*
X130016285Y-71987580D01*
X130016285Y-71987580D02*
X129968666Y-72035200D01*
X129968666Y-72035200D02*
X129873428Y-72082819D01*
X129873428Y-72082819D02*
X129682952Y-72082819D01*
X129682952Y-72082819D02*
X129587714Y-72035200D01*
X129587714Y-72035200D02*
X129540095Y-71987580D01*
X129540095Y-71987580D02*
X129492476Y-71892342D01*
X129492476Y-71892342D02*
X129492476Y-71701866D01*
X129492476Y-71701866D02*
X129540095Y-71606628D01*
X129540095Y-71606628D02*
X129587714Y-71559009D01*
X129587714Y-71559009D02*
X129682952Y-71511390D01*
X177958485Y-68826142D02*
X177482294Y-68492809D01*
X177958485Y-68254714D02*
X176958485Y-68254714D01*
X176958485Y-68254714D02*
X176958485Y-68635666D01*
X176958485Y-68635666D02*
X177006104Y-68730904D01*
X177006104Y-68730904D02*
X177053723Y-68778523D01*
X177053723Y-68778523D02*
X177148961Y-68826142D01*
X177148961Y-68826142D02*
X177291818Y-68826142D01*
X177291818Y-68826142D02*
X177387056Y-68778523D01*
X177387056Y-68778523D02*
X177434675Y-68730904D01*
X177434675Y-68730904D02*
X177482294Y-68635666D01*
X177482294Y-68635666D02*
X177482294Y-68254714D01*
X177958485Y-69778523D02*
X177958485Y-69207095D01*
X177958485Y-69492809D02*
X176958485Y-69492809D01*
X176958485Y-69492809D02*
X177101342Y-69397571D01*
X177101342Y-69397571D02*
X177196580Y-69302333D01*
X177196580Y-69302333D02*
X177244199Y-69207095D01*
X176958485Y-70635666D02*
X176958485Y-70445190D01*
X176958485Y-70445190D02*
X177006104Y-70349952D01*
X177006104Y-70349952D02*
X177053723Y-70302333D01*
X177053723Y-70302333D02*
X177196580Y-70207095D01*
X177196580Y-70207095D02*
X177387056Y-70159476D01*
X177387056Y-70159476D02*
X177768008Y-70159476D01*
X177768008Y-70159476D02*
X177863246Y-70207095D01*
X177863246Y-70207095D02*
X177910866Y-70254714D01*
X177910866Y-70254714D02*
X177958485Y-70349952D01*
X177958485Y-70349952D02*
X177958485Y-70540428D01*
X177958485Y-70540428D02*
X177910866Y-70635666D01*
X177910866Y-70635666D02*
X177863246Y-70683285D01*
X177863246Y-70683285D02*
X177768008Y-70730904D01*
X177768008Y-70730904D02*
X177529913Y-70730904D01*
X177529913Y-70730904D02*
X177434675Y-70683285D01*
X177434675Y-70683285D02*
X177387056Y-70635666D01*
X177387056Y-70635666D02*
X177339437Y-70540428D01*
X177339437Y-70540428D02*
X177339437Y-70349952D01*
X177339437Y-70349952D02*
X177387056Y-70254714D01*
X177387056Y-70254714D02*
X177434675Y-70207095D01*
X177434675Y-70207095D02*
X177529913Y-70159476D01*
X200409475Y-77564819D02*
X200742808Y-77088628D01*
X200980903Y-77564819D02*
X200980903Y-76564819D01*
X200980903Y-76564819D02*
X200599951Y-76564819D01*
X200599951Y-76564819D02*
X200504713Y-76612438D01*
X200504713Y-76612438D02*
X200457094Y-76660057D01*
X200457094Y-76660057D02*
X200409475Y-76755295D01*
X200409475Y-76755295D02*
X200409475Y-76898152D01*
X200409475Y-76898152D02*
X200457094Y-76993390D01*
X200457094Y-76993390D02*
X200504713Y-77041009D01*
X200504713Y-77041009D02*
X200599951Y-77088628D01*
X200599951Y-77088628D02*
X200980903Y-77088628D01*
X200076141Y-76564819D02*
X199409475Y-76564819D01*
X199409475Y-76564819D02*
X199838046Y-77564819D01*
X121857904Y-87465819D02*
X121857904Y-88275342D01*
X121857904Y-88275342D02*
X121810285Y-88370580D01*
X121810285Y-88370580D02*
X121762666Y-88418200D01*
X121762666Y-88418200D02*
X121667428Y-88465819D01*
X121667428Y-88465819D02*
X121476952Y-88465819D01*
X121476952Y-88465819D02*
X121381714Y-88418200D01*
X121381714Y-88418200D02*
X121334095Y-88370580D01*
X121334095Y-88370580D02*
X121286476Y-88275342D01*
X121286476Y-88275342D02*
X121286476Y-87465819D01*
X120857904Y-87561057D02*
X120810285Y-87513438D01*
X120810285Y-87513438D02*
X120715047Y-87465819D01*
X120715047Y-87465819D02*
X120476952Y-87465819D01*
X120476952Y-87465819D02*
X120381714Y-87513438D01*
X120381714Y-87513438D02*
X120334095Y-87561057D01*
X120334095Y-87561057D02*
X120286476Y-87656295D01*
X120286476Y-87656295D02*
X120286476Y-87751533D01*
X120286476Y-87751533D02*
X120334095Y-87894390D01*
X120334095Y-87894390D02*
X120905523Y-88465819D01*
X120905523Y-88465819D02*
X120286476Y-88465819D01*
X137263094Y-77670819D02*
X137263094Y-76670819D01*
X137263094Y-76670819D02*
X137024999Y-76670819D01*
X137024999Y-76670819D02*
X136882142Y-76718438D01*
X136882142Y-76718438D02*
X136786904Y-76813676D01*
X136786904Y-76813676D02*
X136739285Y-76908914D01*
X136739285Y-76908914D02*
X136691666Y-77099390D01*
X136691666Y-77099390D02*
X136691666Y-77242247D01*
X136691666Y-77242247D02*
X136739285Y-77432723D01*
X136739285Y-77432723D02*
X136786904Y-77527961D01*
X136786904Y-77527961D02*
X136882142Y-77623200D01*
X136882142Y-77623200D02*
X137024999Y-77670819D01*
X137024999Y-77670819D02*
X137263094Y-77670819D01*
X136310713Y-76766057D02*
X136263094Y-76718438D01*
X136263094Y-76718438D02*
X136167856Y-76670819D01*
X136167856Y-76670819D02*
X135929761Y-76670819D01*
X135929761Y-76670819D02*
X135834523Y-76718438D01*
X135834523Y-76718438D02*
X135786904Y-76766057D01*
X135786904Y-76766057D02*
X135739285Y-76861295D01*
X135739285Y-76861295D02*
X135739285Y-76956533D01*
X135739285Y-76956533D02*
X135786904Y-77099390D01*
X135786904Y-77099390D02*
X136358332Y-77670819D01*
X136358332Y-77670819D02*
X135739285Y-77670819D01*
X117225190Y-88657628D02*
X117225190Y-89133819D01*
X117558523Y-88133819D02*
X117225190Y-88657628D01*
X117225190Y-88657628D02*
X116891857Y-88133819D01*
X116034714Y-89133819D02*
X116606142Y-89133819D01*
X116320428Y-89133819D02*
X116320428Y-88133819D01*
X116320428Y-88133819D02*
X116415666Y-88276676D01*
X116415666Y-88276676D02*
X116510904Y-88371914D01*
X116510904Y-88371914D02*
X116606142Y-88419533D01*
X152059819Y-64794333D02*
X151583628Y-64461000D01*
X152059819Y-64222905D02*
X151059819Y-64222905D01*
X151059819Y-64222905D02*
X151059819Y-64603857D01*
X151059819Y-64603857D02*
X151107438Y-64699095D01*
X151107438Y-64699095D02*
X151155057Y-64746714D01*
X151155057Y-64746714D02*
X151250295Y-64794333D01*
X151250295Y-64794333D02*
X151393152Y-64794333D01*
X151393152Y-64794333D02*
X151488390Y-64746714D01*
X151488390Y-64746714D02*
X151536009Y-64699095D01*
X151536009Y-64699095D02*
X151583628Y-64603857D01*
X151583628Y-64603857D02*
X151583628Y-64222905D01*
X151393152Y-65651476D02*
X152059819Y-65651476D01*
X151012200Y-65413381D02*
X151726485Y-65175286D01*
X151726485Y-65175286D02*
X151726485Y-65794333D01*
X170507819Y-68826142D02*
X170031628Y-68492809D01*
X170507819Y-68254714D02*
X169507819Y-68254714D01*
X169507819Y-68254714D02*
X169507819Y-68635666D01*
X169507819Y-68635666D02*
X169555438Y-68730904D01*
X169555438Y-68730904D02*
X169603057Y-68778523D01*
X169603057Y-68778523D02*
X169698295Y-68826142D01*
X169698295Y-68826142D02*
X169841152Y-68826142D01*
X169841152Y-68826142D02*
X169936390Y-68778523D01*
X169936390Y-68778523D02*
X169984009Y-68730904D01*
X169984009Y-68730904D02*
X170031628Y-68635666D01*
X170031628Y-68635666D02*
X170031628Y-68254714D01*
X170507819Y-69778523D02*
X170507819Y-69207095D01*
X170507819Y-69492809D02*
X169507819Y-69492809D01*
X169507819Y-69492809D02*
X169650676Y-69397571D01*
X169650676Y-69397571D02*
X169745914Y-69302333D01*
X169745914Y-69302333D02*
X169793533Y-69207095D01*
X169841152Y-70635666D02*
X170507819Y-70635666D01*
X169460200Y-70397571D02*
X170174485Y-70159476D01*
X170174485Y-70159476D02*
X170174485Y-70778523D01*
X128089819Y-70223142D02*
X127613628Y-69889809D01*
X128089819Y-69651714D02*
X127089819Y-69651714D01*
X127089819Y-69651714D02*
X127089819Y-70032666D01*
X127089819Y-70032666D02*
X127137438Y-70127904D01*
X127137438Y-70127904D02*
X127185057Y-70175523D01*
X127185057Y-70175523D02*
X127280295Y-70223142D01*
X127280295Y-70223142D02*
X127423152Y-70223142D01*
X127423152Y-70223142D02*
X127518390Y-70175523D01*
X127518390Y-70175523D02*
X127566009Y-70127904D01*
X127566009Y-70127904D02*
X127613628Y-70032666D01*
X127613628Y-70032666D02*
X127613628Y-69651714D01*
X127185057Y-70604095D02*
X127137438Y-70651714D01*
X127137438Y-70651714D02*
X127089819Y-70746952D01*
X127089819Y-70746952D02*
X127089819Y-70985047D01*
X127089819Y-70985047D02*
X127137438Y-71080285D01*
X127137438Y-71080285D02*
X127185057Y-71127904D01*
X127185057Y-71127904D02*
X127280295Y-71175523D01*
X127280295Y-71175523D02*
X127375533Y-71175523D01*
X127375533Y-71175523D02*
X127518390Y-71127904D01*
X127518390Y-71127904D02*
X128089819Y-70556476D01*
X128089819Y-70556476D02*
X128089819Y-71175523D01*
X128089819Y-72127904D02*
X128089819Y-71556476D01*
X128089819Y-71842190D02*
X127089819Y-71842190D01*
X127089819Y-71842190D02*
X127232676Y-71746952D01*
X127232676Y-71746952D02*
X127327914Y-71651714D01*
X127327914Y-71651714D02*
X127375533Y-71556476D01*
X200409475Y-80605819D02*
X200742808Y-80129628D01*
X200980903Y-80605819D02*
X200980903Y-79605819D01*
X200980903Y-79605819D02*
X200599951Y-79605819D01*
X200599951Y-79605819D02*
X200504713Y-79653438D01*
X200504713Y-79653438D02*
X200457094Y-79701057D01*
X200457094Y-79701057D02*
X200409475Y-79796295D01*
X200409475Y-79796295D02*
X200409475Y-79939152D01*
X200409475Y-79939152D02*
X200457094Y-80034390D01*
X200457094Y-80034390D02*
X200504713Y-80082009D01*
X200504713Y-80082009D02*
X200599951Y-80129628D01*
X200599951Y-80129628D02*
X200980903Y-80129628D01*
X199933284Y-80605819D02*
X199742808Y-80605819D01*
X199742808Y-80605819D02*
X199647570Y-80558200D01*
X199647570Y-80558200D02*
X199599951Y-80510580D01*
X199599951Y-80510580D02*
X199504713Y-80367723D01*
X199504713Y-80367723D02*
X199457094Y-80177247D01*
X199457094Y-80177247D02*
X199457094Y-79796295D01*
X199457094Y-79796295D02*
X199504713Y-79701057D01*
X199504713Y-79701057D02*
X199552332Y-79653438D01*
X199552332Y-79653438D02*
X199647570Y-79605819D01*
X199647570Y-79605819D02*
X199838046Y-79605819D01*
X199838046Y-79605819D02*
X199933284Y-79653438D01*
X199933284Y-79653438D02*
X199980903Y-79701057D01*
X199980903Y-79701057D02*
X200028522Y-79796295D01*
X200028522Y-79796295D02*
X200028522Y-80034390D01*
X200028522Y-80034390D02*
X199980903Y-80129628D01*
X199980903Y-80129628D02*
X199933284Y-80177247D01*
X199933284Y-80177247D02*
X199838046Y-80224866D01*
X199838046Y-80224866D02*
X199647570Y-80224866D01*
X199647570Y-80224866D02*
X199552332Y-80177247D01*
X199552332Y-80177247D02*
X199504713Y-80129628D01*
X199504713Y-80129628D02*
X199457094Y-80034390D01*
X133516666Y-80020580D02*
X133564285Y-80068200D01*
X133564285Y-80068200D02*
X133707142Y-80115819D01*
X133707142Y-80115819D02*
X133802380Y-80115819D01*
X133802380Y-80115819D02*
X133945237Y-80068200D01*
X133945237Y-80068200D02*
X134040475Y-79972961D01*
X134040475Y-79972961D02*
X134088094Y-79877723D01*
X134088094Y-79877723D02*
X134135713Y-79687247D01*
X134135713Y-79687247D02*
X134135713Y-79544390D01*
X134135713Y-79544390D02*
X134088094Y-79353914D01*
X134088094Y-79353914D02*
X134040475Y-79258676D01*
X134040475Y-79258676D02*
X133945237Y-79163438D01*
X133945237Y-79163438D02*
X133802380Y-79115819D01*
X133802380Y-79115819D02*
X133707142Y-79115819D01*
X133707142Y-79115819D02*
X133564285Y-79163438D01*
X133564285Y-79163438D02*
X133516666Y-79211057D01*
X132659523Y-79115819D02*
X132849999Y-79115819D01*
X132849999Y-79115819D02*
X132945237Y-79163438D01*
X132945237Y-79163438D02*
X132992856Y-79211057D01*
X132992856Y-79211057D02*
X133088094Y-79353914D01*
X133088094Y-79353914D02*
X133135713Y-79544390D01*
X133135713Y-79544390D02*
X133135713Y-79925342D01*
X133135713Y-79925342D02*
X133088094Y-80020580D01*
X133088094Y-80020580D02*
X133040475Y-80068200D01*
X133040475Y-80068200D02*
X132945237Y-80115819D01*
X132945237Y-80115819D02*
X132754761Y-80115819D01*
X132754761Y-80115819D02*
X132659523Y-80068200D01*
X132659523Y-80068200D02*
X132611904Y-80020580D01*
X132611904Y-80020580D02*
X132564285Y-79925342D01*
X132564285Y-79925342D02*
X132564285Y-79687247D01*
X132564285Y-79687247D02*
X132611904Y-79592009D01*
X132611904Y-79592009D02*
X132659523Y-79544390D01*
X132659523Y-79544390D02*
X132754761Y-79496771D01*
X132754761Y-79496771D02*
X132945237Y-79496771D01*
X132945237Y-79496771D02*
X133040475Y-79544390D01*
X133040475Y-79544390D02*
X133088094Y-79592009D01*
X133088094Y-79592009D02*
X133135713Y-79687247D01*
X172846904Y-86830819D02*
X172846904Y-87640342D01*
X172846904Y-87640342D02*
X172799285Y-87735580D01*
X172799285Y-87735580D02*
X172751666Y-87783200D01*
X172751666Y-87783200D02*
X172656428Y-87830819D01*
X172656428Y-87830819D02*
X172465952Y-87830819D01*
X172465952Y-87830819D02*
X172370714Y-87783200D01*
X172370714Y-87783200D02*
X172323095Y-87735580D01*
X172323095Y-87735580D02*
X172275476Y-87640342D01*
X172275476Y-87640342D02*
X172275476Y-86830819D01*
X171894523Y-86830819D02*
X171275476Y-86830819D01*
X171275476Y-86830819D02*
X171608809Y-87211771D01*
X171608809Y-87211771D02*
X171465952Y-87211771D01*
X171465952Y-87211771D02*
X171370714Y-87259390D01*
X171370714Y-87259390D02*
X171323095Y-87307009D01*
X171323095Y-87307009D02*
X171275476Y-87402247D01*
X171275476Y-87402247D02*
X171275476Y-87640342D01*
X171275476Y-87640342D02*
X171323095Y-87735580D01*
X171323095Y-87735580D02*
X171370714Y-87783200D01*
X171370714Y-87783200D02*
X171465952Y-87830819D01*
X171465952Y-87830819D02*
X171751666Y-87830819D01*
X171751666Y-87830819D02*
X171846904Y-87783200D01*
X171846904Y-87783200D02*
X171894523Y-87735580D01*
X128309666Y-88370580D02*
X128357285Y-88418200D01*
X128357285Y-88418200D02*
X128500142Y-88465819D01*
X128500142Y-88465819D02*
X128595380Y-88465819D01*
X128595380Y-88465819D02*
X128738237Y-88418200D01*
X128738237Y-88418200D02*
X128833475Y-88322961D01*
X128833475Y-88322961D02*
X128881094Y-88227723D01*
X128881094Y-88227723D02*
X128928713Y-88037247D01*
X128928713Y-88037247D02*
X128928713Y-87894390D01*
X128928713Y-87894390D02*
X128881094Y-87703914D01*
X128881094Y-87703914D02*
X128833475Y-87608676D01*
X128833475Y-87608676D02*
X128738237Y-87513438D01*
X128738237Y-87513438D02*
X128595380Y-87465819D01*
X128595380Y-87465819D02*
X128500142Y-87465819D01*
X128500142Y-87465819D02*
X128357285Y-87513438D01*
X128357285Y-87513438D02*
X128309666Y-87561057D01*
X127976332Y-87465819D02*
X127357285Y-87465819D01*
X127357285Y-87465819D02*
X127690618Y-87846771D01*
X127690618Y-87846771D02*
X127547761Y-87846771D01*
X127547761Y-87846771D02*
X127452523Y-87894390D01*
X127452523Y-87894390D02*
X127404904Y-87942009D01*
X127404904Y-87942009D02*
X127357285Y-88037247D01*
X127357285Y-88037247D02*
X127357285Y-88275342D01*
X127357285Y-88275342D02*
X127404904Y-88370580D01*
X127404904Y-88370580D02*
X127452523Y-88418200D01*
X127452523Y-88418200D02*
X127547761Y-88465819D01*
X127547761Y-88465819D02*
X127833475Y-88465819D01*
X127833475Y-88465819D02*
X127928713Y-88418200D01*
X127928713Y-88418200D02*
X127976332Y-88370580D01*
X200504666Y-76040819D02*
X200837999Y-75564628D01*
X201076094Y-76040819D02*
X201076094Y-75040819D01*
X201076094Y-75040819D02*
X200695142Y-75040819D01*
X200695142Y-75040819D02*
X200599904Y-75088438D01*
X200599904Y-75088438D02*
X200552285Y-75136057D01*
X200552285Y-75136057D02*
X200504666Y-75231295D01*
X200504666Y-75231295D02*
X200504666Y-75374152D01*
X200504666Y-75374152D02*
X200552285Y-75469390D01*
X200552285Y-75469390D02*
X200599904Y-75517009D01*
X200599904Y-75517009D02*
X200695142Y-75564628D01*
X200695142Y-75564628D02*
X201076094Y-75564628D01*
X199647523Y-75040819D02*
X199837999Y-75040819D01*
X199837999Y-75040819D02*
X199933237Y-75088438D01*
X199933237Y-75088438D02*
X199980856Y-75136057D01*
X199980856Y-75136057D02*
X200076094Y-75278914D01*
X200076094Y-75278914D02*
X200123713Y-75469390D01*
X200123713Y-75469390D02*
X200123713Y-75850342D01*
X200123713Y-75850342D02*
X200076094Y-75945580D01*
X200076094Y-75945580D02*
X200028475Y-75993200D01*
X200028475Y-75993200D02*
X199933237Y-76040819D01*
X199933237Y-76040819D02*
X199742761Y-76040819D01*
X199742761Y-76040819D02*
X199647523Y-75993200D01*
X199647523Y-75993200D02*
X199599904Y-75945580D01*
X199599904Y-75945580D02*
X199552285Y-75850342D01*
X199552285Y-75850342D02*
X199552285Y-75612247D01*
X199552285Y-75612247D02*
X199599904Y-75517009D01*
X199599904Y-75517009D02*
X199647523Y-75469390D01*
X199647523Y-75469390D02*
X199742761Y-75421771D01*
X199742761Y-75421771D02*
X199933237Y-75421771D01*
X199933237Y-75421771D02*
X200028475Y-75469390D01*
X200028475Y-75469390D02*
X200076094Y-75517009D01*
X200076094Y-75517009D02*
X200123713Y-75612247D01*
X129325666Y-85544819D02*
X129658999Y-85068628D01*
X129897094Y-85544819D02*
X129897094Y-84544819D01*
X129897094Y-84544819D02*
X129516142Y-84544819D01*
X129516142Y-84544819D02*
X129420904Y-84592438D01*
X129420904Y-84592438D02*
X129373285Y-84640057D01*
X129373285Y-84640057D02*
X129325666Y-84735295D01*
X129325666Y-84735295D02*
X129325666Y-84878152D01*
X129325666Y-84878152D02*
X129373285Y-84973390D01*
X129373285Y-84973390D02*
X129420904Y-85021009D01*
X129420904Y-85021009D02*
X129516142Y-85068628D01*
X129516142Y-85068628D02*
X129897094Y-85068628D01*
X128373285Y-85544819D02*
X128944713Y-85544819D01*
X128658999Y-85544819D02*
X128658999Y-84544819D01*
X128658999Y-84544819D02*
X128754237Y-84687676D01*
X128754237Y-84687676D02*
X128849475Y-84782914D01*
X128849475Y-84782914D02*
X128944713Y-84830533D01*
X171769057Y-74698761D02*
X171721438Y-74603523D01*
X171721438Y-74603523D02*
X171626200Y-74508285D01*
X171626200Y-74508285D02*
X171483342Y-74365428D01*
X171483342Y-74365428D02*
X171435723Y-74270190D01*
X171435723Y-74270190D02*
X171435723Y-74174952D01*
X171673819Y-74222571D02*
X171626200Y-74127333D01*
X171626200Y-74127333D02*
X171530961Y-74032095D01*
X171530961Y-74032095D02*
X171340485Y-73984476D01*
X171340485Y-73984476D02*
X171007152Y-73984476D01*
X171007152Y-73984476D02*
X170816676Y-74032095D01*
X170816676Y-74032095D02*
X170721438Y-74127333D01*
X170721438Y-74127333D02*
X170673819Y-74222571D01*
X170673819Y-74222571D02*
X170673819Y-74413047D01*
X170673819Y-74413047D02*
X170721438Y-74508285D01*
X170721438Y-74508285D02*
X170816676Y-74603523D01*
X170816676Y-74603523D02*
X171007152Y-74651142D01*
X171007152Y-74651142D02*
X171340485Y-74651142D01*
X171340485Y-74651142D02*
X171530961Y-74603523D01*
X171530961Y-74603523D02*
X171626200Y-74508285D01*
X171626200Y-74508285D02*
X171673819Y-74413047D01*
X171673819Y-74413047D02*
X171673819Y-74222571D01*
X171673819Y-75603523D02*
X171673819Y-75032095D01*
X171673819Y-75317809D02*
X170673819Y-75317809D01*
X170673819Y-75317809D02*
X170816676Y-75222571D01*
X170816676Y-75222571D02*
X170911914Y-75127333D01*
X170911914Y-75127333D02*
X170959533Y-75032095D01*
X190850819Y-66889333D02*
X190374628Y-66556000D01*
X190850819Y-66317905D02*
X189850819Y-66317905D01*
X189850819Y-66317905D02*
X189850819Y-66698857D01*
X189850819Y-66698857D02*
X189898438Y-66794095D01*
X189898438Y-66794095D02*
X189946057Y-66841714D01*
X189946057Y-66841714D02*
X190041295Y-66889333D01*
X190041295Y-66889333D02*
X190184152Y-66889333D01*
X190184152Y-66889333D02*
X190279390Y-66841714D01*
X190279390Y-66841714D02*
X190327009Y-66794095D01*
X190327009Y-66794095D02*
X190374628Y-66698857D01*
X190374628Y-66698857D02*
X190374628Y-66317905D01*
X189946057Y-67270286D02*
X189898438Y-67317905D01*
X189898438Y-67317905D02*
X189850819Y-67413143D01*
X189850819Y-67413143D02*
X189850819Y-67651238D01*
X189850819Y-67651238D02*
X189898438Y-67746476D01*
X189898438Y-67746476D02*
X189946057Y-67794095D01*
X189946057Y-67794095D02*
X190041295Y-67841714D01*
X190041295Y-67841714D02*
X190136533Y-67841714D01*
X190136533Y-67841714D02*
X190279390Y-67794095D01*
X190279390Y-67794095D02*
X190850819Y-67222667D01*
X190850819Y-67222667D02*
X190850819Y-67841714D01*
X158093580Y-85809333D02*
X158141200Y-85761714D01*
X158141200Y-85761714D02*
X158188819Y-85618857D01*
X158188819Y-85618857D02*
X158188819Y-85523619D01*
X158188819Y-85523619D02*
X158141200Y-85380762D01*
X158141200Y-85380762D02*
X158045961Y-85285524D01*
X158045961Y-85285524D02*
X157950723Y-85237905D01*
X157950723Y-85237905D02*
X157760247Y-85190286D01*
X157760247Y-85190286D02*
X157617390Y-85190286D01*
X157617390Y-85190286D02*
X157426914Y-85237905D01*
X157426914Y-85237905D02*
X157331676Y-85285524D01*
X157331676Y-85285524D02*
X157236438Y-85380762D01*
X157236438Y-85380762D02*
X157188819Y-85523619D01*
X157188819Y-85523619D02*
X157188819Y-85618857D01*
X157188819Y-85618857D02*
X157236438Y-85761714D01*
X157236438Y-85761714D02*
X157284057Y-85809333D01*
X158188819Y-86761714D02*
X158188819Y-86190286D01*
X158188819Y-86476000D02*
X157188819Y-86476000D01*
X157188819Y-86476000D02*
X157331676Y-86380762D01*
X157331676Y-86380762D02*
X157426914Y-86285524D01*
X157426914Y-86285524D02*
X157474533Y-86190286D01*
X189709666Y-74421580D02*
X189757285Y-74469200D01*
X189757285Y-74469200D02*
X189900142Y-74516819D01*
X189900142Y-74516819D02*
X189995380Y-74516819D01*
X189995380Y-74516819D02*
X190138237Y-74469200D01*
X190138237Y-74469200D02*
X190233475Y-74373961D01*
X190233475Y-74373961D02*
X190281094Y-74278723D01*
X190281094Y-74278723D02*
X190328713Y-74088247D01*
X190328713Y-74088247D02*
X190328713Y-73945390D01*
X190328713Y-73945390D02*
X190281094Y-73754914D01*
X190281094Y-73754914D02*
X190233475Y-73659676D01*
X190233475Y-73659676D02*
X190138237Y-73564438D01*
X190138237Y-73564438D02*
X189995380Y-73516819D01*
X189995380Y-73516819D02*
X189900142Y-73516819D01*
X189900142Y-73516819D02*
X189757285Y-73564438D01*
X189757285Y-73564438D02*
X189709666Y-73612057D01*
X188804904Y-73516819D02*
X189281094Y-73516819D01*
X189281094Y-73516819D02*
X189328713Y-73993009D01*
X189328713Y-73993009D02*
X189281094Y-73945390D01*
X189281094Y-73945390D02*
X189185856Y-73897771D01*
X189185856Y-73897771D02*
X188947761Y-73897771D01*
X188947761Y-73897771D02*
X188852523Y-73945390D01*
X188852523Y-73945390D02*
X188804904Y-73993009D01*
X188804904Y-73993009D02*
X188757285Y-74088247D01*
X188757285Y-74088247D02*
X188757285Y-74326342D01*
X188757285Y-74326342D02*
X188804904Y-74421580D01*
X188804904Y-74421580D02*
X188852523Y-74469200D01*
X188852523Y-74469200D02*
X188947761Y-74516819D01*
X188947761Y-74516819D02*
X189185856Y-74516819D01*
X189185856Y-74516819D02*
X189281094Y-74469200D01*
X189281094Y-74469200D02*
X189328713Y-74421580D01*
X161551580Y-83335333D02*
X161599200Y-83287714D01*
X161599200Y-83287714D02*
X161646819Y-83144857D01*
X161646819Y-83144857D02*
X161646819Y-83049619D01*
X161646819Y-83049619D02*
X161599200Y-82906762D01*
X161599200Y-82906762D02*
X161503961Y-82811524D01*
X161503961Y-82811524D02*
X161408723Y-82763905D01*
X161408723Y-82763905D02*
X161218247Y-82716286D01*
X161218247Y-82716286D02*
X161075390Y-82716286D01*
X161075390Y-82716286D02*
X160884914Y-82763905D01*
X160884914Y-82763905D02*
X160789676Y-82811524D01*
X160789676Y-82811524D02*
X160694438Y-82906762D01*
X160694438Y-82906762D02*
X160646819Y-83049619D01*
X160646819Y-83049619D02*
X160646819Y-83144857D01*
X160646819Y-83144857D02*
X160694438Y-83287714D01*
X160694438Y-83287714D02*
X160742057Y-83335333D01*
X160742057Y-83716286D02*
X160694438Y-83763905D01*
X160694438Y-83763905D02*
X160646819Y-83859143D01*
X160646819Y-83859143D02*
X160646819Y-84097238D01*
X160646819Y-84097238D02*
X160694438Y-84192476D01*
X160694438Y-84192476D02*
X160742057Y-84240095D01*
X160742057Y-84240095D02*
X160837295Y-84287714D01*
X160837295Y-84287714D02*
X160932533Y-84287714D01*
X160932533Y-84287714D02*
X161075390Y-84240095D01*
X161075390Y-84240095D02*
X161646819Y-83668667D01*
X161646819Y-83668667D02*
X161646819Y-84287714D01*
X146438857Y-82750819D02*
X146772190Y-82274628D01*
X147010285Y-82750819D02*
X147010285Y-81750819D01*
X147010285Y-81750819D02*
X146629333Y-81750819D01*
X146629333Y-81750819D02*
X146534095Y-81798438D01*
X146534095Y-81798438D02*
X146486476Y-81846057D01*
X146486476Y-81846057D02*
X146438857Y-81941295D01*
X146438857Y-81941295D02*
X146438857Y-82084152D01*
X146438857Y-82084152D02*
X146486476Y-82179390D01*
X146486476Y-82179390D02*
X146534095Y-82227009D01*
X146534095Y-82227009D02*
X146629333Y-82274628D01*
X146629333Y-82274628D02*
X147010285Y-82274628D01*
X145486476Y-82750819D02*
X146057904Y-82750819D01*
X145772190Y-82750819D02*
X145772190Y-81750819D01*
X145772190Y-81750819D02*
X145867428Y-81893676D01*
X145867428Y-81893676D02*
X145962666Y-81988914D01*
X145962666Y-81988914D02*
X146057904Y-82036533D01*
X145010285Y-82750819D02*
X144819809Y-82750819D01*
X144819809Y-82750819D02*
X144724571Y-82703200D01*
X144724571Y-82703200D02*
X144676952Y-82655580D01*
X144676952Y-82655580D02*
X144581714Y-82512723D01*
X144581714Y-82512723D02*
X144534095Y-82322247D01*
X144534095Y-82322247D02*
X144534095Y-81941295D01*
X144534095Y-81941295D02*
X144581714Y-81846057D01*
X144581714Y-81846057D02*
X144629333Y-81798438D01*
X144629333Y-81798438D02*
X144724571Y-81750819D01*
X144724571Y-81750819D02*
X144915047Y-81750819D01*
X144915047Y-81750819D02*
X145010285Y-81798438D01*
X145010285Y-81798438D02*
X145057904Y-81846057D01*
X145057904Y-81846057D02*
X145105523Y-81941295D01*
X145105523Y-81941295D02*
X145105523Y-82179390D01*
X145105523Y-82179390D02*
X145057904Y-82274628D01*
X145057904Y-82274628D02*
X145010285Y-82322247D01*
X145010285Y-82322247D02*
X144915047Y-82369866D01*
X144915047Y-82369866D02*
X144724571Y-82369866D01*
X144724571Y-82369866D02*
X144629333Y-82322247D01*
X144629333Y-82322247D02*
X144581714Y-82274628D01*
X144581714Y-82274628D02*
X144534095Y-82179390D01*
D14*
G04 #@! TO.C,R22*
X132319500Y-72406742D02*
X132319500Y-72881258D01*
X133364500Y-72406742D02*
X133364500Y-72881258D01*
G04 #@! TO.C,R13*
X198035258Y-85731500D02*
X197560742Y-85731500D01*
X198035258Y-86776500D02*
X197560742Y-86776500D01*
G04 #@! TO.C,Q6*
X129603500Y-77053000D02*
X130253500Y-77053000D01*
X129603500Y-80173000D02*
X130253500Y-80173000D01*
X130903500Y-77053000D02*
X130253500Y-77053000D01*
X130903500Y-80173000D02*
X130253500Y-80173000D01*
X129331000Y-80453000D02*
X128851000Y-80453000D01*
X129091000Y-80123000D01*
X129331000Y-80453000D01*
G36*
X129331000Y-80453000D02*
G01*
X128851000Y-80453000D01*
X129091000Y-80123000D01*
X129331000Y-80453000D01*
G37*
G04 #@! TO.C,R18*
X162753500Y-73223258D02*
X162753500Y-72748742D01*
X163798500Y-73223258D02*
X163798500Y-72748742D01*
G04 #@! TO.C,D1*
X132808000Y-74334000D02*
X135468000Y-74334000D01*
X132808000Y-76034000D02*
X135468000Y-76034000D01*
X135468000Y-76034000D02*
X135468000Y-74334000D01*
G04 #@! TO.C,R17*
X182230500Y-69231742D02*
X182230500Y-69706258D01*
X183275500Y-69231742D02*
X183275500Y-69706258D01*
G04 #@! TO.C,L1*
X134266000Y-82638000D02*
X134266000Y-83898500D01*
X134266000Y-89188000D02*
X134266000Y-87927500D01*
X140816000Y-82638000D02*
X134266000Y-82638000D01*
X140816000Y-83898500D02*
X140816000Y-82638000D01*
X140816000Y-87927500D02*
X140816000Y-89188000D01*
X140816000Y-89188000D02*
X134266000Y-89188000D01*
G04 #@! TO.C,U5*
X136650000Y-81195000D02*
X136650000Y-79795000D01*
X138970000Y-81195000D02*
X138970000Y-79795000D01*
X136700000Y-79375000D02*
X136370000Y-79615000D01*
X136370000Y-79135000D01*
X136700000Y-79375000D01*
G36*
X136700000Y-79375000D02*
G01*
X136370000Y-79615000D01*
X136370000Y-79135000D01*
X136700000Y-79375000D01*
G37*
G04 #@! TO.C,Q2*
X174714333Y-72287500D02*
X174714333Y-72937500D01*
X174714333Y-73587500D02*
X174714333Y-72937500D01*
X177834333Y-72287500D02*
X177834333Y-72937500D01*
X177834333Y-73587500D02*
X177834333Y-72937500D01*
X174764333Y-71775000D02*
X174434333Y-72015000D01*
X174434333Y-71535000D01*
X174764333Y-71775000D01*
G36*
X174764333Y-71775000D02*
G01*
X174434333Y-72015000D01*
X174434333Y-71535000D01*
X174764333Y-71775000D01*
G37*
G04 #@! TO.C,Q4*
X182163000Y-72287500D02*
X182163000Y-72937500D01*
X182163000Y-73587500D02*
X182163000Y-72937500D01*
X185283000Y-72287500D02*
X185283000Y-72937500D01*
X185283000Y-73587500D02*
X185283000Y-72937500D01*
X182213000Y-71775000D02*
X181883000Y-72015000D01*
X181883000Y-71535000D01*
X182213000Y-71775000D01*
G36*
X182213000Y-71775000D02*
G01*
X181883000Y-72015000D01*
X181883000Y-71535000D01*
X182213000Y-71775000D01*
G37*
G04 #@! TO.C,R11*
X198035258Y-82683500D02*
X197560742Y-82683500D01*
X198035258Y-83728500D02*
X197560742Y-83728500D01*
G04 #@! TO.C,R15*
X174779833Y-69231742D02*
X174779833Y-69706258D01*
X175824833Y-69231742D02*
X175824833Y-69706258D01*
G04 #@! TO.C,R23*
X124697258Y-70597500D02*
X124222742Y-70597500D01*
X124697258Y-71642500D02*
X124222742Y-71642500D01*
G04 #@! TO.C,R5*
X147747258Y-69835500D02*
X147272742Y-69835500D01*
X147747258Y-70880500D02*
X147272742Y-70880500D01*
G04 #@! TO.C,R10*
X198035258Y-81159500D02*
X197560742Y-81159500D01*
X198035258Y-82204500D02*
X197560742Y-82204500D01*
G04 #@! TO.C,FB1*
X160339721Y-85596000D02*
X160665279Y-85596000D01*
X160339721Y-86616000D02*
X160665279Y-86616000D01*
G04 #@! TO.C,SW1*
X192808000Y-69692000D02*
X192808000Y-67612000D01*
X193588000Y-66422000D02*
X194078000Y-65932000D01*
X193588000Y-70882000D02*
X194078000Y-71372000D01*
X196978000Y-65932000D02*
X194078000Y-65932000D01*
X196978000Y-71372000D02*
X194078000Y-71372000D01*
X197468000Y-66422000D02*
X196978000Y-65932000D01*
X197468000Y-70882000D02*
X196978000Y-71372000D01*
X198248000Y-69692000D02*
X198248000Y-67612000D01*
G04 #@! TO.C,C7*
X139727000Y-80190748D02*
X139727000Y-80713252D01*
X141197000Y-80190748D02*
X141197000Y-80713252D01*
G04 #@! TO.C,R20*
X145558742Y-77201500D02*
X146033258Y-77201500D01*
X145558742Y-78246500D02*
X146033258Y-78246500D01*
G04 #@! TO.C,J3*
X144847000Y-87189000D02*
X144847000Y-89849000D01*
X144847000Y-87189000D02*
X152527000Y-87189000D01*
X144847000Y-89849000D02*
X152527000Y-89849000D01*
X152527000Y-87189000D02*
X152527000Y-89849000D01*
X155127000Y-88519000D02*
X155127000Y-89849000D01*
X155127000Y-89849000D02*
X153797000Y-89849000D01*
G04 #@! TO.C,C4*
X165167420Y-76540000D02*
X165448580Y-76540000D01*
X165167420Y-77560000D02*
X165448580Y-77560000D01*
G04 #@! TO.C,Q5*
X164510000Y-72336000D02*
X164510000Y-72986000D01*
X164510000Y-73636000D02*
X164510000Y-72986000D01*
X167630000Y-72336000D02*
X167630000Y-72986000D01*
X167630000Y-73636000D02*
X167630000Y-72986000D01*
X164560000Y-71823500D02*
X164230000Y-72063500D01*
X164230000Y-71583500D01*
X164560000Y-71823500D01*
G36*
X164560000Y-71823500D02*
G01*
X164230000Y-72063500D01*
X164230000Y-71583500D01*
X164560000Y-71823500D01*
G37*
G04 #@! TO.C,U1*
X147711000Y-79773000D02*
X147711000Y-81723000D01*
X147711000Y-83673000D02*
X147711000Y-81723000D01*
X156581000Y-79773000D02*
X156581000Y-81723000D01*
X156581000Y-83673000D02*
X156581000Y-81723000D01*
X156846000Y-84663000D02*
X156516000Y-84423000D01*
X156846000Y-84183000D01*
X156846000Y-84663000D01*
G36*
X156846000Y-84663000D02*
G01*
X156516000Y-84423000D01*
X156846000Y-84183000D01*
X156846000Y-84663000D01*
G37*
G04 #@! TO.C,J2*
X135830000Y-68266000D02*
X135830000Y-70866000D01*
X135830000Y-73466000D02*
X135830000Y-72136000D01*
X137160000Y-73466000D02*
X135830000Y-73466000D01*
X138490000Y-68266000D02*
X135830000Y-68266000D01*
X138490000Y-68266000D02*
X138490000Y-70866000D01*
X138490000Y-70866000D02*
X135830000Y-70866000D01*
G04 #@! TO.C,BT1*
X107392000Y-67822000D02*
X112392000Y-67822000D01*
X107392000Y-81022000D02*
X112392000Y-81022000D01*
X117092000Y-67822000D02*
X115192000Y-67822000D01*
X117092000Y-81022000D02*
X115192000Y-81022000D01*
X120192000Y-70872000D02*
X117092000Y-67822000D01*
X120192000Y-78022000D02*
X117092000Y-81022000D01*
X120192000Y-78022000D02*
X120192000Y-70872000D01*
X107729210Y-70522000D02*
G75*
G02*
X107789141Y-78408132I-5136262J-3982327D01*
G01*
G04 #@! TO.C,U4*
X189625000Y-76495000D02*
X191575000Y-76495000D01*
X189625000Y-86615000D02*
X191575000Y-86615000D01*
X193525000Y-76495000D02*
X191575000Y-76495000D01*
X193525000Y-86615000D02*
X191575000Y-86615000D01*
X194275000Y-76550000D02*
X194035000Y-76220000D01*
X194515000Y-76220000D01*
X194275000Y-76550000D01*
G36*
X194275000Y-76550000D02*
G01*
X194035000Y-76220000D01*
X194515000Y-76220000D01*
X194275000Y-76550000D01*
G37*
G04 #@! TO.C,R12*
X198035258Y-84207500D02*
X197560742Y-84207500D01*
X198035258Y-85252500D02*
X197560742Y-85252500D01*
G04 #@! TO.C,Q3*
X178438666Y-72287500D02*
X178438666Y-72937500D01*
X178438666Y-73587500D02*
X178438666Y-72937500D01*
X181558666Y-72287500D02*
X181558666Y-72937500D01*
X181558666Y-73587500D02*
X181558666Y-72937500D01*
X178488666Y-71775000D02*
X178158666Y-72015000D01*
X178158666Y-71535000D01*
X178488666Y-71775000D01*
G36*
X178488666Y-71775000D02*
G01*
X178158666Y-72015000D01*
X178158666Y-71535000D01*
X178488666Y-71775000D01*
G37*
G04 #@! TO.C,Q7*
X124191000Y-72227000D02*
X124841000Y-72227000D01*
X124191000Y-75347000D02*
X124841000Y-75347000D01*
X125491000Y-72227000D02*
X124841000Y-72227000D01*
X125491000Y-75347000D02*
X124841000Y-75347000D01*
X126003500Y-72277000D02*
X125763500Y-71947000D01*
X126243500Y-71947000D01*
X126003500Y-72277000D01*
G36*
X126003500Y-72277000D02*
G01*
X125763500Y-71947000D01*
X126243500Y-71947000D01*
X126003500Y-72277000D01*
G37*
G04 #@! TO.C,R8*
X198035258Y-78111500D02*
X197560742Y-78111500D01*
X198035258Y-79156500D02*
X197560742Y-79156500D01*
G04 #@! TO.C,Q8*
X128742000Y-73566500D02*
X128742000Y-74216500D01*
X128742000Y-74866500D02*
X128742000Y-74216500D01*
X131862000Y-73566500D02*
X131862000Y-74216500D01*
X131862000Y-74866500D02*
X131862000Y-74216500D01*
X132142000Y-75619000D02*
X131812000Y-75379000D01*
X132142000Y-75139000D01*
X132142000Y-75619000D01*
G36*
X132142000Y-75619000D02*
G01*
X131812000Y-75379000D01*
X132142000Y-75139000D01*
X132142000Y-75619000D01*
G37*
G04 #@! TO.C,J1*
X147148000Y-72711000D02*
X148478000Y-72711000D01*
X147148000Y-74041000D02*
X147148000Y-72711000D01*
X149748000Y-75371000D02*
X149748000Y-72711000D01*
X154888000Y-72711000D02*
X149748000Y-72711000D01*
X154888000Y-75371000D02*
X149748000Y-75371000D01*
X154888000Y-75371000D02*
X154888000Y-72711000D01*
G04 #@! TO.C,BT2*
X122114000Y-76394000D02*
X122114000Y-79054000D01*
X122114000Y-76394000D02*
X124714000Y-76394000D01*
X122114000Y-79054000D02*
X124714000Y-79054000D01*
X124714000Y-76394000D02*
X124714000Y-79054000D01*
X127314000Y-77724000D02*
X127314000Y-79054000D01*
X127314000Y-79054000D02*
X125984000Y-79054000D01*
G04 #@! TO.C,SW2*
X141466000Y-65587000D02*
X147586000Y-65587000D01*
X141466000Y-69287000D02*
X141466000Y-65587000D01*
X147586000Y-65587000D02*
X147586000Y-69287000D01*
X147586000Y-69287000D02*
X141466000Y-69287000D01*
G04 #@! TO.C,R16*
X178505166Y-69231742D02*
X178505166Y-69706258D01*
X179550166Y-69231742D02*
X179550166Y-69706258D01*
G04 #@! TO.C,R7*
X198035258Y-76587500D02*
X197560742Y-76587500D01*
X198035258Y-77632500D02*
X197560742Y-77632500D01*
G04 #@! TO.C,U2*
X121940000Y-81895000D02*
X123890000Y-81895001D01*
X121940000Y-87015000D02*
X123890000Y-87014999D01*
X125840000Y-81895000D02*
X123890000Y-81895001D01*
X125840000Y-87015000D02*
X123890000Y-87014999D01*
X121430000Y-87250000D02*
X120950001Y-87250000D01*
X121190000Y-86920000D01*
X121430000Y-87250000D01*
G36*
X121430000Y-87250000D02*
G01*
X120950001Y-87250000D01*
X121190000Y-86920000D01*
X121430000Y-87250000D01*
G37*
G04 #@! TO.C,D2*
X132808000Y-76366000D02*
X135468000Y-76366000D01*
X132808000Y-78066000D02*
X135468000Y-78066000D01*
X135468000Y-78066000D02*
X135468000Y-76366000D01*
G04 #@! TO.C,R3*
X154372000Y-63948000D02*
X155702000Y-63948000D01*
X154372000Y-65278000D02*
X154372000Y-63948000D01*
X156972000Y-66608000D02*
X156972000Y-63948000D01*
X159572000Y-63948000D02*
X156972000Y-63948000D01*
X159572000Y-66608000D02*
X156972000Y-66608000D01*
X159572000Y-66608000D02*
X159572000Y-63948000D01*
G04 #@! TO.C,Y1*
X108298999Y-83959000D02*
X108299000Y-87359001D01*
X108299000Y-87359001D02*
X116698999Y-87359000D01*
X116698999Y-83959000D02*
X108298999Y-83959000D01*
X116698999Y-87359000D02*
X116698999Y-83959000D01*
X117849000Y-84709000D02*
X116699000Y-85114000D01*
X117849000Y-86609000D02*
X116699000Y-86204000D01*
X118299000Y-84709000D02*
X117849000Y-84709000D01*
X118299000Y-86609000D02*
X117849000Y-86609000D01*
G04 #@! TO.C,R4*
X152512500Y-65198258D02*
X152512500Y-64723742D01*
X153557500Y-65198258D02*
X153557500Y-64723742D01*
G04 #@! TO.C,R14*
X171054500Y-69231742D02*
X171054500Y-69706258D01*
X172099500Y-69231742D02*
X172099500Y-69706258D01*
G04 #@! TO.C,R21*
X127112500Y-73613742D02*
X127112500Y-74088258D01*
X128157500Y-73613742D02*
X128157500Y-74088258D01*
G04 #@! TO.C,R9*
X198035258Y-79635500D02*
X197560742Y-79635500D01*
X198035258Y-80680500D02*
X197560742Y-80680500D01*
G04 #@! TO.C,C6*
X134104748Y-80606000D02*
X134627252Y-80606000D01*
X134104748Y-82076000D02*
X134627252Y-82076000D01*
G04 #@! TO.C,U3*
X168946000Y-76435000D02*
X170896000Y-76435000D01*
X168946000Y-86555000D02*
X170896000Y-86555000D01*
X172846000Y-76435000D02*
X170896000Y-76435000D01*
X172846000Y-86555000D02*
X170896000Y-86555000D01*
X173596000Y-76490000D02*
X173356000Y-76160000D01*
X173836000Y-76160000D01*
X173596000Y-76490000D01*
G36*
X173596000Y-76490000D02*
G01*
X173356000Y-76160000D01*
X173836000Y-76160000D01*
X173596000Y-76490000D01*
G37*
G04 #@! TO.C,C3*
X125462419Y-87501000D02*
X125743581Y-87501000D01*
X125462419Y-88521000D02*
X125743581Y-88521000D01*
G04 #@! TO.C,R6*
X198035258Y-75063500D02*
X197560742Y-75063500D01*
X198035258Y-76108500D02*
X197560742Y-76108500D01*
G04 #@! TO.C,R1*
X128984742Y-85837500D02*
X129459258Y-85837500D01*
X128984742Y-86882500D02*
X129459258Y-86882500D01*
G04 #@! TO.C,Q1*
X170990000Y-72287500D02*
X170990000Y-72937500D01*
X170990000Y-73587500D02*
X170990000Y-72937500D01*
X174110000Y-72287500D02*
X174110000Y-72937500D01*
X174110000Y-73587500D02*
X174110000Y-72937500D01*
X171040000Y-71775000D02*
X170710000Y-72015000D01*
X170710000Y-71535000D01*
X171040000Y-71775000D01*
G36*
X171040000Y-71775000D02*
G01*
X170710000Y-72015000D01*
X170710000Y-71535000D01*
X171040000Y-71775000D01*
G37*
G04 #@! TO.C,R2*
X189873500Y-69896258D02*
X189873500Y-69421742D01*
X190918500Y-69896258D02*
X190918500Y-69421742D01*
G04 #@! TO.C,C1*
X157224000Y-83295420D02*
X157224000Y-83576580D01*
X158244000Y-83295420D02*
X158244000Y-83576580D01*
G04 #@! TO.C,C5*
X189556580Y-74949000D02*
X189275420Y-74949000D01*
X189556580Y-75969000D02*
X189275420Y-75969000D01*
G04 #@! TO.C,C2*
X158777000Y-83240748D02*
X158777000Y-83763252D01*
X160247000Y-83240748D02*
X160247000Y-83763252D01*
G04 #@! TO.C,R19*
X145558742Y-78725500D02*
X146033258Y-78725500D01*
X145558742Y-79770500D02*
X146033258Y-79770500D01*
G04 #@! TD*
M02*
